<svg width="347" height="406" viewBox="0 0 347 406" fill="none" xmlns="http://www.w3.org/2000/svg">
<g filter="url(#filter0_d_1_232)">
<rect x="10.4282" y="6" width="326.49" height="386" rx="26" fill="white"/>
<g clip-path="url(#clip0_1_232)">
<path d="M269.532 282.955L266.397 282.232L268.293 268.013L272.919 269.08L269.532 282.955Z" fill="#FFB6B6"/>
<path d="M257.155 286.622C257.018 287.14 257.281 287.655 257.742 287.773L263.927 289.352C263.927 289.352 265.17 287.1 267.925 286.698L267.188 290.185L270.378 291L271.452 285.364C271.452 285.364 273.086 282.62 271.713 280.653C270.34 278.686 271.72 279.263 271.72 279.263L271.927 275.658L266.959 274.985L265.505 280.355L261.757 285.098L257.885 285.89C257.541 285.96 257.254 286.248 257.155 286.622Z" fill="#2F2E41"/>
<path d="M299.584 279.6L296.725 281.057L288.767 269.044L292.986 266.893L299.584 279.6Z" fill="#FFB6B6"/>
<path d="M292.607 290.308C292.846 290.789 293.386 291.012 293.814 290.806L299.555 288.047C299.555 288.047 299.011 285.54 300.837 283.472L302.583 286.592L305.544 285.169L302.635 280.201C302.635 280.201 302.062 277.07 299.719 276.455C297.376 275.84 298.806 275.395 298.806 275.395L296.58 272.525L292.361 275.193L294.807 280.203L295.095 286.204L292.678 289.284C292.463 289.558 292.435 289.96 292.607 290.308Z" fill="#2F2E41"/>
<path d="M131.908 226.789H215.001C216.047 226.789 216.895 225.954 216.895 224.925V109.213C216.895 108.183 216.047 107.349 215.001 107.349H131.908C130.861 107.349 130.013 108.183 130.013 109.213V224.925C130.013 225.954 130.861 226.789 131.908 226.789Z" fill="white"/>
<path d="M217.249 227.138H129.659V107H217.249V227.138ZM130.368 226.44H216.541V107.697H130.368V226.44Z" fill="#E6E6E6"/>
<path d="M197.565 126.246C197.902 126.246 198.176 126.515 198.176 126.846V128.048C198.176 128.38 197.902 128.649 197.565 128.649H149.344C149.007 128.649 148.733 128.38 148.733 128.048V126.846C148.733 126.515 149.007 126.246 149.344 126.246H197.565Z" fill="#E6E6E6"/>
<path d="M197.565 131.952C197.902 131.952 198.176 132.221 198.176 132.553V133.754C198.176 134.086 197.902 134.355 197.565 134.355H149.344C149.007 134.355 148.733 134.086 148.733 133.754V132.553C148.733 132.221 149.007 131.952 149.344 131.952H197.565Z" fill="#E6E6E6"/>
<path d="M197.565 137.659C197.902 137.659 198.176 137.928 198.176 138.259V139.461C198.176 139.793 197.902 140.062 197.565 140.062H149.344C149.007 140.062 148.733 139.793 148.733 139.461V138.26C148.733 137.928 149.007 137.659 149.344 137.659L197.565 137.659Z" fill="#CA0000"/>
<path d="M286.322 152.63H302.34C302.316 151.89 302.476 151.155 302.806 150.488C302.815 151.228 302.98 151.957 303.291 152.63H304.018C305.131 152.629 306.033 151.742 306.034 150.646V140.403C306.034 135.388 301.676 127.869 296.941 131.015C296.789 131.008 294.388 129.961 294.236 129.961C290.07 129.965 288.638 133.664 287.38 137.572C285.947 136.922 284.959 139.635 284.245 144.411C284.036 145.804 283.851 147.373 283.685 149.086C283.225 150.523 284.037 152.054 285.497 152.506C285.764 152.589 286.043 152.631 286.323 152.632L286.322 152.63Z" fill="#2F2E41"/>
<path d="M254.89 211.192C254.096 213.044 254.423 214.949 255.621 215.446C256.819 215.944 258.434 214.845 259.228 212.992C259.555 212.256 259.699 211.453 259.647 210.651L262.911 202.76L259.116 201.331L256.299 209.263C255.679 209.786 255.196 210.447 254.889 211.191L254.89 211.192Z" fill="#FFB6B6"/>
<path d="M289.986 149.163L297.642 150.739L296.468 154.206L298.817 180.723L294.902 189.261L271.024 187.334L276.896 175.777C276.896 175.777 274.547 166.147 277.679 164.22C280.811 162.293 285.899 152.663 285.899 152.663L289.986 149.163Z" fill="#CA0000"/>
<path d="M297.123 152.273L303.906 154.975L301.557 188.874L306.646 218.151L290.205 220.848C290.205 220.848 292.162 156.131 293.336 154.975C294.511 153.819 297.123 152.271 297.123 152.271V152.273Z" fill="#2F2E41"/>
<path d="M283.839 156.5C283.839 156.5 279.426 153.753 277.041 155.787C274.657 157.822 256.299 207.004 256.299 207.004L261.251 209.121L272.607 185.69L283.839 156.5Z" fill="#2F2E41"/>
<path d="M271.197 239.367L266.719 273.239L272.982 273.624C272.982 273.624 276.239 264.88 279.954 254.579C280.745 252.395 281.555 250.141 282.357 247.884C283.226 245.434 284.092 242.984 284.913 240.619C286.945 234.787 288.726 229.478 289.744 226.011C289.92 225.403 290.076 224.852 290.205 224.366C292.944 214.012 294.511 186.952 294.511 186.952L271.807 185.025L271.565 185.322L266.719 191.281L266.946 192.541L272.982 225.859L271.198 239.368L271.197 239.367Z" fill="#2F2E41"/>
<path d="M272.981 225.858L271.197 239.368L279.225 253.278L279.953 254.58L291.007 274.349L296.468 271.302C296.468 271.302 289.363 255.234 284.912 240.619C284.419 239.012 283.961 237.421 283.55 235.873C282.34 231.339 284.321 223.064 283.546 220.784C280.927 213.087 272.394 197.69 268.432 190.714L266.945 192.54L272.981 225.858Z" fill="#2F2E41"/>
<path d="M285.998 152.373L278.072 155.362L257.325 215.071L269.851 216.997L275.723 182.328L285.998 152.373Z" fill="#2F2E41"/>
<path d="M305.82 216.824C306.022 218.824 307.234 220.344 308.528 220.217C309.822 220.091 310.707 218.367 310.505 216.365C310.436 215.564 310.172 214.792 309.737 214.112L308.774 205.645L304.746 206.174L306.123 214.465C305.832 215.216 305.728 216.025 305.82 216.824Z" fill="#FFB6B6"/>
<path d="M301.165 154.977C301.165 154.977 306.253 153.821 307.819 156.518C309.385 159.215 310.168 211.604 310.168 211.604L304.784 211.99L301.948 186.181L301.165 154.978L301.165 154.977Z" fill="#2F2E41"/>
<path d="M294.671 148.229C299.164 148.229 302.807 144.643 302.807 140.221C302.807 135.798 299.164 132.213 294.671 132.213C290.177 132.213 286.534 135.798 286.534 140.221C286.534 144.643 290.177 148.229 294.671 148.229Z" fill="#FFB6B6"/>
<path d="M297.937 152.63H301.955C302.159 152.63 302.333 152.475 302.343 152.274L302.344 152.252C302.366 151.834 302.962 151.763 303.101 152.159C303.156 152.319 303.22 152.476 303.291 152.63H303.686V140.285C303.686 138.167 301.942 136.451 299.79 136.451C297.953 136.451 296.366 137.714 295.981 139.481C295.981 139.481 293.25 142.778 294.859 144.631C296.469 146.484 294.127 147.993 294.127 147.993C293.608 150.379 295.456 152.63 297.937 152.63Z" fill="#2F2E41"/>
<path d="M164.703 167.01C165.605 166.438 165.795 165.213 165.164 164.359L162.21 160.358C161.519 159.422 160.189 159.214 159.239 159.893C159.155 159.953 159.075 160.02 159.001 160.091C153.997 162.724 151.304 166.568 154.299 171.112C154.299 171.871 154.355 172.628 154.467 173.379C154.515 173.705 154.627 174.024 154.816 174.295C155.377 175.102 156.366 175.399 157.237 175.119L162.069 173.574C163.096 173.246 163.652 172.143 163.273 171.148C162.783 169.863 162.984 168.101 164.703 167.01Z" fill="#F2F2F2"/>
<path d="M176.173 178.813C174.783 178.678 173.596 179.805 173.596 181.18V185.283C173.596 185.389 173.604 185.495 173.62 185.6C173.799 186.743 174.886 187.527 176.047 187.352C182.82 188.173 187.448 185.275 187.726 178.916C187.771 178.827 187.808 178.734 187.84 178.64C188.2 177.541 187.588 176.362 186.471 176.007L182.425 174.713C181.029 174.267 179.579 175.159 179.334 176.583C179.114 177.87 178.251 179.015 176.173 178.813Z" fill="#E6E6E6"/>
<path d="M151.158 182.824C152.562 191.027 159.876 194.139 167.504 194.631C167.654 194.654 167.805 194.665 167.956 194.665C169.601 194.666 170.935 193.354 170.936 191.735V184.875C170.936 182.957 169.338 181.462 167.389 181.443C165.504 181.424 164.275 180.546 163.771 178.935C163.194 177.094 161.139 176.123 159.277 176.719L152.914 178.753C152.09 179.017 151.423 179.62 151.087 180.406C150.752 181.184 150.778 182.066 151.158 182.824Z" fill="#3F3D56"/>
<path d="M190.356 154.459C189.182 153.327 187.298 153.346 186.148 154.502C186.045 154.605 185.951 154.715 185.865 154.831L180.211 162.489C179.488 163.469 179.902 164.833 181.031 165.311C183.678 166.431 183.4 168.945 182.538 170.483C182.116 171.237 182.464 172.181 183.296 172.447L192.823 175.493C194.391 175.991 196.072 175.145 196.578 173.602C196.629 173.447 196.666 173.288 196.69 173.126C196.854 172.053 196.936 170.969 196.936 169.883C198.548 163.969 196.318 158.394 190.356 154.459Z" fill="#CA0000"/>
<path d="M173.996 163.339C175.051 163.923 176.383 163.641 177.095 162.676L178.989 160.111C179.357 159.613 179.485 158.982 179.338 158.384C179.197 157.797 178.802 157.301 178.256 157.026C173.799 153.063 168.524 152.819 164.051 157.005C163.488 157.285 163.079 157.793 162.931 158.395C162.785 158.989 162.912 159.616 163.277 160.11L165.491 163.108C166.251 164.138 167.723 164.407 168.771 163.661C170.293 162.576 172.504 162.512 173.996 163.339Z" fill="#E6E6E6"/>
<path d="M323.938 290.391H22.4094V290.978H323.938V290.391Z" fill="#E6E6E6"/>
<path d="M149.042 215.017C149.213 214.309 150.011 214.076 150.664 214.103C151.077 214.13 151.486 214.194 151.887 214.293C152.306 214.385 152.722 214.495 153.135 214.611C153.894 214.823 154.644 215.081 155.414 215.247C156.061 215.421 156.742 215.431 157.393 215.275C158.019 215.106 158.513 214.63 158.697 214.017C158.884 213.431 158.614 212.797 158.059 212.517C157.545 212.239 156.898 212.423 156.615 212.929C156.611 212.936 156.607 212.944 156.603 212.951C156.365 213.575 156.551 214.279 157.069 214.709C157.335 214.954 157.626 215.172 157.937 215.357C158.253 215.569 158.605 215.724 158.976 215.815C159.607 215.98 160.274 215.724 160.625 215.182C160.695 215.052 160.737 214.91 160.748 214.763C160.767 214.564 160.451 214.565 160.432 214.763C160.379 215.334 159.7 215.6 159.192 215.538C158.849 215.482 158.522 215.357 158.231 215.171C157.95 215.01 157.684 214.825 157.435 214.618C157.004 214.251 156.601 213.648 156.89 213.076C157.115 212.708 157.6 212.59 157.974 212.811C158.024 212.841 158.07 212.876 158.112 212.915C158.565 213.279 158.484 213.939 158.186 214.372C157.828 214.823 157.275 215.082 156.693 215.072C156.08 215.073 155.47 214.979 154.886 214.793C154.158 214.59 153.437 214.362 152.706 214.17C152.291 214.062 151.872 213.964 151.45 213.887C151.05 213.801 150.639 213.773 150.231 213.804C149.542 213.836 148.946 214.287 148.737 214.933C148.691 215.129 148.996 215.212 149.042 215.017Z" fill="#3F3D56"/>
<path d="M161.556 206.91C161.651 206.91 161.729 207.179 161.729 207.511V208.712C161.729 209.044 161.651 209.313 161.556 209.313H147.926C147.831 209.313 147.754 209.044 147.754 208.712V207.511C147.754 207.179 147.831 206.91 147.926 206.91H161.556Z" fill="#E6E6E6"/>
<path d="M198.003 206.91C198.098 206.91 198.176 207.179 198.176 207.511V208.712C198.176 209.044 198.098 209.313 198.003 209.313H184.373C184.278 209.313 184.201 209.044 184.201 208.712V207.511C184.201 207.179 184.278 206.91 184.373 206.91H198.003Z" fill="#E6E6E6"/>
<path d="M191.934 213.678L189.229 214.558L187.876 214.998C187.461 215.172 187.011 215.254 186.56 215.236C186.226 215.214 185.933 215.01 185.802 214.708C185.744 214.405 185.877 214.097 186.138 213.927C186.783 213.444 187.6 213.936 188.058 214.436C188.617 215.048 188.934 215.839 189.458 216.48C189.926 217.055 190.518 217.52 191.192 217.84C192.538 218.497 194.145 218.362 195.358 217.489C196.785 216.407 196.93 214.53 196.938 212.893C196.932 212.736 196.798 212.613 196.638 212.618C196.486 212.623 196.364 212.743 196.359 212.893C196.352 214.377 196.267 216.195 194.892 217.124C193.575 218.013 191.845 217.777 190.632 216.829C190.007 216.282 189.487 215.628 189.097 214.9C188.664 214.203 188.127 213.529 187.312 213.259C186.591 213.001 185.786 213.278 185.385 213.921C185.04 214.493 185.231 215.232 185.813 215.572C185.858 215.598 185.904 215.622 185.952 215.642C186.897 216.085 187.978 215.566 188.888 215.27L192.089 214.229C192.441 214.115 192.29 213.564 191.935 213.68L191.934 213.678Z" fill="#CA0000"/>
<path d="M71.7105 279.943C71.6752 279.913 71.648 279.897 71.6296 279.897C71.1882 279.901 70.795 280.129 70.5782 280.506L65.8257 289.192C65.717 289.381 65.6636 289.588 65.6655 289.794C65.6673 290 65.7243 290.206 65.8363 290.393C66.0604 290.768 76.5562 290.902 76.5562 290.902C76.9976 290.898 78.2091 285.555 71.7105 279.943Z" fill="#E6E6E6"/>
<path d="M53.546 288.798L57.1532 288.767L58.7478 275.059L53.4238 275.105L53.546 288.798Z" fill="#FFB6B6"/>
<path d="M65.9042 288.611C66.0182 288.796 66.0827 289.397 66.0847 289.613C66.0906 290.279 65.5472 290.823 64.871 290.829L53.6998 290.924C53.2385 290.928 52.8613 290.564 52.8573 290.11L52.8532 289.652C52.8532 289.652 52.2884 288.281 53.4111 286.576C53.4111 286.576 54.837 287.891 56.9315 285.794L57.5448 284.677L62.0841 287.885L64.5868 288.166C65.1344 288.228 65.6187 288.147 65.9042 288.611Z" fill="#2F2E41"/>
<path d="M67.2694 276.963L70.6969 278.071L76.6684 265.588L71.6099 263.953L67.2694 276.963Z" fill="#FFB6B6"/>
<path d="M79.0374 280.682C79.0851 280.893 78.9509 281.482 78.8823 281.688C78.6713 282.32 77.9795 282.664 77.3371 282.457L66.723 279.026C66.2847 278.885 66.0461 278.42 66.19 277.989L66.3351 277.554C66.3351 277.554 66.2462 276.078 67.8648 274.816C67.8648 274.816 68.7874 276.511 71.4543 275.185L72.3986 274.32L75.6548 278.79L77.9342 279.845C78.4329 280.076 78.9179 280.152 79.0374 280.682Z" fill="#2F2E41"/>
<path d="M72.1089 197.484L79.3159 220.225L87.765 240.663L74.9583 270.072L67.8325 267.34L74.2101 241.886L63.3082 222.881L58.1561 279.933L51.8886 279.195L43.7395 210.854L45.0176 195.993L72.1089 197.484Z" fill="#2F2E41"/>
<path d="M64.7351 145.705L56.9481 143.855L54.8 148.876C54.8 148.876 44.2774 150.625 43.7395 158.553C43.7395 158.553 41.6424 168.959 42.9848 171.866C44.3273 174.773 47.6369 185.052 47.6369 185.052C47.6369 185.052 42.3967 197.859 43.7395 198.651C45.0824 199.442 73.8557 202.328 73.8557 200.743C73.8557 199.157 74.1842 180.321 74.1842 180.321L73.0575 151.781L65.8094 149.14L64.7351 145.705Z" fill="#E6E6E6"/>
<path d="M63.4172 144.428C67.751 144.428 71.2643 140.971 71.2643 136.706C71.2643 132.441 67.751 128.983 63.4172 128.983C59.0834 128.983 55.5702 132.441 55.5702 136.706C55.5702 140.971 59.0834 144.428 63.4172 144.428Z" fill="#FFB6B6"/>
<path d="M58.2212 137.853C58.8475 138.191 58.254 139.801 58.6454 139.941C59.0978 140.101 60.7465 138.253 60.7662 136.184C60.7722 135.557 60.6256 135.257 60.7662 134.514C60.9501 133.543 61.5152 132.397 62.0387 132.427C62.349 132.445 62.6522 132.877 62.675 133.262C62.7068 133.802 62.1739 134.015 62.2508 134.305C62.3972 134.859 64.6355 135.241 65.432 134.305C66.0565 133.572 65.5769 132.284 65.8562 132.218C66.062 132.17 66.2833 132.878 67.1287 133.679C67.4472 133.981 67.9209 134.43 68.1891 134.305C68.5767 134.126 68.2946 132.861 68.4012 132.844C68.4894 132.83 68.5451 133.719 69.0374 134.514C69.6699 135.535 70.9741 136.322 71.5824 135.975C71.9551 135.763 71.9843 135.172 72.0065 134.723C72.0534 133.777 73.449 131.602 73.0874 130.59C72.3514 128.531 71.092 129.983 70.522 129.296C69.7503 128.366 69.0583 128.867 67.7649 127.835C66.5014 126.828 66.49 125.815 65.6441 125.748C64.8823 125.688 64.6117 126.488 63.7354 126.374C62.993 126.278 62.8313 125.658 62.2508 125.748C61.7193 125.831 61.6845 126.378 60.9783 126.583C60.5275 126.714 60.4283 126.525 59.9179 126.583C58.8558 126.705 58.1427 127.657 58.0092 127.835C57.4942 128.523 57.6942 128.813 57.1608 129.505C56.7009 130.102 55.681 129.849 55.2977 130.147C54.0452 131.121 53.5076 132.918 53.4974 134.965C53.4903 136.397 53.6803 137.12 54.1042 138.927C54.4261 140.299 55.9156 142.072 56.7367 142.862C56.9571 143.075 57.5749 143.67 58.0092 143.489C58.4206 143.317 58.4328 142.547 58.4333 142.445C58.435 142.095 58.3402 141.662 57.585 140.567C56.7917 139.416 56.4766 139.284 56.5246 138.897C56.6093 138.212 57.722 137.585 58.2212 137.853Z" fill="#2F2E41"/>
<path d="M36.0308 214.879C35.7575 217.125 36.7131 219.084 38.1651 219.255C39.6171 219.426 41.0158 217.744 41.289 215.499C41.4087 214.516 41.2928 213.588 41.0029 212.841L42.0395 203.311L37.4852 202.928L36.9466 212.363C36.4857 213.021 36.1504 213.896 36.0308 214.879Z" fill="#FFB6B6"/>
<path d="M49.1447 151.596C49.1447 151.596 46.7851 151.628 45.2217 154.631C44.3909 156.226 38.9908 184.821 38.9908 184.821L37.4738 193.864L38.2534 195.36C37.014 197.226 36.6728 199.534 37.3207 201.67L35.8385 210.506L42.8084 210.542L48.2476 187.396L52.8211 173.971L49.1447 151.596Z" fill="#E6E6E6"/>
<path d="M84.7533 214.53C85.0266 216.776 84.071 218.735 82.619 218.906C81.1669 219.077 79.7683 217.396 79.495 215.15C79.3754 214.167 79.4913 213.239 79.7812 212.492L78.7445 202.963L83.2989 202.579L83.8374 212.014C84.2984 212.673 84.6337 213.547 84.7533 214.53Z" fill="#FFB6B6"/>
<path d="M71.6394 151.248C71.6394 151.248 73.999 151.28 75.5623 154.282C76.3931 155.877 81.7932 184.472 81.7932 184.472L83.3103 193.516L82.5306 195.012C83.77 196.877 84.1112 199.185 83.4633 201.321L84.9455 210.157L77.9757 210.194L72.5364 187.047L67.9629 173.623L71.6394 151.248Z" fill="#E6E6E6"/>
<path d="M284.89 139.032C285.179 139.498 286.715 137.792 289.073 137.604C289.674 137.555 291.027 139.817 292.58 139.85C293.609 139.87 294.242 139.862 295.509 139.85C297.007 139.833 297.417 139.801 297.706 139.441C298.267 138.741 297.805 137.498 298.073 137.396C298.296 137.31 298.874 138.079 299.171 139.032C299.794 141.032 297.56 143.818 297.34 146.394C297.106 149.172 299.413 143.85 299.171 146.394C298.9 149.258 297.93 149.041 297.941 150.076C297.944 150.231 297.985 150.366 298.073 150.485C298.149 150.591 298.226 150.632 299.537 150.894C301.105 151.209 301.892 151.364 302.101 151.303C302.639 151.148 303.184 150.284 303.565 149.667C304.195 148.656 303.748 149.675 303.565 148.44C303.39 147.245 302.84 147.09 302.833 145.985C302.826 144.595 303.693 144.173 304.298 142.713C305.415 140.013 304.323 136.888 303.932 135.759C303.743 135.218 303.402 134.533 302.804 133.401C302.324 132.492 301.686 131.691 300.909 131.091C299.744 130.192 298.391 129.576 296.928 129.332C296.126 129.198 295.309 129.269 294.521 129.48L292.48 130.028C291.623 130.258 290.814 130.675 290.101 131.256C289.436 131.258 288.86 131.738 288.632 132.435C288.608 132.508 288.587 132.551 288.569 132.545C284.89 131.26 284.892 135.065 284.933 137.441C284.937 137.685 284.929 137.9 284.901 138.075V138.087C284.828 138.557 284.809 138.901 284.89 139.032Z" fill="#2F2E41"/>
<path d="M237.069 160.043H198.341V160.741H237.069V160.043Z" fill="#3F3D56"/>
<path d="M244.864 164.915C242.129 164.915 239.904 162.725 239.904 160.033C239.904 157.341 242.129 155.152 244.864 155.152C247.599 155.152 249.824 157.341 249.824 160.033C249.824 162.725 247.599 164.915 244.864 164.915ZM244.864 155.849C242.52 155.849 240.612 157.726 240.612 160.033C240.612 162.34 242.52 164.217 244.864 164.217C247.208 164.217 249.116 162.34 249.116 160.033C249.116 157.726 247.208 155.849 244.864 155.849Z" fill="#3F3D56"/>
<path d="M244.864 162.474C246.234 162.474 247.344 161.381 247.344 160.033C247.344 158.685 246.234 157.593 244.864 157.593C243.494 157.593 242.384 158.685 242.384 160.033C242.384 161.381 243.494 162.474 244.864 162.474Z" fill="#CA0000"/>
<path d="M148.601 185.845H109.872V186.543H148.601V185.845Z" fill="#3F3D56"/>
<path d="M97.1174 185.835C97.1174 183.143 99.3425 180.954 102.078 180.954C104.813 180.954 107.038 183.143 107.038 185.835C107.038 188.527 104.813 190.717 102.078 190.717C99.3425 190.717 97.1174 188.527 97.1174 185.835ZM97.826 185.835C97.826 188.142 99.7333 190.019 102.078 190.019C104.422 190.019 106.329 188.142 106.329 185.835C106.329 183.528 104.422 181.651 102.078 181.651C99.7333 181.651 97.826 183.528 97.826 185.835Z" fill="#3F3D56"/>
<path d="M102.078 188.276C103.447 188.276 104.558 187.183 104.558 185.835C104.558 184.487 103.447 183.395 102.078 183.395C100.708 183.395 99.5975 184.487 99.5975 185.835C99.5975 187.183 100.708 188.276 102.078 188.276Z" fill="#CA0000"/>
</g>
</g>
<defs>
<filter id="filter0_d_1_232" x="0.428162" y="0" width="346.49" height="406" filterUnits="userSpaceOnUse" color-interpolation-filters="sRGB">
<feFlood flood-opacity="0" result="BackgroundImageFix"/>
<feColorMatrix in="SourceAlpha" type="matrix" values="0 0 0 0 0 0 0 0 0 0 0 0 0 0 0 0 0 0 127 0" result="hardAlpha"/>
<feOffset dy="4"/>
<feGaussianBlur stdDeviation="5"/>
<feComposite in2="hardAlpha" operator="out"/>
<feColorMatrix type="matrix" values="0 0 0 0 0 0 0 0 0 0 0 0 0 0 0 0 0 0 0.16 0"/>
<feBlend mode="normal" in2="BackgroundImageFix" result="effect1_dropShadow_1_232"/>
<feBlend mode="normal" in="SourceGraphic" in2="effect1_dropShadow_1_232" result="shape"/>
</filter>
<clipPath id="clip0_1_232">
<rect width="301.529" height="184" fill="white" transform="translate(22.4094 107)"/>
</clipPath>
</defs>
</svg>
