<svg width="348" height="406" viewBox="0 0 348 406" fill="none" xmlns="http://www.w3.org/2000/svg">
<g filter="url(#filter0_d_1_292)">
<rect x="10.7689" y="6" width="326.49" height="386" rx="26" fill="white"/>
</g>
<g clip-path="url(#clip0_1_292)">
<g opacity="0.1">
<path d="M245.178 284.404C248.407 284.404 251.024 280.972 251.024 276.738C251.024 272.504 248.407 269.072 245.178 269.072C241.949 269.072 239.331 272.504 239.331 276.738C239.331 280.972 241.949 284.404 245.178 284.404Z" fill="#3F3D56"/>
<path d="M249.804 243.942C250.623 242.518 251.048 240.9 251.035 239.257C251.035 235.014 248.417 231.591 245.188 231.591C241.959 231.591 239.344 235.022 239.344 239.257C239.328 240.899 239.749 242.517 240.564 243.942C239.764 245.373 239.344 246.986 239.344 248.626C239.344 250.267 239.764 251.879 240.564 253.311C239.764 254.742 239.344 256.355 239.344 257.996C239.344 259.637 239.764 261.25 240.564 262.682C239.749 264.107 239.328 265.724 239.344 267.367C239.344 271.61 241.962 275.033 245.188 275.033C248.415 275.033 251.035 271.602 251.035 267.367C251.052 265.724 250.63 264.107 249.815 262.682C250.615 261.25 251.035 259.637 251.035 257.996C251.035 256.355 250.615 254.742 249.815 253.311C250.615 251.879 251.035 250.267 251.035 248.626C251.035 246.986 250.615 245.373 249.815 243.942H249.804Z" fill="#3F3D56"/>
<path d="M245.178 237.554C248.407 237.554 251.024 234.122 251.024 229.888C251.024 225.654 248.407 222.222 245.178 222.222C241.949 222.222 239.331 225.654 239.331 229.888C239.331 234.122 241.949 237.554 245.178 237.554Z" fill="#3F3D56"/>
<path d="M245.178 228.183C248.407 228.183 251.024 224.751 251.024 220.517C251.024 216.283 248.407 212.851 245.178 212.851C241.949 212.851 239.331 216.283 239.331 220.517C239.331 224.751 241.949 228.183 245.178 228.183Z" fill="#3F3D56"/>
<path d="M267.061 156.394C267.859 155.375 268.586 154.302 269.237 153.183L253.886 150.656L270.499 150.781C272.092 147.307 272.96 143.544 273.051 139.722C273.142 135.9 272.454 132.1 271.029 128.554L248.738 140.131L269.298 125.001C267.371 121.67 264.781 118.771 261.687 116.486C258.594 114.201 255.065 112.579 251.319 111.719C247.572 110.86 243.69 110.782 239.913 111.491C236.135 112.2 232.544 113.681 229.362 115.84C226.181 118 223.477 120.792 221.419 124.044C219.361 127.295 217.993 130.937 217.401 134.741C216.808 138.545 217.003 142.431 217.975 146.156C218.946 149.881 220.672 153.366 223.045 156.394C221.801 157.98 220.731 159.694 219.853 161.509L239.792 171.888L218.533 164.728C217.037 169.148 216.665 173.871 217.45 178.471C218.236 183.07 220.155 187.401 223.032 191.07C219.783 195.208 217.763 200.178 217.2 205.412C216.638 210.647 217.558 215.934 219.854 220.669C222.149 225.404 225.729 229.397 230.183 232.19C234.637 234.984 239.785 236.465 245.04 236.465C250.295 236.465 255.443 234.984 259.897 232.19C264.351 229.397 267.931 225.404 270.227 220.669C272.522 215.934 273.442 210.647 272.88 205.412C272.318 200.178 270.297 195.208 267.048 191.07C270.93 186.126 273.041 180.018 273.041 173.727C273.041 167.436 270.93 161.328 267.048 156.384L267.061 156.394Z" fill="#CA0000"/>
<path opacity="0.1" d="M217.053 173.739C217.043 180.031 219.155 186.141 223.045 191.081C219.797 195.219 217.776 200.189 217.214 205.423C216.652 210.657 217.571 215.944 219.867 220.68C222.163 225.415 225.742 229.408 230.196 232.201C234.65 234.994 239.799 236.476 245.053 236.476C250.308 236.476 255.457 234.994 259.911 232.201C264.365 229.408 267.944 225.415 270.24 220.68C272.536 215.944 273.455 210.657 272.893 205.423C272.331 200.189 270.31 195.219 267.061 191.081C270.814 186.308 217.053 170.589 217.053 173.739Z" fill="black"/>
</g>
<g opacity="0.1">
<path d="M81.1937 276.205C83.1584 276.205 84.751 274.115 84.751 271.538C84.751 268.96 83.1584 266.871 81.1937 266.871C79.2291 266.871 77.6365 268.96 77.6365 271.538C77.6365 274.115 79.2291 276.205 81.1937 276.205Z" fill="#3F3D56"/>
<path d="M84.0232 251.573C84.5198 250.705 84.7765 249.721 84.7669 248.72C84.7669 246.143 83.1789 244.053 81.207 244.053C79.2352 244.053 77.6497 246.143 77.6497 248.72C77.6394 249.72 77.8952 250.705 78.3908 251.573C77.905 252.445 77.6499 253.427 77.6499 254.425C77.6499 255.424 77.905 256.405 78.3908 257.277C77.905 258.149 77.6499 259.131 77.6499 260.129C77.6499 261.127 77.905 262.109 78.3908 262.981C77.8948 263.848 77.639 264.832 77.6497 265.831C77.6497 268.412 79.2378 270.501 81.207 270.501C83.1762 270.501 84.7669 268.412 84.7669 265.831C84.7769 264.832 84.5201 263.848 84.0232 262.981C84.5105 262.11 84.7664 261.128 84.7664 260.129C84.7664 259.13 84.5105 258.148 84.0232 257.277C84.5105 256.406 84.7664 255.424 84.7664 254.425C84.7664 253.427 84.5105 252.445 84.0232 251.573Z" fill="#3F3D56"/>
<path d="M81.1937 247.683C83.1584 247.683 84.751 245.594 84.751 243.016C84.751 240.439 83.1584 238.349 81.1937 238.349C79.2291 238.349 77.6365 240.439 77.6365 243.016C77.6365 245.594 79.2291 247.683 81.1937 247.683Z" fill="#3F3D56"/>
<path d="M81.1937 241.98C83.1584 241.98 84.751 239.89 84.751 237.313C84.751 234.735 83.1584 232.646 81.1937 232.646C79.2291 232.646 77.6365 234.735 77.6365 237.313C77.6365 239.89 79.2291 241.98 81.1937 241.98Z" fill="#3F3D56"/>
<path d="M67.8778 198.275C67.392 197.655 66.9498 197.002 66.5544 196.32L75.9055 194.782L65.7921 194.859C64.8239 192.745 64.2957 190.456 64.2398 188.131C64.1838 185.806 64.6012 183.494 65.4666 181.336L79.0261 188.392L66.5147 179.164C67.6882 177.137 69.2654 175.374 71.1482 173.985C73.0309 172.595 75.179 171.608 77.4588 171.086C79.7386 170.563 82.1012 170.517 84.3998 170.948C86.6984 171.38 88.8837 172.281 90.8198 173.595C92.7558 174.91 94.4013 176.609 95.6537 178.588C96.9061 180.566 97.7387 182.782 98.0997 185.097C98.4608 187.412 98.3424 189.776 97.7521 192.043C97.1618 194.31 96.1122 196.431 94.6685 198.275C95.4258 199.238 96.0772 200.281 96.6113 201.385L84.4731 207.707L97.4159 203.355C98.3249 206.047 98.5497 208.922 98.07 211.723C97.5903 214.523 96.4212 217.159 94.6685 219.393C96.646 221.912 97.876 224.937 98.2181 228.123C98.5601 231.31 98.0003 234.528 96.6027 237.411C95.2051 240.293 93.0261 242.724 90.3148 244.424C87.6035 246.125 84.4693 247.026 81.2705 247.026C78.0718 247.026 74.9376 246.125 72.2263 244.424C69.515 242.724 67.3359 240.293 65.9383 237.411C64.5407 234.528 63.9809 231.31 64.323 228.123C64.665 224.937 65.8951 221.912 67.8725 219.393C65.5096 216.382 64.225 212.663 64.225 208.834C64.225 205.004 65.5096 201.285 67.8725 198.275H67.8778Z" fill="#CA0000"/>
<path opacity="0.1" d="M98.3158 208.834C98.3214 212.664 97.0363 216.385 94.6685 219.393C96.6459 221.912 97.876 224.937 98.218 228.124C98.5601 231.31 98.0003 234.528 96.6027 237.411C95.2051 240.293 93.0261 242.724 90.3147 244.424C87.6034 246.125 84.4692 247.026 81.2705 247.026C78.0718 247.026 74.9376 246.125 72.2263 244.424C69.5149 242.724 67.3359 240.293 65.9383 237.411C64.5407 234.528 63.9809 231.31 64.323 228.124C64.665 224.937 65.895 221.912 67.8725 219.393C65.5883 216.5 98.3158 206.917 98.3158 208.834Z" fill="black"/>
</g>
<g opacity="0.1">
<path d="M161.391 280.267C164.021 280.267 166.153 277.472 166.153 274.023C166.153 270.574 164.021 267.778 161.391 267.778C158.761 267.778 156.63 270.574 156.63 274.023C156.63 277.472 158.761 280.267 161.391 280.267Z" fill="#3F3D56"/>
<path d="M165.16 247.304C165.824 246.142 166.166 244.824 166.153 243.486C166.153 240.039 164.035 237.241 161.389 237.241C158.742 237.241 156.624 240.039 156.624 243.486C156.61 244.825 156.954 246.143 157.62 247.304C156.967 248.47 156.625 249.785 156.625 251.121C156.625 252.458 156.967 253.773 157.62 254.939C156.967 256.104 156.625 257.418 156.625 258.754C156.625 260.091 156.967 261.405 157.62 262.57C156.954 263.731 156.61 265.05 156.624 266.388C156.624 269.836 158.758 272.633 161.389 272.633C164.019 272.633 166.153 269.836 166.153 266.388C166.166 265.05 165.824 263.732 165.16 262.57C165.811 261.404 166.153 260.09 166.153 258.754C166.153 257.418 165.811 256.105 165.16 254.939C165.811 253.772 166.153 252.458 166.153 251.121C166.153 249.785 165.811 248.471 165.16 247.304Z" fill="#3F3D56"/>
<path d="M161.391 242.099C164.021 242.099 166.153 239.303 166.153 235.854C166.153 232.405 164.021 229.61 161.391 229.61C158.761 229.61 156.63 232.405 156.63 235.854C156.63 239.303 158.761 242.099 161.391 242.099Z" fill="#3F3D56"/>
<path d="M161.391 234.465C164.021 234.465 166.153 231.669 166.153 228.22C166.153 224.771 164.021 221.975 161.391 221.975C158.761 221.975 156.63 224.771 156.63 228.22C156.63 231.669 158.761 234.465 161.391 234.465Z" fill="#3F3D56"/>
<path d="M143.576 175.982C142.925 175.153 142.332 174.279 141.802 173.368L154.314 171.31L140.783 171.411C139.485 168.581 138.777 165.515 138.702 162.402C138.627 159.288 139.186 156.192 140.347 153.302L158.504 162.737L141.757 150.407C143.322 147.683 145.43 145.311 147.951 143.441C150.472 141.57 153.35 140.24 156.407 139.534C159.464 138.829 162.633 138.762 165.717 139.339C168.8 139.916 171.732 141.123 174.329 142.886C176.925 144.65 179.131 146.93 180.808 149.586C182.486 152.242 183.598 155.216 184.076 158.322C184.554 161.428 184.388 164.599 183.587 167.638C182.787 170.676 181.369 173.517 179.424 175.982C180.437 177.274 181.308 178.672 182.023 180.151L165.782 188.604L183.1 182.77C184.317 186.372 184.618 190.22 183.976 193.967C183.334 197.714 181.769 201.242 179.424 204.23C182.07 207.601 183.716 211.65 184.174 215.914C184.631 220.178 183.882 224.485 182.012 228.342C180.142 232.2 177.226 235.452 173.597 237.727C169.969 240.003 165.775 241.21 161.494 241.21C157.214 241.21 153.02 240.003 149.391 237.727C145.763 235.452 142.847 232.2 140.977 228.342C139.107 224.485 138.358 220.178 138.815 215.914C139.273 211.65 140.919 207.601 143.565 204.23C140.403 200.202 138.685 195.226 138.685 190.101C138.685 184.976 140.403 180 143.565 175.971L143.576 175.982Z" fill="#CA0000"/>
<path opacity="0.1" d="M184.304 190.113C184.312 195.238 182.593 200.217 179.424 204.241C182.07 207.612 183.716 211.661 184.174 215.924C184.631 220.188 183.882 224.495 182.012 228.353C180.142 232.21 177.226 235.462 173.597 237.738C169.969 240.013 165.775 241.22 161.494 241.22C157.214 241.22 153.02 240.013 149.391 237.738C145.763 235.462 142.847 232.21 140.977 228.353C139.107 224.495 138.358 220.188 138.815 215.924C139.273 211.661 140.919 207.612 143.565 204.241C140.508 200.354 184.304 187.546 184.304 190.113Z" fill="black"/>
</g>
<path d="M325.277 279.705C325.277 281.527 311.985 283.192 290.009 284.478C286.012 284.709 281.73 284.929 277.188 285.136C273.264 285.313 269.15 285.48 264.849 285.637C260.681 285.785 256.353 285.923 251.866 286.051C237.695 286.456 222.029 286.748 205.386 286.894C201.347 286.931 197.254 286.959 193.108 286.979C188.788 286.998 184.419 287.007 180.001 287.005C99.7662 287.005 34.7269 283.741 34.7269 279.713C34.7269 275.685 99.7662 272.421 180.001 272.421C214.544 272.421 246.266 273.028 271.198 274.036L273.924 274.147H273.94C305.347 275.481 325.277 277.488 325.277 279.705Z" fill="#3F3D56"/>
<path opacity="0.15" d="M325.277 279.705C325.277 281.527 311.985 283.192 290.009 284.478C286.012 284.709 281.73 284.929 277.188 285.136C273.264 285.313 269.15 285.48 264.849 285.637C260.681 285.785 256.353 285.923 251.866 286.051C237.695 286.456 222.029 286.748 205.386 286.894C201.347 286.931 197.254 286.959 193.108 286.979C188.788 286.998 184.419 287.007 180.001 287.005C99.7662 287.005 34.7269 283.741 34.7269 279.713C34.7269 275.685 99.7662 272.421 180.001 272.421C214.544 272.421 246.266 273.028 271.198 274.036L273.924 274.147H273.94C305.347 275.481 325.277 277.488 325.277 279.705Z" fill="black"/>
<path d="M313.301 278.422C313.301 279.944 300.008 281.339 278.032 282.399C274.038 282.593 269.753 282.776 265.214 282.948C261.288 283.097 257.175 283.236 252.875 283.367C248.707 283.491 244.379 283.607 239.892 283.715C225.719 284.054 210.052 284.298 193.409 284.42C189.374 284.45 185.281 284.473 181.131 284.489C176.811 284.505 172.443 284.513 168.027 284.513C87.7922 284.513 22.7502 281.784 22.7502 278.414C22.7502 275.044 87.7922 272.315 168.027 272.315C202.567 272.315 234.289 272.821 259.222 273.665L261.948 273.757H261.966C293.384 274.89 313.301 276.558 313.301 278.422Z" fill="#3F3D56"/>
<path d="M60.2709 223.02L56.6237 211.833L143.967 210.876L147.546 221.952L60.2709 223.02Z" fill="#3F3D56"/>
<path opacity="0.15" d="M60.2709 223.02L56.6237 211.833L143.967 210.876L147.546 221.952L60.2709 223.02Z" fill="black"/>
<path d="M54.448 223.02L50.8008 211.833L138.145 210.876L141.723 221.952L54.448 223.02Z" fill="#3F3D56"/>
<path d="M203.554 205.829C194.524 205.829 187.406 202.238 182.203 195.056C176.999 187.873 174.398 179.172 174.398 168.953C174.398 158.664 176.914 149.981 181.946 142.902C186.979 135.824 194.077 132.289 203.242 132.296C212.961 132.296 220.284 136.025 225.21 143.483C230.137 150.941 232.601 159.574 232.603 169.379C232.603 179.115 230.053 187.625 224.954 194.91C219.854 202.195 212.721 205.835 203.554 205.829ZM203.819 197.75C209.76 197.75 214.201 195.156 217.14 189.967C220.08 184.779 221.55 178.238 221.55 170.345C221.55 161.559 220.046 154.365 217.037 148.763C214.029 143.16 209.414 140.359 203.194 140.357C191.372 140.357 185.461 149.765 185.461 168.581C185.461 188.029 191.579 197.752 203.814 197.75H203.819ZM206.794 275.123H193.732L279.244 133.736H292.06L206.794 275.123ZM282.444 276.574C273.278 276.574 266.131 272.95 261.005 265.702C255.88 258.454 253.306 249.752 253.285 239.596C253.285 229.376 255.783 220.727 260.781 213.649C265.778 206.571 272.894 203.035 282.129 203.043C291.78 203.043 299.051 206.772 303.944 214.23C308.837 221.688 311.285 230.319 311.286 240.124C311.286 249.795 308.753 258.289 303.688 265.606C298.622 272.923 291.539 276.579 282.439 276.574H282.444ZM282.598 268.287C288.511 268.287 292.927 265.737 295.848 260.637C298.768 255.537 300.228 249.023 300.228 241.094C300.228 232.609 298.75 225.493 295.795 219.745C292.839 213.998 288.235 211.12 281.981 211.112C270.09 211.112 264.145 220.52 264.145 239.336C264.141 258.639 270.29 268.289 282.593 268.287H282.598Z" fill="#3F3D56"/>
<path d="M203.554 205.829C194.524 205.829 187.406 202.238 182.203 195.056C176.999 187.873 174.398 179.172 174.398 168.953C174.398 158.664 176.914 149.981 181.946 142.902C186.979 135.824 194.077 132.289 203.242 132.296C212.961 132.296 220.284 136.025 225.21 143.483C230.137 150.941 232.601 159.574 232.603 169.379C232.603 179.115 230.053 187.625 224.954 194.91C219.854 202.195 212.721 205.835 203.554 205.829ZM203.819 197.75C209.76 197.75 214.201 195.156 217.14 189.967C220.08 184.779 221.55 178.238 221.55 170.345C221.55 161.559 220.046 154.365 217.037 148.763C214.029 143.16 209.414 140.359 203.194 140.357C191.372 140.357 185.461 149.765 185.461 168.581C185.461 188.029 191.579 197.752 203.814 197.75H203.819ZM206.794 275.123H193.732L279.244 133.736H292.06L206.794 275.123ZM282.444 276.574C273.278 276.574 266.131 272.95 261.005 265.702C255.88 258.454 253.306 249.752 253.285 239.596C253.285 229.376 255.783 220.727 260.781 213.649C265.778 206.571 272.894 203.035 282.129 203.043C291.78 203.043 299.051 206.772 303.944 214.23C308.837 221.688 311.285 230.319 311.286 240.124C311.286 249.795 308.753 258.289 303.688 265.606C298.622 272.923 291.539 276.579 282.439 276.574H282.444ZM282.598 268.287C288.511 268.287 292.927 265.737 295.848 260.637C298.768 255.537 300.228 249.023 300.228 241.094C300.228 232.609 298.75 225.493 295.795 219.745C292.839 213.998 288.235 211.12 281.981 211.112C270.09 211.112 264.145 220.52 264.145 239.336C264.141 258.639 270.29 268.289 282.593 268.287H282.598Z" fill="#3F3D56"/>
<path opacity="0.15" d="M203.554 205.829C194.524 205.829 187.406 202.238 182.203 195.056C176.999 187.873 174.398 179.172 174.398 168.953C174.398 158.664 176.914 149.981 181.946 142.902C186.979 135.824 194.077 132.289 203.242 132.296C212.961 132.296 220.284 136.025 225.21 143.483C230.137 150.941 232.601 159.574 232.603 169.379C232.603 179.115 230.053 187.625 224.954 194.91C219.854 202.195 212.721 205.835 203.554 205.829ZM203.819 197.75C209.76 197.75 214.201 195.156 217.14 189.967C220.08 184.779 221.55 178.238 221.55 170.345C221.55 161.559 220.046 154.365 217.037 148.763C214.029 143.16 209.414 140.359 203.194 140.357C191.372 140.357 185.461 149.765 185.461 168.581C185.461 188.029 191.579 197.752 203.814 197.75H203.819ZM206.794 275.123H193.732L279.244 133.736H292.06L206.794 275.123ZM282.444 276.574C273.278 276.574 266.131 272.95 261.005 265.702C255.88 258.454 253.306 249.752 253.285 239.596C253.285 229.376 255.783 220.727 260.781 213.649C265.778 206.571 272.894 203.035 282.129 203.043C291.78 203.043 299.051 206.772 303.944 214.23C308.837 221.688 311.285 230.319 311.286 240.124C311.286 249.795 308.753 258.289 303.688 265.606C298.622 272.923 291.539 276.579 282.439 276.574H282.444ZM282.598 268.287C288.511 268.287 292.927 265.737 295.848 260.637C298.768 255.537 300.228 249.023 300.228 241.094C300.228 232.609 298.75 225.493 295.795 219.745C292.839 213.998 288.235 211.12 281.981 211.112C270.09 211.112 264.145 220.52 264.145 239.336C264.141 258.639 270.29 268.289 282.593 268.287H282.598Z" fill="black"/>
<path d="M195.349 205.829C186.319 205.829 179.201 202.238 173.998 195.056C168.794 187.873 166.193 179.172 166.193 168.953C166.193 158.664 168.709 149.981 173.741 142.902C178.774 135.824 185.872 132.289 195.037 132.296C204.756 132.296 212.079 136.025 217.005 143.483C221.932 150.941 224.396 159.574 224.398 169.379C224.398 179.115 221.848 187.625 216.749 194.91C211.649 202.195 204.516 205.835 195.349 205.829ZM195.614 197.75C201.555 197.75 205.996 195.156 208.935 189.967C211.875 184.779 213.345 178.238 213.345 170.345C213.345 161.559 211.841 154.365 208.832 148.763C205.824 143.16 201.209 140.359 194.989 140.357C183.167 140.357 177.256 149.765 177.256 168.581C177.256 188.029 183.374 197.752 195.609 197.75H195.614ZM198.589 275.123H185.527L271.039 133.736H283.855L198.589 275.123ZM274.239 276.574C265.073 276.574 257.926 272.95 252.8 265.702C247.675 258.454 245.101 249.752 245.08 239.596C245.08 229.376 247.578 220.727 252.576 213.649C257.573 206.571 264.689 203.035 273.924 203.043C283.575 203.043 290.846 206.772 295.739 214.23C300.632 221.688 303.08 230.319 303.081 240.124C303.081 249.795 300.548 258.289 295.482 265.606C290.417 272.923 283.334 276.579 274.234 276.574H274.239ZM274.393 268.287C280.306 268.287 284.722 265.737 287.643 260.637C290.563 255.537 292.023 249.023 292.023 241.094C292.023 232.609 290.545 225.493 287.59 219.745C284.634 213.998 280.028 211.12 273.771 211.112C261.88 211.112 255.934 220.52 255.934 239.336C255.934 258.639 262.085 268.289 274.388 268.287H274.393Z" fill="#3F3D56"/>
<path d="M223.924 278.671C225.015 276.645 223.776 274.163 222.352 272.355C220.928 270.546 219.192 268.669 219.229 266.365C219.282 263.058 222.786 261.104 225.581 259.348C227.66 258.047 229.577 256.504 231.293 254.75C232.011 254.075 232.605 253.278 233.048 252.396C233.627 251.102 233.609 249.63 233.577 248.214C233.455 243.49 233.222 238.774 232.878 234.064" stroke="#3F3D56" stroke-width="4" stroke-miterlimit="10"/>
<path d="M238.203 233.805C238.164 232.941 237.907 232.101 237.458 231.362C237.009 230.623 236.382 230.01 235.633 229.578L234.479 231.864L234.514 229.095C233.963 228.934 233.39 228.865 232.817 228.891C231.8 228.939 230.819 229.288 230 229.894C229.18 230.5 228.558 231.336 228.213 232.296C227.868 233.256 227.814 234.297 228.059 235.288C228.305 236.278 228.838 237.174 229.591 237.861C230.344 238.548 231.284 238.996 232.291 239.148C233.298 239.3 234.328 239.15 235.25 238.715C236.172 238.281 236.944 237.583 237.47 236.709C237.996 235.835 238.251 234.824 238.203 233.805Z" fill="#CA0000"/>
<path d="M229.019 268.738C228.479 269.79 227.594 270.624 226.512 271.1C225.431 271.576 224.219 271.665 223.081 271.352C221.942 271.039 220.945 270.343 220.257 269.381C219.569 268.419 219.232 267.25 219.303 266.069C219.374 264.888 219.848 263.767 220.645 262.895C221.443 262.022 222.516 261.451 223.684 261.276C224.852 261.102 226.044 261.336 227.061 261.938C228.078 262.54 228.857 263.474 229.268 264.583L226.049 267.205L229.596 266.378C229.595 267.199 229.397 268.009 229.019 268.738Z" fill="#CA0000"/>
<path d="M226.476 258.712C225.8 258.744 225.125 258.642 224.488 258.412C223.852 258.182 223.267 257.829 222.767 257.373C222.266 256.917 221.861 256.366 221.573 255.753C221.285 255.139 221.121 254.475 221.089 253.798C221.049 252.99 221.202 252.184 221.534 251.446C221.842 250.757 222.296 250.144 222.866 249.649C223.436 249.155 224.107 248.792 224.832 248.585L224.803 250.706L225.97 248.394C227.335 248.33 228.669 248.812 229.679 249.733C230.689 250.655 231.292 251.941 231.356 253.308C231.42 254.675 230.939 256.011 230.019 257.023C229.1 258.035 227.816 258.64 226.452 258.704L226.476 258.712Z" fill="#CA0000"/>
<path d="M238.979 250.378C238.295 250.423 237.609 250.332 236.961 250.108C236.313 249.885 235.716 249.534 235.205 249.077C234.694 248.62 234.279 248.065 233.985 247.446C233.69 246.826 233.522 246.153 233.49 245.468C233.458 244.782 233.563 244.097 233.798 243.452C234.034 242.807 234.395 242.216 234.861 241.713C235.328 241.21 235.889 240.805 236.514 240.522C237.138 240.239 237.812 240.084 238.497 240.065C239.46 240.018 240.416 240.245 241.255 240.72L240.345 243.218L242.219 241.418C243.224 242.336 243.825 243.617 243.889 244.979C243.912 245.456 243.868 245.935 243.756 246.4C243.5 247.493 242.895 248.473 242.033 249.191C241.171 249.909 240.099 250.325 238.979 250.378Z" fill="#CA0000"/>
<path opacity="0.1" d="M237.51 235.181C236.322 235.311 235.168 235.682 233.974 235.756C232.78 235.83 231.47 235.544 230.716 234.613C230.308 234.115 230.107 233.481 229.763 232.935C229.438 232.426 228.992 232.006 228.466 231.712C228.135 232.366 227.948 233.084 227.915 233.816C227.883 234.549 228.007 235.279 228.279 235.96C228.55 236.641 228.964 237.256 229.492 237.764C230.019 238.272 230.649 238.662 231.338 238.907C232.028 239.152 232.762 239.247 233.491 239.186C234.22 239.125 234.928 238.908 235.568 238.552C236.207 238.195 236.763 237.706 237.199 237.117C237.635 236.528 237.94 235.852 238.095 235.136C237.899 235.146 237.706 235.16 237.51 235.181Z" fill="black"/>
<path opacity="0.1" d="M238.979 250.378C238.091 250.418 237.208 250.228 236.416 249.826C235.623 249.424 234.947 248.824 234.454 248.083C233.962 247.343 233.668 246.487 233.602 245.599C233.537 244.712 233.701 243.822 234.08 243.017C234.488 243.294 234.839 243.647 235.115 244.056C235.483 244.61 235.705 245.252 236.136 245.761C236.93 246.708 238.309 247.015 239.551 246.96C240.792 246.904 241.994 246.549 243.232 246.429C243.404 246.413 243.579 246.403 243.762 246.397C243.506 247.492 242.9 248.473 242.037 249.192C241.174 249.91 240.1 250.326 238.979 250.378Z" fill="black"/>
<path opacity="0.1" d="M226.476 258.712C225.8 258.744 225.125 258.642 224.488 258.412C223.852 258.182 223.267 257.829 222.767 257.373C222.266 256.917 221.861 256.366 221.573 255.753C221.285 255.139 221.121 254.475 221.089 253.798C221.049 252.99 221.202 252.184 221.534 251.446C221.959 251.73 222.327 252.089 222.622 252.507C223.022 253.072 223.273 253.724 223.741 254.246C224.61 255.214 226.071 255.556 227.386 255.525C228.701 255.493 229.89 255.185 231.158 255.087C230.843 256.1 230.225 256.991 229.388 257.64C228.55 258.288 227.533 258.663 226.476 258.712Z" fill="black"/>
<path opacity="0.1" d="M229.019 268.738C228.42 269.918 227.391 270.822 226.144 271.263C224.898 271.704 223.531 271.649 222.324 271.108C221.118 270.567 220.166 269.582 219.664 268.357C219.162 267.132 219.149 265.761 219.628 264.527C220.052 264.807 220.433 265.147 220.759 265.537C221.248 266.137 221.571 266.815 222.137 267.372C223.196 268.406 224.89 268.833 226.404 268.873C227.278 268.88 228.151 268.835 229.019 268.738Z" fill="black"/>
<path d="M303.592 278.406C304.683 276.38 303.444 273.898 302.02 272.09C300.596 270.281 298.86 268.404 298.897 266.099C298.95 262.793 302.454 260.839 305.249 259.083C307.328 257.782 309.245 256.239 310.961 254.485C311.679 253.81 312.273 253.012 312.716 252.13C313.295 250.836 313.277 249.365 313.245 247.949C313.123 243.225 312.89 238.509 312.546 233.799" stroke="#3F3D56" stroke-width="4" stroke-miterlimit="10"/>
<path d="M317.872 233.539C317.832 232.675 317.575 231.835 317.126 231.097C316.677 230.358 316.05 229.744 315.302 229.313L314.148 231.598L314.182 228.83C313.631 228.669 313.058 228.6 312.485 228.626C311.468 228.674 310.487 229.023 309.668 229.629C308.848 230.235 308.226 231.071 307.881 232.031C307.536 232.991 307.482 234.032 307.727 235.023C307.973 236.013 308.506 236.909 309.259 237.596C310.012 238.283 310.952 238.731 311.959 238.883C312.966 239.035 313.996 238.885 314.918 238.45C315.84 238.016 316.612 237.318 317.138 236.444C317.664 235.57 317.919 234.559 317.872 233.539Z" fill="#CA0000"/>
<path d="M308.687 268.473C308.147 269.525 307.262 270.359 306.181 270.835C305.099 271.31 303.888 271.399 302.749 271.087C301.61 270.774 300.613 270.078 299.925 269.116C299.237 268.154 298.9 266.985 298.971 265.804C299.042 264.623 299.516 263.502 300.313 262.629C301.111 261.757 302.184 261.186 303.352 261.011C304.52 260.837 305.712 261.071 306.729 261.673C307.746 262.274 308.525 263.208 308.936 264.318L305.718 266.94L309.264 266.113C309.263 266.934 309.065 267.744 308.687 268.473Z" fill="#CA0000"/>
<path d="M306.144 258.447C305.468 258.478 304.793 258.377 304.156 258.147C303.52 257.917 302.935 257.564 302.435 257.108C301.935 256.651 301.529 256.101 301.241 255.488C300.953 254.874 300.789 254.21 300.757 253.533C300.717 252.725 300.87 251.919 301.202 251.181C301.51 250.492 301.965 249.878 302.534 249.384C303.104 248.89 303.775 248.527 304.5 248.32L304.471 250.441L305.638 248.129H305.651C306.327 248.097 307.002 248.199 307.639 248.429C308.275 248.659 308.86 249.012 309.36 249.468C309.86 249.925 310.266 250.475 310.554 251.088C310.842 251.702 311.006 252.366 311.038 253.043C311.069 253.72 310.967 254.396 310.738 255.034C310.509 255.671 310.156 256.257 309.701 256.758C309.245 257.259 308.696 257.666 308.084 257.954C307.472 258.242 306.809 258.407 306.133 258.439L306.144 258.447Z" fill="#CA0000"/>
<path d="M318.647 250.113C317.963 250.158 317.277 250.066 316.63 249.843C315.982 249.62 315.385 249.269 314.873 248.812C314.362 248.355 313.947 247.8 313.653 247.18C313.358 246.561 313.19 245.888 313.158 245.202C313.126 244.517 313.231 243.831 313.466 243.187C313.702 242.542 314.063 241.951 314.529 241.448C314.996 240.945 315.557 240.54 316.182 240.257C316.806 239.974 317.48 239.819 318.165 239.8C319.128 239.753 320.084 239.98 320.923 240.455L320.013 242.953L321.887 241.152C322.892 242.071 323.493 243.352 323.557 244.714C323.58 245.191 323.536 245.67 323.425 246.135C323.168 247.228 322.563 248.208 321.701 248.926C320.839 249.644 319.767 250.06 318.647 250.113Z" fill="#CA0000"/>
<path opacity="0.1" d="M317.178 234.916C315.99 235.046 314.836 235.417 313.642 235.491C312.448 235.565 311.138 235.279 310.384 234.348C309.976 233.85 309.775 233.216 309.431 232.67C309.106 232.161 308.66 231.741 308.134 231.447C307.803 232.101 307.616 232.818 307.583 233.551C307.551 234.283 307.675 235.014 307.947 235.695C308.219 236.376 308.632 236.991 309.16 237.499C309.687 238.007 310.317 238.396 311.007 238.642C311.696 238.887 312.43 238.982 313.159 238.921C313.889 238.859 314.596 238.643 315.236 238.286C315.875 237.93 316.431 237.44 316.867 236.851C317.303 236.262 317.608 235.587 317.763 234.871C317.567 234.881 317.374 234.894 317.178 234.916Z" fill="black"/>
<path opacity="0.1" d="M318.647 250.113C317.76 250.153 316.877 249.963 316.084 249.561C315.291 249.159 314.616 248.559 314.123 247.818C313.63 247.077 313.336 246.222 313.271 245.334C313.205 244.446 313.369 243.557 313.748 242.751C314.156 243.029 314.507 243.381 314.783 243.791C315.151 244.345 315.373 244.987 315.804 245.496C316.598 246.443 317.977 246.75 319.219 246.695C320.46 246.639 321.662 246.284 322.9 246.164C323.073 246.148 323.247 246.138 323.43 246.132C323.174 247.227 322.568 248.208 321.705 248.926C320.842 249.645 319.768 250.061 318.647 250.113Z" fill="black"/>
<path opacity="0.1" d="M306.144 258.447C305.468 258.478 304.793 258.377 304.156 258.147C303.52 257.917 302.935 257.564 302.435 257.108C301.935 256.651 301.529 256.101 301.241 255.488C300.953 254.874 300.789 254.21 300.757 253.533C300.717 252.725 300.87 251.919 301.202 251.181C301.627 251.465 301.996 251.824 302.29 252.242C302.69 252.807 302.941 253.459 303.41 253.981C304.278 254.949 305.739 255.291 307.054 255.259C308.33 255.233 309.558 254.92 310.826 254.822C310.512 255.835 309.894 256.726 309.056 257.375C308.218 258.023 307.201 258.398 306.144 258.447Z" fill="black"/>
<path opacity="0.1" d="M308.687 268.473C308.088 269.653 307.059 270.557 305.813 270.998C304.566 271.439 303.199 271.383 301.993 270.843C300.786 270.302 299.834 269.317 299.332 268.092C298.83 266.867 298.817 265.496 299.296 264.262C299.72 264.541 300.101 264.882 300.427 265.272C300.916 265.871 301.239 266.55 301.806 267.107C302.864 268.141 304.558 268.568 306.072 268.608C306.946 268.615 307.819 268.57 308.687 268.473Z" fill="black"/>
<path d="M51.8463 274.959C50.7558 272.933 51.9945 270.451 53.4184 268.642C54.8424 266.834 56.5787 264.957 56.5416 262.652C56.4887 259.346 52.9844 257.391 50.1894 255.636C48.1107 254.335 46.1933 252.792 44.4776 251.038C43.7591 250.362 43.1651 249.565 42.7228 248.683C42.1432 247.389 42.1617 245.918 42.1934 244.502C42.3152 239.778 42.5481 235.062 42.8922 230.352" stroke="#3F3D56" stroke-width="4" stroke-miterlimit="10"/>
<path d="M37.5669 230.092C37.6067 229.228 37.863 228.388 38.3121 227.649C38.7613 226.911 39.3888 226.297 40.1369 225.865L41.2909 228.151L41.2565 225.383C41.8069 225.222 42.3802 225.153 42.9531 225.179C43.9706 225.226 44.9512 225.575 45.7708 226.182C46.5903 226.788 47.2121 227.624 47.5575 228.584C47.9028 229.544 47.9563 230.585 47.711 231.575C47.4658 232.566 46.9329 233.461 46.1797 234.149C45.4264 234.836 44.4868 235.284 43.4795 235.436C42.4722 235.588 41.4425 235.437 40.5206 235.003C39.5987 234.569 38.8261 233.871 38.3003 232.996C37.7745 232.122 37.5193 231.112 37.5669 230.092Z" fill="#CA0000"/>
<path d="M46.7512 265.026C47.2916 266.078 48.1767 266.911 49.2579 267.387C50.3392 267.863 51.5509 267.952 52.6898 267.639C53.8288 267.326 54.8257 266.631 55.5135 265.669C56.2012 264.707 56.538 263.538 56.4673 262.357C56.3966 261.175 55.9227 260.055 55.1251 259.182C54.3275 258.31 53.2547 257.738 52.0865 257.564C50.9184 257.39 49.726 257.623 48.7093 258.225C47.6926 258.827 46.9134 259.761 46.5024 260.87L49.7209 263.493L46.1742 262.665C46.1757 263.487 46.3735 264.296 46.7512 265.026Z" fill="#CA0000"/>
<path d="M49.2947 254.999C49.9705 255.031 50.6458 254.929 51.2822 254.7C51.9186 254.47 52.5035 254.117 53.0037 253.66C53.5039 253.204 53.9094 252.654 54.1972 252.04C54.485 251.427 54.6494 250.763 54.681 250.086C54.721 249.278 54.5686 248.471 54.2363 247.734C53.9286 247.045 53.4739 246.431 52.9041 245.937C52.3343 245.443 51.6634 245.079 50.9384 244.873L50.9675 246.994L49.8003 244.682C48.4357 244.618 47.1015 245.1 46.0914 246.021C45.0813 246.942 44.478 248.228 44.4141 249.595C44.3502 250.963 44.831 252.299 45.7508 253.311C46.6706 254.323 47.9539 254.928 49.3186 254.992L49.2947 254.999Z" fill="#CA0000"/>
<path d="M36.7914 246.665C37.4751 246.711 38.161 246.619 38.8089 246.396C39.4569 246.173 40.0539 245.822 40.565 245.365C41.0761 244.908 41.4911 244.353 41.7857 243.733C42.0802 243.113 42.2484 242.441 42.2805 241.755C42.3125 241.069 42.2077 240.384 41.9722 239.739C41.7367 239.095 41.3753 238.504 40.909 238.001C40.4427 237.498 39.881 237.093 39.2567 236.81C38.6324 236.527 37.958 236.372 37.2731 236.353C36.3149 236.308 35.3636 236.535 34.5284 237.008L35.4389 239.506L33.5517 237.713C32.5478 238.63 31.9473 239.907 31.8816 241.266C31.8581 241.744 31.9027 242.223 32.0139 242.688C32.2701 243.781 32.8751 244.761 33.7372 245.479C34.5994 246.197 35.6716 246.613 36.7914 246.665Z" fill="#CA0000"/>
<path opacity="0.1" d="M38.2603 231.469C39.4487 231.598 40.6027 231.97 41.7964 232.044C42.9901 232.118 44.3003 231.832 45.0546 230.901C45.4622 230.403 45.6634 229.769 46.0075 229.223C46.3324 228.714 46.778 228.294 47.3044 228C47.635 228.654 47.8227 229.371 47.855 230.104C47.8873 230.836 47.7634 231.567 47.4916 232.248C47.2198 232.929 46.8064 233.544 46.2788 234.052C45.7512 234.56 45.1216 234.949 44.4319 235.194C43.7422 235.44 43.0083 235.535 42.2791 235.474C41.5498 235.412 40.842 235.196 40.2027 234.839C39.5634 234.482 39.0073 233.993 38.5715 233.404C38.1358 232.815 37.8303 232.14 37.6754 231.423C37.8712 231.434 38.0645 231.447 38.2603 231.469Z" fill="black"/>
<path opacity="0.1" d="M36.7914 246.665C37.6789 246.706 38.5619 246.516 39.3546 246.114C40.1474 245.712 40.8229 245.111 41.3158 244.371C41.8088 243.63 42.1023 242.775 42.1679 241.887C42.2336 240.999 42.0691 240.109 41.6906 239.304C41.2825 239.581 40.9312 239.934 40.6557 240.344C40.2878 240.898 40.0654 241.54 39.634 242.049C38.84 242.995 37.461 243.303 36.2197 243.247C34.9783 243.192 33.7767 242.836 32.538 242.717C32.366 242.701 32.1913 242.69 32.0086 242.685C32.2645 243.78 32.8701 244.761 33.7334 245.479C34.5966 246.198 35.6703 246.614 36.7914 246.665Z" fill="black"/>
<path opacity="0.1" d="M49.2948 254.999C49.9705 255.031 50.6458 254.929 51.2822 254.7C51.9186 254.47 52.5036 254.117 53.0037 253.66C53.5039 253.204 53.9094 252.654 54.1972 252.04C54.485 251.427 54.6494 250.763 54.681 250.086C54.721 249.278 54.5686 248.471 54.2363 247.734C53.8116 248.017 53.4428 248.377 53.1485 248.795C52.7488 249.359 52.4974 250.012 52.0289 250.534C51.1607 251.502 49.6997 251.844 48.3843 251.812C47.1085 251.786 45.8804 251.473 44.6126 251.375C44.9269 252.388 45.5449 253.279 46.3826 253.927C47.2204 254.576 48.2372 254.95 49.2948 254.999Z" fill="black"/>
<path opacity="0.1" d="M46.7512 265.026C47.3505 266.206 48.3797 267.11 49.6258 267.551C50.8719 267.992 52.2396 267.936 53.4459 267.395C54.6522 266.854 55.6048 265.87 56.1066 264.645C56.6084 263.42 56.6211 262.049 56.142 260.815C55.7179 261.094 55.3372 261.435 55.0118 261.825C54.5221 262.424 54.1992 263.103 53.6328 263.66C52.5741 264.694 50.8802 265.121 49.3662 265.161C48.4926 265.168 47.6194 265.123 46.7512 265.026Z" fill="black"/>
<path d="M201.011 250.11C201.016 249.467 200.87 248.832 200.586 248.255C200.302 247.679 199.888 247.177 199.375 246.79C199.312 244.358 197.581 242.372 195.355 242.065C195.183 241.239 194.797 240.472 194.236 239.843C193.674 239.214 192.958 238.743 192.157 238.48C191.963 238.418 191.764 238.371 191.562 238.339H191.504L191.4 238.326H191.313H191.226H191.112H191.043H190.855C188.584 238.326 186.694 240.065 186.305 242.359C184.836 242.02 183.489 242.46 183.248 243.391C183.186 243.637 183.2 243.897 183.288 244.136C183.537 244.857 184.347 245.546 185.445 245.888L185.588 245.931C185.66 245.952 185.731 245.968 185.802 245.984H185.85C185.446 246.846 185.389 247.832 185.69 248.735C185.991 249.639 186.627 250.392 187.467 250.839C187.434 250.857 187.402 250.878 187.372 250.9C187.236 251.025 187.128 251.177 187.054 251.346C186.789 251.812 186.583 252.31 186.44 252.828C186.334 253.271 186.316 253.735 186.176 254.172C185.935 254.968 185.315 255.665 185.244 256.511C185.212 256.888 185.273 257.33 185.006 257.588C184.939 257.645 184.868 257.697 184.794 257.744C184.607 257.873 184.448 258.039 184.328 258.232C184.25 258.392 184.145 258.537 184.019 258.662C183.778 258.845 183.381 258.826 183.262 259.107C183.142 259.388 183.449 259.72 183.378 260.027C183.32 260.276 183.047 260.39 182.849 260.558C182.627 260.799 182.472 261.094 182.399 261.414C182.003 261.49 181.596 261.478 181.206 261.379C180.815 261.28 180.452 261.095 180.141 260.839C180.248 261.112 180.326 261.395 180.374 261.684C180.059 261.348 179.54 261.25 179.156 261.075C178.661 260.847 178.22 260.519 177.859 260.109L178.553 260.014L175.483 255.347L174.577 255.161L175.39 256.723C175.324 256.755 175.265 256.802 175.219 256.86C175.173 256.918 175.141 256.985 175.125 257.057C175.082 257.23 175.071 257.41 175.094 257.588C175.137 258.006 175.206 258.422 175.303 258.831L175.538 259.929C175.558 260.032 175.584 260.134 175.615 260.234C175.308 260.223 175.001 260.258 174.705 260.337C174.096 260.112 173.462 259.961 172.817 259.889C172.676 259.864 172.53 259.872 172.391 259.91C172.234 259.983 172.097 260.094 171.994 260.234C171.465 260.847 170.995 261.51 170.591 262.212C168.942 265.087 166.74 267.595 164.679 270.194C163.255 270.774 161.82 271.326 160.383 271.872L157.294 273.052C156.677 273.288 156.037 273.53 155.38 273.487C155.084 273.469 154.724 273.423 154.557 273.675C154.476 273.8 154.413 273.936 154.369 274.078C154.261 274.078 154.152 274.105 154.052 274.11H154.033C153.837 273.622 153.668 273.1 153.292 272.745C153.216 272.756 153.145 272.787 153.084 272.833C153.023 272.879 152.974 272.94 152.943 273.01C152.869 273.148 152.824 273.299 152.739 273.426C152.572 273.67 152.284 273.789 152.077 273.996C151.871 274.203 151.741 274.527 151.519 274.728C151.207 274.955 150.843 275.096 150.46 275.139C149.887 275.274 149.334 275.485 148.816 275.765C148.625 275.883 148.421 275.977 148.208 276.046C147.973 276.091 147.733 276.099 147.496 276.07L145.86 275.951C145.714 275.931 145.567 275.938 145.423 275.969C145.255 276.031 145.111 276.147 145.016 276.299C144.92 276.451 144.877 276.631 144.894 276.81C144.914 276.987 144.97 277.159 145.059 277.314C145.147 277.469 145.267 277.604 145.41 277.711C145.694 277.92 146.008 278.083 146.342 278.196C147.763 278.748 149.228 279.178 150.722 279.483V279.814C151.757 280.336 152.9 280.609 154.06 280.61C154.145 280.616 154.231 280.601 154.308 280.564C154.416 280.484 154.49 280.367 154.518 280.236C154.865 279.196 155.084 278.117 155.171 277.024C155.376 277.011 155.576 276.96 155.762 276.873C156.325 276.719 156.884 277.107 157.463 277.17C158.178 277.247 158.842 276.831 159.517 276.574C159.615 276.537 159.713 276.505 159.811 276.473C159.619 276.722 159.391 276.943 159.136 277.128C158.856 277.329 158.541 277.478 158.265 277.687C158.037 277.897 157.791 278.087 157.532 278.257C157.349 278.343 157.161 278.415 156.968 278.475C156.689 278.577 156.423 278.711 156.174 278.875C155.952 279.007 155.764 279.188 155.624 279.406C155.554 279.507 155.51 279.625 155.498 279.748C155.486 279.871 155.506 279.995 155.555 280.108C155.605 280.221 155.682 280.32 155.78 280.395C155.878 280.47 155.994 280.518 156.116 280.535C156.337 280.575 156.563 280.581 156.786 280.554C157.67 280.488 158.551 280.405 159.433 280.326C159.806 280.301 160.176 280.248 160.542 280.167C160.735 280.119 160.925 280.055 161.119 280.005C161.448 279.918 161.786 279.867 162.127 279.854C162.226 279.846 162.325 279.856 162.421 279.883C162.627 279.949 162.773 280.148 162.982 280.201C163.118 280.214 163.255 280.195 163.382 280.145C164.027 280.005 164.685 279.935 165.346 279.936C165.634 279.92 165.973 279.864 166.108 279.597C166.272 279.265 165.997 278.894 165.888 278.536C165.833 278.308 165.803 278.075 165.798 277.841C165.748 277.263 165.582 276.702 165.311 276.189C165.167 275.95 165.046 275.698 164.948 275.436C166.213 274.954 167.423 274.339 168.559 273.601C169.21 273.195 169.882 272.758 170.618 272.609C171.475 272.437 172.359 272.665 173.204 272.909C175.215 273.492 177.193 274.183 179.13 274.98C180.056 275.359 180.983 275.762 181.93 276.041C182.207 276.415 182.542 276.743 182.923 277.011C183.558 277.422 184.334 277.542 185.08 277.6C186.088 277.692 187.101 277.73 188.113 277.714C188.886 277.701 189.683 277.648 190.373 277.295C190.542 277.208 190.701 277.103 190.847 276.982C191.377 277.077 191.919 276.794 192.335 276.43C192.885 275.962 193.281 275.338 193.473 274.641C193.716 273.683 193.528 272.567 194.116 271.785C194.272 271.575 194.476 271.406 194.63 271.193C194.819 270.909 194.911 270.572 194.894 270.231L194.921 270.191C195.054 269.883 195.143 269.558 195.185 269.226C195.255 268.966 195.343 268.712 195.45 268.465C195.748 267.725 196.008 266.97 196.228 266.203C196.381 265.694 196.501 265.176 196.588 264.652C196.652 264.233 196.689 263.811 196.723 263.389C196.766 262.73 196.894 262.078 197.104 261.451C197.627 259.955 197.922 258.389 197.98 256.805C197.98 256.774 197.98 256.744 197.98 256.713C198.749 256.628 199.458 256.26 199.97 255.679C200.481 255.098 200.758 254.347 200.746 253.573C200.747 253.106 200.65 252.645 200.46 252.218C200.826 251.576 201.015 250.849 201.011 250.11ZM186.043 268.33C186.088 268.491 186.141 268.653 186.194 268.815C185.951 268.574 185.71 268.324 185.464 268.086C185.562 268.115 185.66 268.147 185.755 268.181C185.856 268.221 185.954 268.271 186.046 268.33H186.043ZM184.858 267.534C183.412 266.277 181.74 265.301 180.26 264.087C181.054 264.487 181.848 264.951 182.642 265.397C183.567 265.927 184.502 266.435 185.448 266.919C185.293 267.155 185.095 267.36 184.866 267.523L184.858 267.534ZM185.474 264.368L185.543 264.296C185.543 264.474 185.543 264.641 185.543 264.792C185.413 264.75 185.278 264.707 185.154 264.66C185.268 264.566 185.376 264.465 185.477 264.357L185.474 264.368ZM172.751 267.773C173.346 267.098 173.864 266.359 174.294 265.569C174.866 266.574 175.798 267.298 176.592 268.139C175.316 267.958 174.038 267.818 172.754 267.762L172.751 267.773Z" fill="url(#paint0_linear_1_292)"/>
<path d="M174.816 255.548L175.729 255.734L178.839 260.337L177.465 260.523L174.816 255.548Z" fill="#2F2E41"/>
<path d="M152.702 274.232C152.948 275.048 153.251 275.846 153.61 276.619C154.64 276.403 155.654 276.113 156.643 275.752C156.451 275.453 156.241 275.167 156.013 274.895C155.77 274.624 155.479 274.401 155.155 274.235C154.84 274.097 154.451 274.2 154.115 274.219C153.644 274.237 153.173 274.241 152.702 274.232Z" fill="#FBBEBE"/>
<path d="M155.161 275.463C154.647 275.301 154.332 274.781 154.123 274.28C153.914 273.779 153.745 273.232 153.348 272.864C153.272 272.876 153.201 272.906 153.14 272.952C153.079 272.999 153.03 273.059 152.998 273.129C152.921 273.262 152.877 273.413 152.789 273.54C152.625 273.779 152.334 273.895 152.125 274.1C151.916 274.304 151.786 274.614 151.561 274.818C151.249 275.043 150.884 275.184 150.502 275.227C149.925 275.358 149.368 275.564 148.845 275.842C148.652 275.954 148.446 276.043 148.231 276.107C147.995 276.152 147.753 276.16 147.514 276.131L145.865 276.011C145.719 275.993 145.57 276 145.426 276.033C145.258 276.091 145.114 276.205 145.018 276.355C144.922 276.505 144.879 276.683 144.896 276.86C144.918 277.037 144.977 277.207 145.068 277.36C145.159 277.513 145.281 277.645 145.426 277.748C145.712 277.954 146.028 278.114 146.363 278.226C147.799 278.767 149.278 279.19 150.783 279.49V279.817C151.829 280.335 152.98 280.607 154.147 280.612C154.238 280.62 154.329 280.605 154.412 280.567C154.519 280.488 154.594 280.373 154.623 280.244C155.019 279.085 155.25 277.876 155.309 276.653C155.339 276.344 155.316 276.032 155.24 275.73C155.15 275.433 155.457 275.558 155.171 275.441" fill="#2F2E41"/>
<path d="M186.774 269.236C181.885 269.533 177.058 268.096 172.161 267.942C171.553 267.905 170.943 267.945 170.345 268.059C169.722 268.226 169.118 268.461 168.545 268.759C165.923 269.981 163.207 270.994 160.494 272.007L157.381 273.169C156.757 273.4 156.114 273.636 155.449 273.596C155.153 273.577 154.79 273.532 154.621 273.781C154.115 274.532 154.356 275.638 154.69 276.481C154.798 276.746 154.981 277.051 155.272 277.083C155.478 277.069 155.68 277.017 155.867 276.932C156.434 276.78 157 277.162 157.582 277.223C158.305 277.3 158.975 276.889 159.655 276.637C160.782 276.221 162.016 276.234 163.202 276.035C165.192 275.704 167.034 274.778 168.76 273.723C169.416 273.323 170.083 272.893 170.835 272.747C171.7 272.577 172.592 272.8 173.442 273.042C175.468 273.616 177.462 274.297 179.416 275.081C180.433 275.523 181.476 275.904 182.539 276.221C184.856 276.832 187.307 276.689 189.537 275.813C190.331 275.502 191.167 274.956 191.212 274.11C191.239 273.628 190.866 273.203 190.617 272.784C190.456 272.519 190.297 272.254 190.122 272.002C189.28 270.772 188.259 269.146 186.774 269.236Z" fill="#2F2E41"/>
<path opacity="0.1" d="M186.774 269.236C181.885 269.533 177.058 268.096 172.161 267.942C171.553 267.905 170.943 267.945 170.345 268.059C169.722 268.226 169.118 268.461 168.545 268.759C165.923 269.981 163.207 270.994 160.494 272.007L157.381 273.169C156.757 273.4 156.114 273.636 155.449 273.596C155.153 273.577 154.79 273.532 154.621 273.781C154.115 274.532 154.356 275.638 154.69 276.481C154.798 276.746 154.981 277.051 155.272 277.083C155.478 277.069 155.68 277.017 155.867 276.932C156.434 276.78 157 277.162 157.582 277.223C158.305 277.3 158.975 276.889 159.655 276.637C160.782 276.221 162.016 276.234 163.202 276.035C165.192 275.704 167.034 274.778 168.76 273.723C169.416 273.323 170.083 272.893 170.835 272.747C171.7 272.577 172.592 272.8 173.442 273.042C175.468 273.616 177.462 274.297 179.416 275.081C180.433 275.523 181.476 275.904 182.539 276.221C184.856 276.832 187.307 276.689 189.537 275.813C190.331 275.502 191.167 274.956 191.212 274.11C191.239 273.628 190.866 273.203 190.617 272.784C190.456 272.519 190.297 272.254 190.122 272.002C189.28 270.772 188.259 269.146 186.774 269.236Z" fill="black"/>
<path d="M162.085 274.471C162.85 274.731 163.622 274.971 164.398 275.192C164.835 274.473 165.65 273.975 165.835 273.156C165.846 273.12 165.846 273.082 165.835 273.047C165.815 273.012 165.784 272.984 165.748 272.967C165.19 272.659 164.571 272.478 163.935 272.437C163.432 272.405 163.204 272.93 162.977 273.299C162.897 273.447 162.288 274.54 162.085 274.471Z" fill="#FBBEBE"/>
<path d="M163.162 273.946C162.933 273.908 162.715 273.822 162.522 273.695C162.328 273.567 162.163 273.401 162.037 273.206C161.929 273.018 161.815 272.763 161.598 272.776C161.381 272.79 161.307 273.028 161.262 273.227C161.115 273.97 160.903 274.699 160.629 275.404C160.352 276.112 159.884 276.728 159.276 277.183C158.993 277.38 158.678 277.528 158.4 277.735C158.169 277.942 157.921 278.13 157.659 278.297C157.475 278.382 157.285 278.453 157.09 278.509C156.805 278.609 156.532 278.742 156.278 278.904C156.054 279.035 155.865 279.217 155.725 279.435C155.657 279.545 155.617 279.671 155.609 279.8C155.6 279.929 155.624 280.059 155.677 280.177C155.734 280.273 155.811 280.356 155.902 280.421C155.993 280.485 156.097 280.53 156.206 280.551C156.429 280.588 156.657 280.594 156.881 280.567C157.773 280.501 158.662 280.421 159.552 280.342C159.928 280.318 160.302 280.267 160.671 280.188C160.867 280.14 161.058 280.076 161.251 280.026C161.585 279.941 161.926 279.891 162.27 279.878C162.37 279.87 162.47 279.88 162.566 279.907C162.773 279.973 162.918 280.172 163.13 280.22C163.267 280.234 163.404 280.216 163.533 280.167C164.183 280.029 164.847 279.959 165.512 279.96C165.803 279.944 166.148 279.888 166.28 279.626C166.447 279.3 166.171 278.934 166.06 278.584C166.005 278.359 165.974 278.13 165.968 277.899C165.917 277.33 165.751 276.776 165.478 276.274C165.25 275.855 164.949 275.394 165.099 274.948C165.181 274.809 165.232 274.655 165.25 274.495C165.213 273.776 163.564 274.041 163.162 273.946Z" fill="#2F2E41"/>
<path d="M179.445 261.382C178.579 260.999 177.885 260.309 177.497 259.444C177.417 259.258 177.349 259.064 177.272 258.876C177.014 258.254 176.616 257.7 176.107 257.259C176.053 257.199 175.986 257.151 175.912 257.12C175.837 257.088 175.757 257.073 175.676 257.076C175.598 257.099 175.527 257.143 175.471 257.202C175.415 257.262 175.376 257.335 175.358 257.415C175.313 257.588 175.301 257.768 175.324 257.945C175.369 258.357 175.44 258.765 175.536 259.168L175.774 260.25C175.804 260.416 175.854 260.578 175.922 260.732C176.024 260.914 176.159 261.075 176.319 261.207C176.536 261.409 176.756 261.602 176.978 261.79C177.101 261.902 177.235 261.999 177.378 262.082C177.613 262.194 177.864 262.267 178.122 262.3C179.093 262.48 180.08 262.74 180.898 263.36C180.898 263.36 180.898 262.636 180.879 262.565C180.87 262.355 180.798 262.153 180.673 261.984C180.366 261.653 179.837 261.554 179.445 261.382Z" fill="#FBBEBE"/>
<path opacity="0.1" d="M179.445 261.382C178.579 260.999 177.885 260.309 177.497 259.444C177.417 259.258 177.349 259.064 177.272 258.876C177.014 258.254 176.616 257.7 176.107 257.259C176.053 257.199 175.986 257.151 175.912 257.12C175.837 257.088 175.757 257.073 175.676 257.076C175.598 257.099 175.527 257.143 175.471 257.202C175.415 257.262 175.376 257.335 175.358 257.415C175.313 257.588 175.301 257.768 175.324 257.945C175.369 258.357 175.44 258.765 175.536 259.168L175.774 260.25C175.804 260.416 175.854 260.578 175.922 260.732C176.024 260.914 176.159 261.075 176.319 261.207C176.536 261.409 176.756 261.602 176.978 261.79C177.101 261.902 177.235 261.999 177.378 262.082C177.613 262.194 177.864 262.267 178.122 262.3C179.093 262.48 180.08 262.74 180.898 263.36C180.898 263.36 180.898 262.636 180.879 262.565C180.87 262.355 180.798 262.153 180.673 261.984C180.366 261.653 179.837 261.554 179.445 261.382Z" fill="black"/>
<path d="M189.397 253.109C190.053 253.109 190.585 252.572 190.585 251.91C190.585 251.248 190.053 250.712 189.397 250.712C188.74 250.712 188.208 251.248 188.208 251.91C188.208 252.572 188.74 253.109 189.397 253.109Z" fill="#2F2E41"/>
<path d="M188.661 251.186C188.342 251.113 188.007 251.162 187.721 251.322C187.584 251.443 187.475 251.594 187.401 251.762C187.134 252.22 186.926 252.71 186.782 253.22C186.676 253.658 186.657 254.114 186.517 254.546C186.274 255.342 185.649 256.018 185.577 256.848C185.546 257.219 185.607 257.656 185.337 257.908C185.27 257.965 185.198 258.015 185.122 258.06C184.934 258.186 184.775 258.35 184.654 258.542C184.573 258.714 184.461 258.87 184.323 259.001C184.079 259.181 183.68 259.163 183.561 259.441C183.442 259.719 183.749 260.043 183.677 260.345C183.619 260.592 183.344 260.706 183.148 260.876C182.925 261.112 182.768 261.404 182.695 261.721C182.298 261.796 181.888 261.784 181.496 261.686C181.104 261.588 180.737 261.405 180.422 261.151C180.752 261.971 180.76 262.875 180.774 263.758C180.812 264.04 180.737 264.326 180.564 264.553C181.512 264.575 182.433 264.819 183.357 265.039C183.752 265.171 184.179 265.171 184.574 265.039C184.786 264.925 184.975 264.774 185.133 264.593C185.636 264.081 186.162 263.533 186.284 262.819C186.316 262.418 186.323 262.015 186.305 261.613C186.354 261.116 186.456 260.626 186.61 260.152C186.876 259.166 187.053 258.159 187.139 257.142C187.195 256.514 187.735 256.01 188.02 255.448C188.55 254.387 189.106 253.286 189.148 252.099C189.185 251.711 189.053 251.237 188.661 251.186Z" fill="#2F2E41"/>
<path opacity="0.1" d="M188.661 251.186C188.342 251.113 188.007 251.162 187.721 251.322C187.584 251.443 187.475 251.594 187.401 251.762C187.134 252.22 186.926 252.71 186.782 253.22C186.676 253.658 186.657 254.114 186.517 254.546C186.274 255.342 185.649 256.018 185.577 256.848C185.546 257.219 185.607 257.656 185.337 257.908C185.27 257.965 185.198 258.015 185.122 258.06C184.934 258.186 184.775 258.35 184.654 258.542C184.573 258.714 184.461 258.87 184.323 259.001C184.079 259.181 183.68 259.163 183.561 259.441C183.442 259.719 183.749 260.043 183.677 260.345C183.619 260.592 183.344 260.706 183.148 260.876C182.925 261.112 182.768 261.404 182.695 261.721C182.298 261.796 181.888 261.784 181.496 261.686C181.104 261.588 180.737 261.405 180.422 261.151C180.752 261.971 180.76 262.875 180.774 263.758C180.812 264.04 180.737 264.326 180.564 264.553C181.512 264.575 182.433 264.819 183.357 265.039C183.752 265.171 184.179 265.171 184.574 265.039C184.786 264.925 184.975 264.774 185.133 264.593C185.636 264.081 186.162 263.533 186.284 262.819C186.316 262.418 186.323 262.015 186.305 261.613C186.354 261.116 186.456 260.626 186.61 260.152C186.876 259.166 187.053 258.159 187.139 257.142C187.195 256.514 187.735 256.01 188.02 255.448C188.55 254.387 189.106 253.286 189.148 252.099C189.185 251.711 189.053 251.237 188.661 251.186Z" fill="black"/>
<path d="M187.549 270.268C186.53 269.783 185.787 268.878 184.963 268.104C183.391 266.624 181.47 265.58 179.818 264.193C178.725 263.275 177.746 262.207 176.541 261.438C175.482 260.761 174.281 260.339 173.032 260.205C172.889 260.18 172.743 260.187 172.603 260.226C172.445 260.297 172.308 260.406 172.203 260.544C171.67 261.147 171.195 261.799 170.787 262.493C168.694 266.052 165.721 269.045 163.257 272.357C163.178 272.435 163.131 272.54 163.126 272.651C163.12 272.762 163.157 272.871 163.228 272.957L163.728 273.94C164.009 274.489 164.459 275.131 165.052 275.022C165.324 274.944 165.567 274.788 165.753 274.574L168.003 272.418L170.361 270.159C171.743 268.833 173.148 267.481 174.051 265.789C174.755 267.012 176.004 267.812 176.862 268.934C177.187 269.358 177.452 269.828 177.743 270.278C178.212 271.002 178.741 271.681 179.27 272.357L181.978 275.818C182.319 276.311 182.743 276.741 183.23 277.091C183.87 277.496 184.651 277.605 185.405 277.671C186.422 277.764 187.442 277.801 188.462 277.783C189.241 277.769 190.051 277.719 190.739 277.372C191.427 277.024 192.012 276.311 191.975 275.534C191.933 275.127 191.8 274.735 191.586 274.386C190.63 272.609 189.365 271.124 187.549 270.268Z" fill="#2F2E41"/>
<path d="M190.127 253.66C190.632 253.66 191.04 253.249 191.04 252.74C191.04 252.232 190.632 251.82 190.127 251.82C189.623 251.82 189.214 252.232 189.214 252.74C189.214 253.249 189.623 253.66 190.127 253.66Z" fill="#E8E8F0"/>
<path d="M189.926 252.048C190.133 252.46 190.169 252.936 190.027 253.374C189.886 253.805 189.688 254.215 189.439 254.594C189.225 254.985 188.968 255.351 188.674 255.686C190.085 255.755 191.453 255.201 192.697 254.528C193.7 253.997 194.701 253.321 195.236 252.311C195.076 252.349 194.911 252.353 194.75 252.323C194.589 252.294 194.436 252.231 194.301 252.138C194.032 251.95 193.791 251.726 193.584 251.47L192.877 250.675C192.71 250.5 192.564 250.307 192.441 250.099C192.286 249.817 192.22 249.494 192.253 249.174C191.971 249.469 191.657 249.731 191.316 249.953C190.81 250.285 190.257 250.524 189.746 250.85C189.566 250.966 189.167 251.155 189.27 251.38C189.373 251.605 189.783 251.794 189.926 252.048Z" fill="#FBBEBE"/>
<path opacity="0.1" d="M189.926 252.048C190.133 252.46 190.169 252.936 190.027 253.374C189.886 253.805 189.688 254.215 189.439 254.594C189.225 254.985 188.968 255.351 188.674 255.686C190.085 255.755 191.453 255.201 192.697 254.528C193.7 253.997 194.701 253.321 195.236 252.311C195.076 252.349 194.911 252.353 194.75 252.323C194.589 252.294 194.436 252.231 194.301 252.138C194.032 251.95 193.791 251.726 193.584 251.47L192.877 250.675C192.71 250.5 192.564 250.307 192.441 250.099C192.286 249.817 192.22 249.494 192.253 249.174C191.971 249.469 191.657 249.731 191.316 249.953C190.81 250.285 190.257 250.524 189.746 250.85C189.566 250.966 189.167 251.155 189.27 251.38C189.373 251.605 189.783 251.794 189.926 252.048Z" fill="black"/>
<path d="M189.945 252.186C189.802 252.388 189.725 252.629 189.725 252.877C189.725 253.124 189.802 253.366 189.945 253.568C189.984 253.618 190.135 253.933 190.209 253.936C190.272 253.931 190.33 253.901 190.371 253.854C190.691 253.519 190.989 253.165 191.265 252.793C191.544 252.417 191.948 252.152 192.404 252.045C192.957 251.958 193.489 252.252 193.973 252.533C194.181 252.637 194.362 252.788 194.502 252.974C194.604 253.158 194.665 253.363 194.68 253.573C194.819 254.837 194.872 256.109 194.839 257.381C194.864 258.297 194.804 259.214 194.659 260.12C194.569 260.587 194.434 261.043 194.37 261.515C194.324 261.93 194.305 262.348 194.315 262.766V264.516C194.303 264.837 194.326 265.158 194.383 265.474C194.493 265.85 194.621 266.221 194.767 266.585C194.896 267.017 194.985 267.461 195.032 267.91L195.27 269.722C195.347 270.294 195.402 270.917 195.056 271.376C194.902 271.586 194.696 271.75 194.526 271.957C193.931 272.715 194.129 273.816 193.865 274.757C193.669 275.448 193.268 276.063 192.716 276.52C192.295 276.878 191.75 277.162 191.205 277.051C190.471 276.913 190.029 276.147 189.828 275.423C189.627 274.699 189.564 273.909 189.122 273.301C188.767 272.8 188.219 272.487 187.724 272.129C187.229 271.771 186.742 271.313 186.634 270.708C186.586 270.443 186.615 270.178 186.589 269.913C186.549 269.575 186.42 269.253 186.214 268.983C186.008 268.712 185.733 268.502 185.419 268.375C185.043 268.229 184.577 268.176 184.36 267.844C184.899 267.505 185.292 266.976 185.461 266.362C185.625 265.756 185.714 265.133 185.726 264.506L185.853 262.4C185.908 261.459 185.935 260.526 186.348 259.68C186.533 259.303 186.763 258.948 186.954 258.574C187.209 258.049 187.427 257.507 187.605 256.951C187.904 256.089 188.206 255.225 188.473 254.352C188.58 253.93 188.74 253.523 188.949 253.141C189.196 252.743 189.521 252.266 189.945 252.186Z" fill="#E8E8F0"/>
<path d="M185.278 265.866L185.834 265.885L185.953 265.044C185.969 264.876 186.008 264.711 186.07 264.553C186.162 264.388 186.269 264.231 186.39 264.084C186.938 263.31 186.898 262.281 187.033 261.34C187.213 260.085 187.737 258.908 188.256 257.752L189.336 255.342C189.432 255.143 189.509 254.937 189.566 254.724C189.613 254.489 189.636 254.25 189.632 254.01C189.632 253.639 189.754 252.284 189.762 251.91C189.762 251.772 189.46 251.849 189.397 251.727C189.262 251.462 189.077 252.183 188.822 252.342C188.583 252.526 188.409 252.782 188.325 253.072C188.092 253.679 187.949 254.318 187.732 254.928C187.542 255.552 187.194 256.118 186.724 256.569C186.504 256.765 186.247 256.919 186.038 257.126C185.366 257.792 185.302 258.842 185.278 259.778C185.263 260.359 185.154 265.866 185.278 265.866Z" fill="#2F2E41"/>
<path d="M193.285 251.181C192.756 251.393 192.449 251.977 192.298 252.544C192.147 253.112 192.083 253.711 191.792 254.215C191.115 255.397 189.386 255.742 188.907 257.02C188.785 257.452 188.72 257.897 188.714 258.346C188.629 259.261 188.327 260.146 188.238 261.061C188.191 261.773 188.208 262.487 188.288 263.196L188.894 270.416C189.011 271.48 188.95 272.556 188.711 273.598C189.333 273.688 189.967 273.583 190.527 273.299C191.096 273.034 191.615 272.684 192.16 272.381C193.1 271.851 194.137 271.493 194.958 270.79C195.107 270.674 195.235 270.533 195.336 270.374C195.468 270.07 195.557 269.75 195.601 269.422C195.67 269.167 195.759 268.917 195.866 268.674C196.17 267.946 196.435 267.203 196.66 266.447C196.814 265.945 196.935 265.434 197.022 264.917C197.088 264.506 197.123 264.09 197.16 263.676C197.202 263.025 197.331 262.383 197.544 261.767C198.069 260.296 198.366 258.753 198.425 257.192C198.443 256.967 198.428 256.74 198.38 256.519C198.289 256.251 198.166 255.995 198.015 255.755C197.763 255.281 197.612 254.758 197.374 254.278C196.845 253.191 195.895 252.366 194.902 251.674C194.394 251.338 193.835 250.972 193.285 251.181Z" fill="#2F2E41"/>
<path d="M180.649 262.963C180.219 262.737 179.83 262.442 179.498 262.088C179.347 261.91 179.233 261.711 179.069 261.536C178.68 261.121 178.176 260.833 177.621 260.709C177.071 260.587 176.507 260.533 175.943 260.547C175.567 260.521 175.188 260.567 174.829 260.682C174.648 260.741 174.486 260.845 174.356 260.984C174.227 261.123 174.134 261.293 174.088 261.478C174.006 261.928 174.3 262.366 174.652 262.652C174.979 262.92 175.364 263.108 175.776 263.201C176.113 263.26 176.452 263.299 176.793 263.321C178.794 263.53 180.58 264.62 182.333 265.614C183.873 266.486 185.443 267.302 187.044 268.062C187.107 267.582 187.134 267.098 187.123 266.614C187.123 266.253 187.097 265.702 186.755 265.49C186.358 265.24 185.697 265.185 185.257 265.036C184.226 264.699 183.219 264.291 182.243 263.816C181.689 263.549 181.16 263.265 180.649 262.963Z" fill="#FBBEBE"/>
<path d="M189.397 251.637C191.366 251.637 192.962 250.029 192.962 248.044C192.962 246.06 191.366 244.451 189.397 244.451C187.428 244.451 185.832 246.06 185.832 248.044C185.832 250.029 187.428 251.637 189.397 251.637Z" fill="#FBBEBE"/>
<path d="M194.304 255.254C194.02 255.654 193.788 256.088 193.613 256.545C193.171 257.455 192.48 258.235 192.136 259.197C191.771 260.197 191.784 261.387 191.078 262.175C190.935 262.294 190.828 262.45 190.768 262.626C190.764 262.735 190.751 262.844 190.731 262.952C190.63 263.238 190.162 263.252 190.074 263.543C190.051 263.628 190.074 263.721 190.032 263.808C189.961 263.997 189.714 264.023 189.548 264.137C189.201 264.373 189.283 264.919 189.018 265.259C188.911 265.385 188.772 265.48 188.616 265.535C188.46 265.59 188.292 265.603 188.129 265.572C187.805 265.503 187.492 265.386 187.203 265.224C187.101 265.167 186.988 265.132 186.872 265.121C186.734 265.124 186.6 265.169 186.488 265.251C185.829 265.67 185.519 266.503 185.525 267.287C185.571 268.072 185.757 268.843 186.072 269.563C186.11 269.687 186.172 269.802 186.255 269.902C186.472 270.133 186.853 270.096 187.144 269.966C187.417 269.804 187.708 269.674 188.01 269.578C188.56 269.478 189.1 269.86 189.659 269.828C190.067 269.766 190.452 269.595 190.773 269.335C191.34 268.99 191.848 268.555 192.277 268.048C192.52 267.728 192.7 267.362 192.914 267.02C193.188 266.599 193.489 266.197 193.814 265.816L195.871 263.294C196.077 263.055 196.262 262.799 196.424 262.528C196.609 262.161 196.754 261.775 196.855 261.377C197.076 260.712 197.219 260.024 197.282 259.327C197.292 258.75 197.242 258.173 197.131 257.606C197.062 257.043 196.913 256.492 196.689 255.97C196.231 255.042 195.143 254.273 194.304 255.254Z" fill="#2F2E41"/>
<path d="M201.466 250.574C201.469 249.937 201.321 249.308 201.034 248.74C200.746 248.171 200.329 247.679 199.815 247.304C199.799 246.173 199.383 245.085 198.641 244.232C197.899 243.38 196.879 242.82 195.762 242.651C195.547 241.579 194.96 240.619 194.107 239.938C193.253 239.257 192.188 238.9 191.097 238.93C190.007 238.959 188.962 239.373 188.146 240.099C187.33 240.825 186.797 241.816 186.639 242.897C185.157 242.563 183.802 242.998 183.555 243.913C183.291 244.87 184.349 245.989 185.916 246.413C186.407 246.552 186.919 246.604 187.428 246.565C187.792 247.101 188.264 247.554 188.814 247.897C189.364 248.239 189.979 248.463 190.62 248.553C190.808 249.418 191.233 250.213 191.848 250.849C192.463 251.485 193.243 251.936 194.1 252.152C194.337 252.726 194.705 253.236 195.175 253.642C195.175 253.753 195.156 253.867 195.156 253.984C195.139 254.392 195.205 254.798 195.349 255.18C195.493 255.562 195.712 255.91 195.994 256.205C196.276 256.499 196.614 256.733 196.989 256.894C197.363 257.054 197.766 257.136 198.174 257.136C198.581 257.136 198.984 257.054 199.358 256.894C199.733 256.733 200.071 256.499 200.353 256.205C200.635 255.91 200.855 255.562 200.999 255.18C201.143 254.798 201.208 254.392 201.191 253.984C201.191 253.526 201.093 253.074 200.902 252.658C201.274 252.027 201.469 251.307 201.466 250.574Z" fill="#F86D70"/>
<path opacity="0.1" d="M184.561 244.096C184.807 243.181 186.149 242.746 187.645 243.08C187.819 241.982 188.374 240.981 189.214 240.253C190.053 239.525 191.122 239.118 192.232 239.103C192.335 239.103 192.438 239.103 192.539 239.103C192.11 238.972 191.664 238.905 191.215 238.907C190.105 238.922 189.036 239.329 188.197 240.057C187.358 240.784 186.802 241.786 186.628 242.884C185.146 242.55 183.791 242.985 183.545 243.9C183.28 244.857 184.339 245.976 185.906 246.4C186.197 246.481 186.496 246.533 186.798 246.554C185.31 246.119 184.31 245.032 184.561 244.096Z" fill="black"/>
<path opacity="0.1" d="M196.162 254.17C196.162 254.053 196.162 253.939 196.181 253.825C195.711 253.42 195.343 252.911 195.106 252.337C194.25 252.119 193.47 251.667 192.856 251.031C192.241 250.395 191.815 249.601 191.625 248.736C190.984 248.646 190.369 248.423 189.819 248.08C189.269 247.738 188.797 247.284 188.433 246.748C188.137 246.771 187.839 246.763 187.544 246.724C187.91 247.218 188.37 247.634 188.898 247.948C189.426 248.262 190.011 248.468 190.62 248.553C190.808 249.418 191.233 250.213 191.848 250.849C192.463 251.485 193.243 251.936 194.1 252.152C194.337 252.726 194.705 253.236 195.175 253.642C195.175 253.753 195.156 253.867 195.156 253.984C195.143 254.797 195.451 255.582 196.013 256.168C196.575 256.755 197.346 257.094 198.158 257.113C197.566 256.884 197.057 256.48 196.701 255.954C196.344 255.428 196.156 254.805 196.162 254.17Z" fill="black"/>
<path d="M191.028 249.361C191.27 249.176 191.268 248.765 191.023 248.442C190.778 248.119 190.383 248.007 190.141 248.191C189.899 248.375 189.901 248.786 190.146 249.109C190.391 249.432 190.786 249.545 191.028 249.361Z" fill="#FBBEBE"/>
<path d="M105.806 267.24L109.332 265.163C108.855 264.348 108.246 263.617 107.529 263.002L100.881 265.073L106.089 262.005C104.8 261.298 103.348 260.939 101.878 260.964C100.407 260.989 98.9687 261.397 97.7035 262.148C96.4384 262.899 95.3902 263.967 94.6622 265.247C93.9342 266.527 93.5514 267.975 93.5516 269.449C93.5516 274.134 97.3444 274.296 102.021 274.296C106.698 274.296 110.491 274.134 110.491 269.449C110.494 268.261 110.246 267.086 109.763 266.001L105.806 267.24Z" fill="#CA0000"/>
<path opacity="0.1" d="M106.703 271.795C106.328 271.418 105.909 271.088 105.454 270.811C104.816 270.385 104.152 269.95 103.398 269.806C102.736 269.679 102.053 269.788 101.378 269.748C100.206 269.676 99.103 269.17 98.284 268.327C97.8023 267.828 97.4238 267.216 96.8442 266.834C96.1963 266.448 95.4319 266.308 94.6897 266.439C94.4746 266.469 94.2616 266.512 94.0518 266.569C93.7201 267.492 93.5508 268.467 93.5516 269.448C93.5516 274.134 97.3444 274.296 102.021 274.296C104.292 274.296 106.351 274.259 107.873 273.683L107.609 273.209C107.368 272.701 107.064 272.226 106.703 271.795Z" fill="black"/>
</g>
<defs>
<filter id="filter0_d_1_292" x="0.768921" y="0" width="346.49" height="406" filterUnits="userSpaceOnUse" color-interpolation-filters="sRGB">
<feFlood flood-opacity="0" result="BackgroundImageFix"/>
<feColorMatrix in="SourceAlpha" type="matrix" values="0 0 0 0 0 0 0 0 0 0 0 0 0 0 0 0 0 0 127 0" result="hardAlpha"/>
<feOffset dy="4"/>
<feGaussianBlur stdDeviation="5"/>
<feComposite in2="hardAlpha" operator="out"/>
<feColorMatrix type="matrix" values="0 0 0 0 0 0 0 0 0 0 0 0 0 0 0 0 0 0 0.16 0"/>
<feBlend mode="normal" in2="BackgroundImageFix" result="effect1_dropShadow_1_292"/>
<feBlend mode="normal" in="SourceGraphic" in2="effect1_dropShadow_1_292" result="shape"/>
</filter>
<linearGradient id="paint0_linear_1_292" x1="172.955" y1="280.612" x2="172.955" y2="238.281" gradientUnits="userSpaceOnUse">
<stop stop-color="#808080" stop-opacity="0.25"/>
<stop offset="0.54" stop-color="#808080" stop-opacity="0.12"/>
<stop offset="1" stop-color="#808080" stop-opacity="0.1"/>
</linearGradient>
<clipPath id="clip0_1_292">
<rect width="302.527" height="176" fill="white" transform="translate(22.7502 111)"/>
</clipPath>
</defs>
</svg>
