<svg width="348" height="406" viewBox="0 0 348 406" fill="none" xmlns="http://www.w3.org/2000/svg">
<g filter="url(#filter0_d_1_116)">
<rect x="10.7445" y="6" width="326.49" height="386" rx="26" fill="white"/>
</g>
<path d="M112.728 241.508C111.688 249.648 107.864 257.096 103.784 264.271C103.649 264.515 103.51 264.756 103.368 265H60.963C60.1054 264.777 59.2588 264.533 58.4158 264.271C53.6263 262.814 49.1046 260.592 45.0265 257.691C29.4258 246.462 23.4226 225.245 26.1341 206.234C27.8201 194.422 33.0093 182.363 43.1142 176.001C48.4495 172.636 55.3029 171.543 61.4447 172.793C61.6054 172.822 61.7659 172.859 61.93 172.892C67.2142 174.08 71.9218 177.033 74.6005 181.79C79.4175 190.339 76.5492 200.929 74.1809 210.444C71.8197 219.959 70.5387 231.348 77.3922 238.366C75.1295 231.712 77.363 223.776 82.7676 219.277C86.8511 215.883 92.5368 214.611 97.7224 215.665C98.2187 215.77 98.7078 215.891 99.1895 216.037C100.354 216.377 101.476 216.847 102.536 217.436C110.619 221.946 113.892 232.332 112.728 241.508Z" fill="#F2F2F2"/>
<path d="M87.5854 264.271C88.7604 264.544 89.9391 264.785 91.1251 265H84.7133C83.8739 264.774 83.0382 264.533 82.21 264.271C80.3889 263.702 78.5958 263.05 76.8308 262.313C69.7512 259.346 63.2299 254.891 58.296 248.963C55.883 246.091 53.9126 242.876 52.4498 239.423C50.8637 235.52 49.8556 231.407 49.4575 227.214C48.5634 218.611 49.4757 209.77 51.1799 201.32C52.9386 192.561 55.7775 184.055 59.6317 175.994C60.0952 175.028 60.5745 174.068 61.0695 173.114C61.1036 173.036 61.1551 172.966 61.2203 172.91C61.2854 172.855 61.3624 172.815 61.4453 172.793C61.6138 172.761 61.7883 172.796 61.9307 172.892C62.1016 172.99 62.2283 173.149 62.2847 173.338C62.3411 173.527 62.3228 173.73 62.2336 173.905C58.2598 181.647 55.2475 189.844 53.2636 198.316C51.3223 206.58 50.2202 215.227 50.596 223.725C50.9536 231.665 53.0302 239.474 57.7413 245.967C62.0439 251.894 67.9848 256.568 74.5573 259.75C78.7173 261.739 83.0873 263.255 87.5854 264.271Z" fill="white"/>
<path d="M101.656 265H99.7654C99.5537 264.759 99.3493 264.515 99.1487 264.271C94.8429 259.045 91.9259 252.818 90.6676 246.167C89.1395 237.867 90.3283 229.296 94.0578 221.724C95.0984 219.6 96.3244 217.573 97.7217 215.665C98.218 215.771 98.7071 215.891 99.1888 216.037C95.5134 220.901 93.0413 226.565 91.9741 232.566C91.0221 238.188 91.3386 243.953 92.9006 249.438C94.4625 254.923 97.2305 259.99 101.003 264.271C101.214 264.515 101.433 264.759 101.656 265Z" fill="white"/>
<path d="M271.947 258.8C272.222 260.949 273.231 262.914 274.308 264.808C274.344 264.872 274.38 264.936 274.418 265H285.609C285.835 264.941 286.059 264.877 286.281 264.808C287.545 264.423 288.739 263.837 289.815 263.071C293.932 260.108 295.517 254.508 294.801 249.491C294.356 246.373 292.987 243.191 290.32 241.512C288.872 240.631 287.144 240.328 285.482 240.665C285.44 240.673 285.397 240.682 285.354 240.691C284.662 240.825 284.007 241.103 283.43 241.508C282.854 241.912 282.37 242.435 282.01 243.04C280.739 245.296 281.496 248.091 282.121 250.602C282.744 253.113 283.082 256.119 281.273 257.971C281.538 257.196 281.592 256.365 281.429 255.563C281.266 254.761 280.892 254.016 280.346 253.406C279.8 252.796 279.1 252.342 278.32 252.092C277.54 251.841 276.708 251.802 275.908 251.98C275.777 252.008 275.648 252.039 275.52 252.078C275.213 252.168 274.917 252.292 274.637 252.447C272.504 253.637 271.64 256.378 271.947 258.8Z" fill="#F2F2F2"/>
<path d="M278.584 264.808C278.274 264.88 277.963 264.943 277.65 265H279.342C279.563 264.94 279.784 264.877 280.002 264.808C280.483 264.658 280.956 264.485 281.422 264.291C283.311 263.525 284.989 262.316 286.314 260.768C286.951 260.01 287.471 259.161 287.857 258.25C288.275 257.22 288.541 256.134 288.646 255.028C288.838 252.74 288.685 250.436 288.192 248.194C287.728 245.882 286.978 243.637 285.961 241.51C285.839 241.255 285.712 241.001 285.582 240.75C285.573 240.729 285.559 240.711 285.542 240.696C285.525 240.681 285.504 240.671 285.483 240.665C285.438 240.656 285.392 240.666 285.354 240.691C285.309 240.717 285.276 240.759 285.261 240.809C285.246 240.859 285.251 240.912 285.275 240.958C286.323 243.002 287.118 245.165 287.642 247.401C288.181 249.594 288.418 251.85 288.346 254.107C288.307 256.206 287.652 258.247 286.46 259.977C285.301 261.534 283.777 262.784 282.022 263.615C280.924 264.139 279.771 264.54 278.584 264.808Z" fill="white"/>
<path d="M274.869 265H275.368C275.423 264.936 275.477 264.872 275.53 264.808C276.667 263.428 277.437 261.785 277.769 260.03C278.172 257.839 277.858 255.577 276.874 253.579C276.599 253.018 276.276 252.483 275.907 251.979C275.776 252.007 275.647 252.039 275.52 252.078C276.49 253.361 277.142 254.856 277.424 256.44C277.675 257.924 277.592 259.445 277.179 260.893C276.767 262.34 276.037 263.678 275.041 264.808C274.985 264.872 274.927 264.936 274.869 265Z" fill="white"/>
<path d="M171.074 209.471H136.047L135.676 198.712C135.66 198.246 135.745 197.782 135.926 197.352C136.107 196.921 136.379 196.535 136.723 196.22C137.068 195.905 137.476 195.668 137.921 195.525C138.366 195.383 138.837 195.339 139.3 195.396L159.683 197.889H159.686C162.708 197.897 165.603 199.101 167.737 201.238C169.872 203.375 171.072 206.27 171.074 209.288V209.471Z" fill="#CA0000"/>
<path d="M155.461 171.31H131.032C130.707 171.309 130.386 171.373 130.085 171.498C129.785 171.622 129.512 171.804 129.283 172.033C129.053 172.263 128.871 172.535 128.746 172.835C128.622 173.135 128.558 173.456 128.558 173.781V198.185C128.558 198.509 128.622 198.831 128.746 199.131C128.871 199.431 129.053 199.703 129.283 199.933C129.512 200.162 129.785 200.344 130.085 200.468C130.386 200.592 130.707 200.656 131.032 200.656H155.461C155.786 200.656 156.108 200.592 156.408 200.468C156.708 200.344 156.981 200.162 157.211 199.933C157.441 199.703 157.623 199.431 157.747 199.131C157.871 198.831 157.935 198.509 157.935 198.185V173.781C157.935 173.456 157.871 173.135 157.747 172.835C157.623 172.535 157.441 172.263 157.211 172.033C156.981 171.804 156.708 171.622 156.408 171.498C156.108 171.373 155.786 171.309 155.461 171.31Z" fill="#CCCCCC"/>
<path d="M149.96 189.558L138.426 191.802C137.741 191.934 137.033 191.79 136.455 191.401C135.877 191.012 135.477 190.409 135.343 189.726L134.457 185.178C134.324 184.495 134.469 183.787 134.858 183.209C135.247 182.632 135.85 182.233 136.534 182.099L148.068 179.855C148.752 179.723 149.461 179.867 150.039 180.256C150.617 180.645 151.017 181.247 151.151 181.93L152.037 186.479C152.17 187.162 152.025 187.87 151.636 188.447C151.246 189.025 150.644 189.424 149.96 189.558Z" fill="#3F3D56"/>
<path d="M147.653 184.185L138.85 185.897C138.689 185.928 138.523 185.895 138.387 185.803C138.251 185.711 138.157 185.57 138.125 185.409C138.094 185.248 138.128 185.081 138.219 184.945C138.311 184.809 138.453 184.716 138.614 184.684L147.416 182.972C147.577 182.941 147.744 182.974 147.88 183.066C148.016 183.158 148.11 183.299 148.142 183.46C148.173 183.621 148.139 183.788 148.047 183.924C147.956 184.059 147.814 184.153 147.653 184.185Z" fill="white"/>
<path d="M145.942 186.721L141.389 187.606C141.228 187.638 141.062 187.604 140.926 187.512C140.79 187.421 140.696 187.279 140.664 187.118C140.633 186.957 140.667 186.79 140.758 186.655C140.85 186.519 140.992 186.425 141.153 186.393L145.706 185.508C145.786 185.492 145.868 185.493 145.947 185.509C146.027 185.525 146.102 185.556 146.17 185.602C146.237 185.647 146.295 185.705 146.34 185.773C146.385 185.841 146.416 185.916 146.431 185.996C146.447 186.076 146.446 186.158 146.43 186.237C146.414 186.317 146.382 186.392 146.337 186.459C146.292 186.527 146.233 186.584 146.166 186.629C146.098 186.674 146.022 186.705 145.942 186.721Z" fill="white"/>
<path d="M157.935 173.781V177.024H128.558V173.781C128.558 173.456 128.622 173.135 128.746 172.835C128.871 172.535 129.053 172.263 129.283 172.033C129.512 171.804 129.785 171.622 130.085 171.498C130.386 171.373 130.707 171.309 131.032 171.31H155.461C155.786 171.309 156.108 171.373 156.408 171.498C156.708 171.622 156.981 171.804 157.211 172.033C157.441 172.263 157.623 172.535 157.747 172.835C157.871 173.135 157.935 173.456 157.935 173.781Z" fill="#B3B3B3"/>
<path d="M216.598 178.04C216.429 177.493 216.141 176.99 215.756 176.566C215.371 176.142 214.897 175.808 214.368 175.587C213.84 175.366 213.269 175.263 212.696 175.286C212.124 175.309 211.563 175.457 211.054 175.72L177.445 163.674L175.965 172.061L209.467 181.265C209.965 182.09 210.75 182.704 211.671 182.99C212.593 183.276 213.587 183.214 214.466 182.817C215.345 182.419 216.048 181.713 216.441 180.833C216.834 179.953 216.89 178.959 216.598 178.04Z" fill="#FFB8B8"/>
<path opacity="0.2" d="M216.598 178.04C216.429 177.493 216.141 176.99 215.756 176.566C215.371 176.142 214.897 175.808 214.368 175.587C213.84 175.366 213.269 175.263 212.696 175.286C212.124 175.309 211.563 175.457 211.054 175.72L177.445 163.674L175.965 172.061L209.467 181.265C209.965 182.09 210.75 182.704 211.671 182.99C212.593 183.276 213.587 183.214 214.466 182.817C215.345 182.419 216.048 181.713 216.441 180.833C216.834 179.953 216.89 178.959 216.598 178.04Z" fill="black"/>
<path d="M183.412 165.202L180.238 173.485C180.148 173.721 180.008 173.934 179.827 174.111C179.647 174.288 179.43 174.423 179.193 174.509C178.955 174.595 178.702 174.628 178.45 174.607C178.199 174.586 177.954 174.511 177.734 174.388L170.021 170.051C168.817 169.582 167.847 168.656 167.326 167.475C166.804 166.294 166.773 164.954 167.238 163.75C167.704 162.545 168.628 161.575 169.809 161.05C170.99 160.526 172.331 160.49 173.538 160.952L182.151 162.86C182.398 162.915 182.63 163.022 182.831 163.175C183.032 163.327 183.199 163.521 183.318 163.743C183.438 163.965 183.508 164.211 183.524 164.462C183.54 164.714 183.502 164.967 183.412 165.202Z" fill="#CA0000"/>
<path d="M219.244 185.709L207.201 191.178L208.782 197.124C211.835 208.607 212.646 220.569 211.169 232.358L219.974 234.195L227.272 215.603L224.718 194.459L219.244 185.709Z" fill="#CA0000"/>
<path d="M242.873 213.233C234.96 213.233 228.512 218.98 228.199 226.175H257.546C257.233 218.979 250.785 213.233 242.873 213.233Z" fill="#3F3D56"/>
<path d="M236.714 214.473C236.302 181.992 217.785 184.98 217.785 184.98C217.785 184.98 218.131 195.091 218.297 195.405C230.098 217.708 210.623 243.856 185.833 239.045C185.366 238.955 184.917 238.863 184.486 238.769C181.345 238.114 178.572 236.289 176.73 233.664C174.889 231.038 174.118 227.811 174.573 224.638C177.015 205.049 164.87 205.395 164.87 205.395H147.11L137.887 197.103C137.561 196.811 137.169 196.602 136.744 196.496C136.319 196.39 135.875 196.389 135.449 196.494C135.024 196.599 134.631 196.807 134.305 197.099C133.979 197.39 133.729 197.758 133.577 198.168L132.391 201.385C132.391 201.385 114.874 203.208 116.334 220.342H121.749C121.736 220.829 121.756 221.316 121.808 221.8L162.224 221.472C164.593 221.453 166.685 223.371 166.694 225.737C166.697 226.313 166.583 226.884 166.359 227.415C166.136 227.947 165.807 228.427 165.394 228.829C164.98 229.23 164.489 229.544 163.951 229.752C163.413 229.96 162.839 230.057 162.262 230.038L155.746 229.821C153.739 238.752 158.666 244.767 164.094 248.55C169.205 252.059 175.27 253.92 181.471 253.881H199.173C222.164 253.881 226.178 234.56 226.178 234.56C238.221 229.456 236.714 214.473 236.714 214.473Z" fill="#3F3D56"/>
<path d="M241.779 264.453C253.116 264.453 262.306 255.272 262.306 243.947C262.306 232.622 253.116 223.441 241.779 223.441C230.442 223.441 221.251 232.622 221.251 243.947C221.251 255.272 230.442 264.453 241.779 264.453Z" fill="#3F3D56"/>
<path d="M241.778 248.973C244.556 248.973 246.809 246.723 246.809 243.947C246.809 241.171 244.556 238.921 241.778 238.921C238.999 238.921 236.747 241.171 236.747 243.947C236.747 246.723 238.999 248.973 241.778 248.973Z" fill="white"/>
<path d="M138.139 264.453C151.189 264.453 161.768 253.885 161.768 240.848C161.768 227.812 151.189 217.243 138.139 217.243C125.089 217.243 114.51 227.812 114.51 240.848C114.51 253.885 125.089 264.453 138.139 264.453Z" fill="#3F3D56"/>
<path d="M138.139 246.634C141.337 246.634 143.93 244.044 143.93 240.848C143.93 237.653 141.337 235.063 138.139 235.063C134.94 235.063 132.347 237.653 132.347 240.848C132.347 244.044 134.94 246.634 138.139 246.634Z" fill="white"/>
<path d="M207.236 192.793L202.903 181.037C202.678 180.424 202.575 179.773 202.601 179.12C202.627 178.468 202.781 177.827 203.056 177.234C203.33 176.642 203.718 176.109 204.198 175.666C204.678 175.223 205.241 174.879 205.855 174.653L218.277 170.085C219.356 169.688 220.503 169.507 221.652 169.553C222.801 169.599 223.93 169.87 224.974 170.352C226.018 170.833 226.957 171.516 227.737 172.36C228.518 173.204 229.124 174.193 229.521 175.271C229.879 176.239 230.062 177.263 230.061 178.294C230.057 179.604 229.76 180.897 229.193 182.078C228.625 183.259 227.802 184.299 226.782 185.123C226.045 185.713 225.216 186.18 224.329 186.504L207.236 192.793Z" fill="#3F3D56"/>
<path d="M229.877 178.294C229.876 179.578 229.587 180.845 229.032 182.002C228.476 183.159 227.667 184.177 226.666 184.98C225.129 184.575 223.7 183.841 222.476 182.828C221.252 181.816 220.264 180.549 219.58 179.116C218.895 177.683 218.532 176.119 218.514 174.531C218.496 172.944 218.825 171.372 219.477 169.924C220.729 169.652 222.025 169.664 223.272 169.958C224.519 170.252 225.683 170.822 226.681 171.625C227.678 172.427 228.483 173.443 229.036 174.597C229.59 175.751 229.877 177.015 229.877 178.294Z" fill="#CA0000"/>
<path d="M119.436 222.712C122.257 222.712 124.545 219.937 124.545 216.514C124.545 213.092 122.257 210.317 119.436 210.317C116.614 210.317 114.327 213.092 114.327 216.514C114.327 219.937 116.614 222.712 119.436 222.712Z" fill="#CA0000"/>
<path d="M186.97 238.452H191.444L193.572 226.86L186.969 226.86L186.97 238.452Z" fill="#FFB8B8"/>
<path d="M185.828 236.993L194.639 236.992H194.639C195.377 236.992 196.107 237.137 196.788 237.419C197.469 237.701 198.088 238.114 198.61 238.635C199.131 239.156 199.545 239.774 199.827 240.455C200.109 241.135 200.254 241.865 200.254 242.601V242.784L185.829 242.784L185.828 236.993Z" fill="#2F2E41"/>
<path d="M192.163 233.694C192.111 233.694 192.058 233.692 192.006 233.687L185.814 233.236C185.564 233.213 185.322 233.133 185.108 233.001C184.893 232.87 184.712 232.691 184.578 232.479C184.443 232.267 184.359 232.026 184.333 231.777C184.306 231.527 184.337 231.274 184.424 231.038L192.71 212.441C192.769 212.275 192.794 212.099 192.781 211.923C192.769 211.747 192.72 211.576 192.639 211.42C192.557 211.263 192.443 211.124 192.304 211.013C192.165 210.903 192.004 210.823 191.832 210.779C187.935 209.761 177.938 207.052 169.284 203.882C165.576 202.524 163.241 200.561 162.343 198.049C161.16 194.736 162.911 191.715 162.986 191.588L163.045 191.489L171.188 192.228L180.016 192.978L199.362 203.342C200.983 204.218 202.215 205.671 202.811 207.413C203.407 209.155 203.325 211.057 202.58 212.742L193.661 232.722C193.532 233.011 193.322 233.257 193.056 233.43C192.79 233.602 192.48 233.694 192.163 233.694Z" fill="#2F2E41"/>
<path d="M172.605 155.434C177.555 155.434 181.568 151.425 181.568 146.48C181.568 141.535 177.555 137.526 172.605 137.526C167.655 137.526 163.642 141.535 163.642 146.48C163.642 151.425 167.655 155.434 172.605 155.434Z" fill="#FFB8B8"/>
<path d="M184.415 239.545H188.889L191.018 227.954L184.414 227.954L184.415 239.545Z" fill="#FFB8B8"/>
<path d="M183.274 238.086L192.084 238.086H192.085C192.822 238.086 193.552 238.231 194.234 238.513C194.915 238.795 195.534 239.208 196.055 239.729C196.577 240.25 196.99 240.868 197.272 241.549C197.555 242.229 197.7 242.958 197.7 243.695V243.877L183.274 243.878L183.274 238.086Z" fill="#2F2E41"/>
<path d="M189.608 234.788C189.556 234.788 189.504 234.785 189.451 234.78L183.259 234.33C183.009 234.307 182.767 234.226 182.553 234.095C182.339 233.964 182.157 233.785 182.023 233.573C181.889 233.36 181.805 233.12 181.778 232.87C181.752 232.62 181.783 232.368 181.869 232.132L190.156 213.534C190.215 213.368 190.239 213.192 190.227 213.017C190.214 212.841 190.166 212.67 190.084 212.514C190.002 212.356 189.888 212.217 189.749 212.107C189.61 211.996 189.449 211.916 189.277 211.872C185.381 210.855 175.383 208.146 166.729 204.976C163.022 203.618 160.687 201.655 159.789 199.142C158.605 195.829 160.356 192.808 160.431 192.682L160.49 192.582L168.633 193.322L177.461 194.072L196.808 204.435C198.429 205.311 199.66 206.765 200.256 208.507C200.853 210.249 200.77 212.151 200.026 213.835L191.107 233.815C190.977 234.105 190.767 234.351 190.501 234.523C190.235 234.696 189.925 234.788 189.608 234.788Z" fill="#2F2E41"/>
<path d="M175.368 160.511L165.88 157.23C165.88 157.23 159.923 161.802 162.785 173.142C164.279 178.995 163.844 185.172 161.544 190.758C161.267 191.449 160.948 192.122 160.588 192.774C160.588 192.774 171.171 205.534 181.024 196.055L177.193 177.645C177.193 177.645 183.214 165.433 175.368 160.511Z" fill="#CA0000"/>
<path d="M173.717 155.739C172.441 153.831 171.435 151.186 172.839 149.371C174.226 147.58 176.96 147.844 179.083 147.051C182.041 145.947 183.756 142.476 183.221 139.368C182.686 136.259 180.188 133.683 177.213 132.628C174.237 131.574 170.882 131.917 167.968 133.131C164.381 134.626 161.304 137.517 160.014 141.179C158.723 144.841 159.413 149.239 162.09 152.054C164.96 155.072 169.463 155.876 173.63 155.827" fill="#2F2E41"/>
<path d="M165.379 139.467C163.772 140.775 161.319 140.194 159.594 139.047C157.868 137.899 156.468 136.266 154.601 135.366C151.31 133.781 147.33 134.835 144.127 136.591C140.924 138.348 138.084 140.775 134.7 142.153C131.317 143.531 126.999 143.6 124.437 140.997C123.806 142.822 123.755 144.796 124.289 146.652C124.824 148.507 125.918 150.152 127.423 151.363C128.928 152.574 130.771 153.292 132.699 153.418C134.628 153.544 136.548 153.073 138.198 152.069C141.906 149.813 143.954 145.083 148.112 143.837C150.413 143.148 152.884 143.703 155.21 144.304C157.535 144.906 159.96 145.555 162.307 145.043C164.654 144.532 166.85 142.425 166.551 140.044L165.379 139.467Z" fill="#2F2E41"/>
<path d="M216.153 177.675C215.917 177.154 215.569 176.69 215.135 176.317C214.7 175.944 214.189 175.67 213.637 175.516C213.085 175.361 212.506 175.33 211.94 175.423C211.375 175.517 210.837 175.733 210.364 176.056L175.524 168.245L175.091 176.751L209.474 181.754C210.07 182.512 210.925 183.024 211.874 183.195C212.824 183.365 213.803 183.181 214.627 182.678C215.45 182.176 216.06 181.389 216.341 180.467C216.622 179.544 216.555 178.551 216.153 177.675Z" fill="#FFB8B8"/>
<path d="M181.633 169.026L179.507 177.637C179.446 177.882 179.333 178.111 179.176 178.309C179.019 178.506 178.821 178.668 178.596 178.782C178.371 178.896 178.124 178.961 177.871 178.971C177.619 178.981 177.367 178.937 177.133 178.841L168.944 175.488C167.69 175.173 166.613 174.373 165.948 173.265C165.284 172.157 165.087 170.831 165.4 169.577C165.714 168.324 166.512 167.247 167.62 166.581C168.728 165.915 170.055 165.715 171.31 166.025L180.093 166.858C180.344 166.882 180.588 166.959 180.806 167.086C181.025 167.212 181.214 167.384 181.36 167.59C181.506 167.795 181.606 168.03 181.653 168.278C181.7 168.526 181.694 168.781 181.633 169.026Z" fill="#CA0000"/>
<path d="M212.129 184.434C213.54 184.434 214.683 183.291 214.683 181.882C214.683 180.472 213.54 179.33 212.129 179.33C210.718 179.33 209.574 180.472 209.574 181.882C209.574 183.291 210.718 184.434 212.129 184.434Z" fill="#CA0000"/>
<path d="M325.253 264.636C325.253 264.732 325.214 264.825 325.146 264.893C325.077 264.961 324.985 265 324.888 265H23.0907C22.9939 265 22.9011 264.962 22.8327 264.893C22.7642 264.825 22.7258 264.732 22.7258 264.636C22.7258 264.539 22.7642 264.446 22.8327 264.378C22.9011 264.309 22.9939 264.271 23.0907 264.271H324.888C324.985 264.271 325.077 264.31 325.146 264.378C325.214 264.446 325.253 264.539 325.253 264.636Z" fill="#3F3D56"/>
<defs>
<filter id="filter0_d_1_116" x="0.744507" y="0" width="346.49" height="406" filterUnits="userSpaceOnUse" color-interpolation-filters="sRGB">
<feFlood flood-opacity="0" result="BackgroundImageFix"/>
<feColorMatrix in="SourceAlpha" type="matrix" values="0 0 0 0 0 0 0 0 0 0 0 0 0 0 0 0 0 0 127 0" result="hardAlpha"/>
<feOffset dy="4"/>
<feGaussianBlur stdDeviation="5"/>
<feComposite in2="hardAlpha" operator="out"/>
<feColorMatrix type="matrix" values="0 0 0 0 0 0 0 0 0 0 0 0 0 0 0 0 0 0 0.1 0"/>
<feBlend mode="normal" in2="BackgroundImageFix" result="effect1_dropShadow_1_116"/>
<feBlend mode="normal" in="SourceGraphic" in2="effect1_dropShadow_1_116" result="shape"/>
</filter>
</defs>
</svg>
