<svg width="347" height="406" viewBox="0 0 347 406" fill="none" xmlns="http://www.w3.org/2000/svg">
<g filter="url(#filter0_d_1_157)">
<rect x="10.0873" y="6" width="326.49" height="386" rx="26" fill="white"/>
<g clip-path="url(#clip0_1_157)">
<path d="M71.6313 190.661V142.042C71.6313 141.347 71.906 140.682 72.3948 140.191C72.8837 139.7 73.5468 139.424 74.2382 139.424C74.9295 139.424 75.5926 139.7 76.0815 140.191C76.5704 140.682 76.845 141.347 76.845 142.042V190.661C76.845 191.355 76.5704 192.021 76.0815 192.512C75.5926 193.003 74.9295 193.279 74.2382 193.279C73.5468 193.279 72.8837 193.003 72.3948 192.512C71.906 192.021 71.6313 191.355 71.6313 190.661Z" fill="#F0F0F0"/>
<path d="M65.3935 190.661V142.042C65.3935 141.347 65.6681 140.682 66.157 140.191C66.6459 139.7 67.309 139.424 68.0003 139.424C68.6917 139.424 69.3548 139.7 69.8437 140.191C70.3325 140.682 70.6072 141.347 70.6072 142.042V190.661C70.6072 191.355 70.3325 192.021 69.8437 192.512C69.3548 193.003 68.6917 193.279 68.0003 193.279C67.309 193.279 66.6459 193.003 66.157 192.512C65.6681 192.021 65.3935 191.355 65.3935 190.661Z" fill="#F0F0F0"/>
<path d="M59.1557 190.661V142.042C59.1557 141.347 59.4303 140.682 59.9192 140.191C60.4081 139.7 61.0711 139.424 61.7625 139.424C62.4539 139.424 63.117 139.7 63.6058 140.191C64.0947 140.682 64.3694 141.347 64.3694 142.042V190.661C64.3694 191.355 64.0947 192.021 63.6058 192.512C63.117 193.003 62.4539 193.279 61.7625 193.279C61.0711 193.279 60.4081 193.003 59.9192 192.512C59.4303 192.021 59.1557 191.355 59.1557 190.661Z" fill="#F0F0F0"/>
<path d="M294.667 268.315C293.618 268.316 292.576 268.134 291.587 267.778L291.435 267.723L291.505 267.384C289.735 263.794 290.354 258.875 293.089 254.83C295.575 251.154 299.356 248.48 302.692 246.122C303.115 245.823 303.618 245.658 304.135 245.648C304.653 245.638 305.162 245.784 305.596 246.066C306.03 246.349 306.371 246.756 306.573 247.234C306.775 247.713 306.831 248.241 306.732 248.751L305.539 254.897C304.678 259.331 303.654 263.527 300.617 266.144C298.948 267.546 296.843 268.314 294.667 268.315Z" fill="#E6E6E6"/>
<path d="M302.479 278.935C301.324 278.928 300.188 278.632 299.176 278.072C298.164 277.513 297.307 276.708 296.683 275.732L296.597 275.597L296.803 275.414C297.336 272.49 299.847 269.885 303.217 268.764C306.28 267.746 309.661 267.913 312.643 268.059C313.037 268.078 313.416 268.215 313.733 268.451C314.05 268.687 314.29 269.012 314.422 269.385C314.555 269.758 314.574 270.162 314.478 270.546C314.381 270.931 314.173 271.277 313.881 271.543L310.526 274.584C308.088 276.793 305.657 278.788 302.724 278.93C302.642 278.934 302.561 278.935 302.479 278.935Z" fill="#E6E6E6"/>
<path d="M292.069 282.186C291.573 278.481 291.064 274.729 291.411 270.985C291.72 267.66 292.708 264.412 294.72 261.749C295.783 260.343 297.082 259.134 298.559 258.177C298.943 257.928 299.297 258.553 298.915 258.8C296.353 260.47 294.384 262.91 293.287 265.772C292.061 268.971 291.865 272.459 292.076 275.857C292.204 277.913 292.474 279.955 292.747 281.994C292.769 282.085 292.756 282.182 292.71 282.264C292.665 282.346 292.59 282.408 292.501 282.438C292.456 282.45 292.409 282.453 292.363 282.447C292.317 282.441 292.273 282.426 292.233 282.402C292.192 282.379 292.157 282.348 292.129 282.31C292.101 282.273 292.08 282.231 292.069 282.186Z" fill="#F2F2F2"/>
<path d="M290.669 284.315C293.053 279.984 295.819 275.17 300.76 273.632C302.132 273.206 303.574 273.053 305.005 273.182C305.456 273.222 305.343 273.935 304.893 273.895C302.49 273.692 300.093 274.344 298.119 275.735C296.209 277.07 294.722 278.925 293.463 280.893C292.692 282.098 292.002 283.355 291.311 284.61C291.09 285.011 290.445 284.721 290.669 284.315Z" fill="#F2F2F2"/>
<path d="M289.596 284.252L292.003 284.307L277.487 206.428L275.079 206.884L278.87 227.087H266.657L270.448 206.884L268.04 206.428L253.645 284.307L255.931 284.252L263.5 243.916H282.027L289.596 284.252ZM264.061 240.924L266.096 230.079H279.431L281.466 240.924H264.061Z" fill="#CACACA"/>
<path d="M184.471 191.901V166.326C184.471 165.566 185.64 164.948 187.077 164.948C188.515 164.948 189.684 165.566 189.684 166.326V191.901C189.684 192.661 188.515 193.278 187.077 193.278C185.64 193.278 184.471 192.661 184.471 191.901Z" fill="#F0F0F0"/>
<path d="M178.233 191.901V166.326C178.233 165.566 179.402 164.948 180.84 164.948C182.277 164.948 183.446 165.566 183.446 166.326V191.901C183.446 192.661 182.277 193.278 180.84 193.278C179.402 193.278 178.233 192.661 178.233 191.901Z" fill="#F0F0F0"/>
<path d="M171.995 191.901V166.326C171.995 165.566 173.164 164.948 174.602 164.948C176.039 164.948 177.209 165.566 177.209 166.326V191.901C177.209 192.661 176.039 193.278 174.602 193.278C173.164 193.278 171.995 192.661 171.995 191.901Z" fill="#F0F0F0"/>
<path d="M224.472 173.093C224.461 173.015 224.433 172.941 224.391 172.874C224.349 172.808 224.293 172.752 224.228 172.708L204.575 159.679C204.871 159.555 205.119 159.337 205.28 159.058C205.477 158.714 205.53 158.307 205.427 157.924C205.325 157.541 205.076 157.214 204.735 157.015L203.123 156.08C202.78 155.883 202.374 155.83 201.993 155.932C201.611 156.035 201.286 156.285 201.088 156.627C200.981 156.816 200.916 157.026 200.899 157.242L186.713 147.837C186.236 146.678 185.514 145.637 184.596 144.787C183.678 143.938 182.587 143.299 181.398 142.916V138.769H176.185V142.916C174.455 143.472 172.945 144.565 171.874 146.038C170.803 147.511 170.226 149.287 170.226 151.111V152.233H175.44C175.44 153.126 175.793 153.982 176.421 154.613C177.05 155.244 177.902 155.599 178.791 155.599C179.68 155.599 180.533 155.244 181.161 154.613C181.79 153.982 182.143 153.126 182.143 152.233H187.357V151.111C187.356 150.573 187.306 150.037 187.206 149.508L223.095 173.301L208.187 191.504C208.071 191.503 207.956 191.502 207.839 191.502C206.65 191.502 205.497 191.53 204.399 191.579C204.465 191.394 204.494 191.198 204.484 191.002C204.462 190.606 204.286 190.235 203.992 189.969C203.699 189.704 203.313 189.566 202.919 189.586L201.06 189.683C200.665 189.705 200.296 189.882 200.032 190.177C199.767 190.471 199.63 190.859 199.649 191.255C199.663 191.488 199.732 191.716 199.851 191.917C196.563 192.268 194.432 192.752 194.432 192.998C194.432 193.401 200.154 193.017 207.315 192.999C207.348 193.092 207.405 193.176 207.48 193.24C207.555 193.304 207.646 193.346 207.744 193.364C207.841 193.381 207.941 193.372 208.033 193.337C208.126 193.303 208.208 193.244 208.27 193.167L208.408 192.999C215.548 193.019 221.246 193.4 221.246 192.998C221.246 192.619 216.18 191.675 209.617 191.523L224.352 173.533C224.401 173.472 224.438 173.401 224.458 173.326C224.479 173.25 224.484 173.171 224.472 173.093Z" fill="#CCCCCC"/>
<path d="M225.01 284.439H179.123C178.196 284.438 177.307 284.068 176.651 283.409C175.996 282.751 175.627 281.858 175.626 280.926V205.299C175.625 204.467 175.295 203.67 174.709 203.081C174.124 202.493 173.329 202.162 172.501 202.161H65.1671C64.3386 202.162 63.5442 202.493 62.9583 203.081C62.3724 203.67 62.0428 204.467 62.0418 205.299V280.926C62.0408 281.858 61.672 282.751 61.0163 283.409C60.3605 284.068 59.4715 284.438 58.5442 284.439H56.9742C56.0468 284.438 55.1578 284.068 54.5021 283.409C53.8464 282.751 53.4776 281.858 53.4765 280.926V201.226C53.479 198.995 54.3626 196.856 55.9334 195.279C57.5043 193.701 59.6341 192.814 61.8557 192.811H220.129C222.35 192.814 224.48 193.701 226.051 195.279C227.622 196.856 228.505 198.995 228.508 201.226V280.926C228.507 281.858 228.138 282.751 227.482 283.409C226.826 284.068 225.937 284.438 225.01 284.439Z" fill="#E4E4E4"/>
<path d="M228.321 212.446H175.812V214.69H228.321V212.446Z" fill="white"/>
<path d="M228.321 242.739H175.812V244.983H228.321V242.739Z" fill="white"/>
<path d="M132.346 192.442L130.837 191.804L129.802 184.206H116.015L114.893 191.773L113.543 192.451C113.478 192.483 113.426 192.536 113.396 192.602C113.365 192.668 113.358 192.742 113.374 192.813C113.391 192.883 113.431 192.946 113.487 192.991C113.544 193.036 113.614 193.061 113.686 193.061H132.222C132.296 193.061 132.368 193.035 132.425 192.988C132.482 192.941 132.521 192.875 132.536 192.802C132.551 192.729 132.54 192.654 132.505 192.588C132.471 192.522 132.414 192.471 132.346 192.442Z" fill="#E6E6E6"/>
<path d="M156.846 185.217H89.1223C88.767 185.216 88.4265 185.074 88.1755 184.821C87.9245 184.568 87.7836 184.226 87.7836 183.869V174.279H158.185V183.869C158.185 184.226 158.044 184.568 157.793 184.821C157.542 185.074 157.201 185.216 156.846 185.217Z" fill="#CCCCCC"/>
<path d="M158.255 178.812H87.7218V137.776C87.7223 137.345 87.8928 136.932 88.1961 136.628C88.4993 136.323 88.9104 136.152 89.3392 136.151H156.638C157.067 136.152 157.478 136.323 157.781 136.628C158.084 136.932 158.255 137.345 158.255 137.776V178.812Z" fill="#3F3D56"/>
<path d="M154.043 175.833H91.9345C91.6039 175.833 91.2869 175.701 91.0531 175.466C90.8194 175.231 90.6879 174.913 90.6875 174.581V140.382C90.6879 140.05 90.8194 139.732 91.0531 139.497C91.2869 139.262 91.6039 139.13 91.9345 139.13H154.043C154.373 139.13 154.69 139.262 154.924 139.497C155.158 139.732 155.289 140.05 155.29 140.382V174.581C155.289 174.913 155.158 175.231 154.924 175.466C154.69 175.701 154.373 175.833 154.043 175.833Z" fill="white"/>
<path d="M223.667 143.056C224.261 142.97 224.867 143.016 225.441 143.19C226.016 143.365 226.545 143.664 226.992 144.066C227.439 144.468 227.793 144.964 228.029 145.518C228.264 146.073 228.376 146.672 228.356 147.275L241.973 152.539L235.804 156.965L223.819 151.288C222.813 151.187 221.879 150.719 221.194 149.973C220.509 149.227 220.12 148.254 220.102 147.24C220.083 146.225 220.436 145.238 221.093 144.467C221.75 143.696 222.666 143.194 223.667 143.056Z" fill="#9E616A"/>
<path d="M275.371 140.472L277.675 144.678C277.118 147.346 275.679 149.746 273.592 151.489C270.065 154.476 251.623 165.602 251.623 165.602L228.341 153.864L232.414 148.429L250.693 154.58C257.473 148.15 265.656 143.4 274.588 140.708L275.371 140.472Z" fill="#E4E4E4"/>
<path d="M271.087 210.073C281.122 210.073 289.257 207.411 289.257 204.128C289.257 200.844 281.122 198.182 271.087 198.182C261.052 198.182 252.918 200.844 252.918 204.128C252.918 207.411 261.052 210.073 271.087 210.073Z" fill="#CACACA"/>
<path d="M230.325 279.213L225.5 277.874L228.348 258.547L235.469 260.524L230.325 279.213Z" fill="#9E616A"/>
<path d="M230.262 284.252L214.705 279.933L214.759 279.735C215.203 278.123 216.267 276.753 217.716 275.928C219.166 275.103 220.882 274.889 222.488 275.335L222.489 275.335L231.991 277.973L230.262 284.252Z" fill="#2F2E41"/>
<path d="M216.336 279.276L211.756 277.245L217.377 258.541L224.135 261.538L216.336 279.276Z" fill="#9E616A"/>
<path d="M215.543 284.252L200.778 277.704L200.86 277.517C201.534 275.986 202.785 274.787 204.338 274.182C205.892 273.578 207.621 273.618 209.145 274.293L209.146 274.294L218.164 278.293L215.543 284.252Z" fill="#2F2E41"/>
<path d="M285.228 189.591C285.228 189.591 287.656 197.143 272.763 206.694L253.584 225.886L233.656 273.76L221.825 268.433L224.145 262.213L225.702 258.039L226.499 255.903L227.353 253.614L240.019 219.661L250.658 200.952L250.967 190.801L253.584 183.645L272.571 176.879L285.228 189.591Z" fill="#2F2E41"/>
<path d="M275.546 189.965C275.546 189.965 277.973 197.517 263.081 207.067L243.902 226.26L223.973 274.133L212.142 268.807L214.462 262.586L216.019 258.412L216.816 256.277L217.67 253.988L230.336 220.035L233.899 213.771C238.598 205.507 244.309 197.866 250.898 191.026L254.39 187.401L254.762 181.791L262.888 177.253L275.546 189.965Z" fill="#2F2E41"/>
<path d="M264.073 152.994L270.031 140.278L280.429 138.854C280.429 138.854 288.549 149.242 286.417 163.839C285.618 169.314 284.966 174.763 284.927 179.547C284.917 180.82 286.026 181.388 286.045 182.539C286.063 183.669 283.943 185.511 284.555 186.279C285.43 187.338 285.951 188.646 286.045 190.019C285.307 191.783 262.972 182.227 253.584 183.645L264.073 152.994Z" fill="#E4E4E4"/>
<path d="M278.841 132.452C281.496 127.968 280.028 122.172 275.563 119.507C271.098 116.841 265.327 118.315 262.673 122.799C260.018 127.283 261.486 133.079 265.951 135.744C270.416 138.41 276.187 136.936 278.841 132.452Z" fill="#9E616A"/>
<path d="M276.77 124.234C276.752 124.483 276.727 124.812 276.698 125.184C276.669 126.204 276.955 127.207 277.517 128.057C278.043 128.95 277.415 134.347 277.415 134.347C292.821 123.563 280.648 112.728 275.887 113.691C275.986 112.32 272.103 112.863 272.103 112.863C270.623 110.549 267.38 113.621 267.38 113.621L268.006 112.564C265.488 113.207 262.999 121.022 262.999 121.022C263.853 124.393 276.869 122.863 276.77 124.234Z" fill="#2F2E41"/>
<path d="M217.006 157.996C222.3 150.924 226.485 143.08 229.416 134.737C229.586 134.238 229.574 133.694 229.382 133.203C229.19 132.713 228.831 132.306 228.369 132.056L210.253 122.308C209.96 122.149 209.634 122.059 209.302 122.046C208.969 122.032 208.637 122.095 208.332 122.229C208.022 122.365 207.746 122.57 207.526 122.829C207.306 123.087 207.148 123.393 207.064 123.722C204.955 131.762 200.992 139.191 195.494 145.407C195.268 145.66 195.102 145.962 195.009 146.289C194.916 146.616 194.899 146.96 194.959 147.295C195.016 147.624 195.148 147.936 195.343 148.207C195.539 148.478 195.793 148.7 196.087 148.857L214.203 158.605C214.667 158.853 215.203 158.928 215.716 158.817C216.229 158.705 216.686 158.414 217.006 157.996Z" fill="#CCCCCC"/>
<path d="M215.77 157.063C215.672 157.185 215.535 157.269 215.383 157.301C215.23 157.332 215.071 157.31 214.934 157.236L196.818 147.488C196.73 147.442 196.654 147.376 196.595 147.295C196.537 147.215 196.498 147.122 196.481 147.023C196.462 146.92 196.468 146.813 196.497 146.712C196.526 146.61 196.578 146.517 196.649 146.44C202.309 140.04 206.389 132.393 208.559 124.116C208.585 124.014 208.633 123.919 208.701 123.838C208.769 123.758 208.854 123.694 208.95 123.653C209.041 123.612 209.14 123.593 209.239 123.597C209.338 123.601 209.435 123.628 209.523 123.676L227.638 133.425C227.775 133.499 227.882 133.619 227.941 133.765C227.999 133.91 228.005 134.071 227.957 134.22C225.079 142.414 220.969 150.118 215.77 157.063Z" fill="white"/>
<path d="M209.432 132.938L221.927 140.293C223.17 141.025 224.296 139.086 223.055 138.356L210.56 131.001C209.316 130.269 208.191 132.208 209.432 132.938Z" fill="#CA0000"/>
<path d="M207.197 137.052L219.692 144.407C220.936 145.139 222.061 143.2 220.82 142.469L208.325 135.114C207.082 134.383 205.956 136.321 207.197 137.052Z" fill="#CA0000"/>
<path d="M204.591 141.54L217.086 148.895C218.329 149.627 219.455 147.688 218.213 146.957L205.718 139.602C204.475 138.871 203.349 140.809 204.591 141.54Z" fill="#CA0000"/>
<path d="M201.984 145.28L214.479 152.635C215.722 153.367 216.848 151.428 215.607 150.697L203.111 143.342C201.868 142.61 200.742 144.549 201.984 145.28Z" fill="#CA0000"/>
<path d="M258.945 188.543L263.636 199.136C263.749 199.39 263.798 199.668 263.777 199.945C263.756 200.222 263.667 200.489 263.517 200.723C263.341 201.002 263.087 201.223 262.786 201.358C262.485 201.492 262.151 201.534 261.827 201.478C261.716 201.461 261.608 201.432 261.503 201.392C261.089 201.231 260.754 200.912 260.574 200.504L255.883 189.91C255.793 189.708 255.744 189.491 255.739 189.27C255.733 189.049 255.771 188.829 255.85 188.623C256.009 188.206 256.327 187.87 256.733 187.689C257.139 187.507 257.6 187.495 258.015 187.656C258.43 187.816 258.765 188.135 258.945 188.543Z" fill="#CA0000"/>
<path d="M263.258 198.282L264.198 200.42L264.678 203.451C264.71 203.65 264.675 203.855 264.579 204.033C264.483 204.21 264.331 204.351 264.148 204.433C263.964 204.515 263.758 204.534 263.562 204.487C263.367 204.439 263.192 204.328 263.066 204.171L261.121 201.741L260.195 199.649L263.258 198.282Z" fill="#3F3D56"/>
<path d="M254.84 185.595L255.512 189.836C255.534 189.975 255.588 190.107 255.669 190.222C255.75 190.337 255.856 190.431 255.979 190.498C256.102 190.565 256.238 190.603 256.378 190.609C256.518 190.614 256.658 190.587 256.785 190.53L257.452 190.233L258.738 193.137C258.778 193.228 258.853 193.299 258.945 193.334C259.037 193.369 259.139 193.367 259.229 193.327C259.32 193.286 259.39 193.212 259.426 193.119C259.461 193.027 259.459 192.924 259.419 192.833L258.132 189.929L258.799 189.631C259.02 189.532 259.193 189.35 259.28 189.123C259.367 188.896 259.361 188.644 259.264 188.422C259.231 188.349 259.189 188.28 259.138 188.217L256.453 184.875C256.326 184.718 256.152 184.607 255.956 184.559C255.761 184.512 255.555 184.531 255.371 184.613C255.187 184.695 255.035 184.836 254.939 185.014C254.843 185.191 254.809 185.396 254.84 185.595Z" fill="#3F3D56"/>
<path d="M256.786 193.25C256.892 192.657 257.126 192.094 257.472 191.601C257.817 191.108 258.267 190.698 258.787 190.398C259.308 190.099 259.888 189.917 260.486 189.867C261.085 189.817 261.686 189.899 262.25 190.108L271.51 178.784L273.752 186.058L264.615 195.696C264.203 196.623 263.467 197.366 262.546 197.784C261.625 198.202 260.584 198.267 259.619 197.965C258.654 197.664 257.832 197.017 257.31 196.148C256.788 195.279 256.602 194.248 256.786 193.25Z" fill="#9E616A"/>
<path d="M268.444 192.514L264.366 186.598L275.947 171.09L269.981 158.251L270.415 142.979L275.346 142.065L275.407 142.096C277.804 143.481 279.656 145.648 280.657 148.237C281.887 151.325 284.633 162.917 286.16 169.551C286.46 170.837 286.427 172.178 286.065 173.448C285.702 174.717 285.022 175.872 284.089 176.803L268.444 192.514Z" fill="#E4E4E4"/>
<path d="M153.608 163.927C153.574 164.214 153.563 164.504 153.574 164.793L132.692 180.05L126.955 177.5L121.992 185.692L131.711 191.197C132.496 191.641 133.404 191.818 134.298 191.701C135.192 191.583 136.023 191.178 136.668 190.545L157.685 169.93C158.761 170.204 159.894 170.143 160.935 169.755C161.975 169.367 162.873 168.67 163.51 167.757C164.146 166.843 164.49 165.757 164.497 164.642C164.504 163.528 164.172 162.437 163.547 161.517C162.921 160.596 162.031 159.888 160.995 159.487C159.96 159.087 158.827 159.012 157.748 159.274C156.669 159.536 155.695 160.121 154.955 160.952C154.216 161.783 153.746 162.821 153.608 163.927Z" fill="#FFB6B6"/>
<path d="M132.017 180.607L125.927 190.798C125.754 191.088 125.52 191.337 125.243 191.528C124.965 191.719 124.649 191.848 124.318 191.906C123.986 191.963 123.646 191.948 123.32 191.862C122.995 191.776 122.691 191.62 122.431 191.406L113.313 183.886C111.842 182.987 110.785 181.538 110.374 179.858C109.964 178.178 110.234 176.403 111.125 174.923C112.015 173.442 113.454 172.376 115.126 171.959C116.798 171.542 118.566 171.808 120.043 172.698L130.906 177.223C131.217 177.353 131.497 177.548 131.726 177.796C131.955 178.044 132.128 178.339 132.233 178.66C132.338 178.981 132.374 179.321 132.336 179.657C132.299 179.993 132.19 180.317 132.017 180.607Z" fill="#CA0000"/>
<path d="M105.925 269.182H117.861V249.318H105.925V269.182Z" fill="#CACACA"/>
<path d="M117.263 259.829L115.731 262.096L144.379 281.618L145.911 279.351L117.263 259.829Z" fill="#CACACA"/>
<path d="M106.523 259.829L77.8753 279.351L79.4074 281.618L108.055 262.096L106.523 259.829Z" fill="#CACACA"/>
<path d="M145.145 284.252C147.217 284.252 148.896 282.565 148.896 280.485C148.896 278.404 147.217 276.717 145.145 276.717C143.073 276.717 141.394 278.404 141.394 280.485C141.394 282.565 143.073 284.252 145.145 284.252Z" fill="#CACACA"/>
<path d="M111.723 284.252C113.795 284.252 115.474 282.565 115.474 280.485C115.474 278.404 113.795 276.717 111.723 276.717C109.651 276.717 107.971 278.404 107.971 280.485C107.971 282.565 109.651 284.252 111.723 284.252Z" fill="#CACACA"/>
<path d="M78.6413 284.252C80.7132 284.252 82.3928 282.565 82.3928 280.485C82.3928 278.404 80.7132 276.717 78.6413 276.717C76.5695 276.717 74.8899 278.404 74.8899 280.485C74.8899 282.565 76.5695 284.252 78.6413 284.252Z" fill="#CACACA"/>
<path d="M113.087 260.962H110.358V280.485H113.087V260.962Z" fill="#CACACA"/>
<path d="M109.335 258.222H114.451V231.85H109.335V258.222Z" fill="#CACACA"/>
<path d="M97.2283 235.96V229.795C97.2295 228.66 97.6791 227.572 98.4783 226.769C99.2775 225.967 100.361 225.515 101.491 225.514H124.341C125.472 225.515 126.555 225.967 127.354 226.769C128.154 227.572 128.603 228.66 128.604 229.795V235.96C128.603 237.095 128.154 238.183 127.354 238.986C126.555 239.789 125.472 240.24 124.341 240.241H101.491C100.361 240.24 99.2775 239.789 98.4783 238.986C97.6791 238.183 97.2295 237.095 97.2283 235.96Z" fill="#3F3D56"/>
<path d="M138.498 278.1L144.817 278.1L147.824 261.64L138.497 261.641L138.498 278.1Z" fill="#FFB8B8"/>
<path d="M136.887 284.252L157.263 284.251V283.992C157.263 282.947 157.058 281.911 156.659 280.945C156.261 279.978 155.676 279.1 154.94 278.361C154.204 277.621 153.329 277.034 152.367 276.634C151.405 276.234 150.374 276.028 149.332 276.028H149.331L136.886 276.028L136.887 284.252Z" fill="#2F2E41"/>
<path d="M147.95 267.893L160.548 239.522C161.6 237.131 161.716 234.43 160.874 231.956C160.032 229.483 158.292 227.419 156.003 226.175L128.676 211.459L116.207 210.394L104.705 209.344L104.622 209.485C104.516 209.665 102.043 213.955 103.714 218.659C104.982 222.227 108.281 225.014 113.518 226.942C125.741 231.444 139.862 235.291 145.366 236.735C145.609 236.798 145.836 236.911 146.033 237.068C146.229 237.225 146.39 237.422 146.506 237.646C146.621 237.868 146.69 238.111 146.707 238.36C146.725 238.609 146.69 238.86 146.607 239.095L134.903 265.503C134.78 265.838 134.736 266.196 134.774 266.551C134.812 266.906 134.93 267.247 135.119 267.549C135.309 267.85 135.565 268.104 135.868 268.29C136.171 268.477 136.512 268.591 136.866 268.624L145.612 269.263C145.686 269.27 145.76 269.274 145.833 269.274C146.281 269.274 146.72 269.143 147.095 268.898C147.471 268.653 147.768 268.304 147.95 267.893Z" fill="#2F2E41"/>
<path d="M134.375 278.1L140.694 278.1L143.7 261.64L134.374 261.641L134.375 278.1Z" fill="#FFB8B8"/>
<path d="M132.763 284.252L153.139 284.251V283.992C153.139 282.947 152.934 281.911 152.535 280.945C152.137 279.978 151.553 279.1 150.816 278.361C150.08 277.621 149.206 277.034 148.243 276.634C147.281 276.234 146.25 276.028 145.208 276.028H145.208L132.762 276.028L132.763 284.252Z" fill="#2F2E41"/>
<path d="M143.311 269.446L155.909 241.075C156.961 238.684 157.077 235.983 156.235 233.509C155.392 231.036 153.653 228.971 151.363 227.728L124.037 213.012L111.568 211.947L102.559 211.162L102.56 211.038C102.454 211.218 99.9808 215.508 101.653 220.212C102.921 223.78 103.642 226.567 108.879 228.495C121.102 232.996 135.223 236.844 140.727 238.288C140.97 238.351 141.197 238.464 141.394 238.621C141.59 238.778 141.751 238.975 141.867 239.199C141.982 239.421 142.051 239.664 142.068 239.913C142.086 240.162 142.051 240.413 141.968 240.648L130.264 267.056C130.141 267.391 130.097 267.749 130.135 268.104C130.172 268.459 130.291 268.8 130.48 269.102C130.67 269.403 130.926 269.657 131.229 269.843C131.532 270.03 131.873 270.144 132.227 270.177L140.973 270.816C141.047 270.823 141.121 270.827 141.194 270.827C141.642 270.827 142.08 270.696 142.456 270.451C142.832 270.206 143.129 269.857 143.311 269.446Z" fill="#2F2E41"/>
<path d="M135.408 147.245C137.026 140.413 132.823 133.559 126.021 131.934C119.218 130.309 112.393 134.53 110.775 141.361C109.157 148.193 113.36 155.047 120.162 156.672C126.965 158.297 133.791 154.076 135.408 147.245Z" fill="#FFB8B8"/>
<path d="M166.731 193.151C172.025 186.079 176.21 178.235 179.141 169.892C179.311 169.393 179.299 168.849 179.107 168.359C178.915 167.868 178.556 167.461 178.094 167.211L159.978 157.463C159.685 157.304 159.359 157.214 159.027 157.201C158.694 157.187 158.362 157.25 158.057 157.384C157.747 157.52 157.471 157.725 157.251 157.984C157.031 158.242 156.873 158.548 156.789 158.877C154.68 166.917 150.717 174.346 145.219 180.562C144.993 180.815 144.827 181.117 144.734 181.444C144.641 181.771 144.624 182.115 144.684 182.45C144.741 182.779 144.873 183.091 145.068 183.362C145.264 183.633 145.518 183.855 145.812 184.012L163.928 193.76C164.392 194.008 164.928 194.083 165.441 193.972C165.954 193.86 166.411 193.569 166.731 193.151Z" fill="#CCCCCC"/>
<path d="M165.495 192.218C165.397 192.34 165.261 192.424 165.108 192.456C164.955 192.488 164.796 192.465 164.659 192.391L146.543 182.643C146.455 182.597 146.379 182.531 146.32 182.451C146.262 182.37 146.223 182.277 146.206 182.179C146.188 182.075 146.193 181.968 146.222 181.867C146.251 181.766 146.303 181.673 146.374 181.595C152.034 175.196 156.114 167.548 158.285 159.271C158.31 159.169 158.358 159.074 158.426 158.994C158.494 158.913 158.579 158.85 158.675 158.808C158.766 158.767 158.865 158.748 158.964 158.752C159.064 158.756 159.161 158.784 159.248 158.832L177.363 168.58C177.5 168.654 177.607 168.775 177.666 168.92C177.724 169.065 177.73 169.226 177.683 169.376C174.804 177.57 170.694 185.273 165.495 192.218Z" fill="white"/>
<path d="M159.157 168.093L171.652 175.448C172.895 176.18 174.021 174.241 172.78 173.511L160.285 166.156C159.041 165.424 157.916 167.363 159.157 168.093Z" fill="#CCCCCC"/>
<path d="M156.922 172.207L169.418 179.562C170.661 180.294 171.787 178.355 170.545 177.625L158.05 170.27C156.807 169.538 155.681 171.477 156.922 172.207Z" fill="#CCCCCC"/>
<path d="M155.167 176.305L166.531 183.08C167.661 183.754 168.87 182.36 167.742 181.687L156.378 174.913C155.247 174.239 154.038 175.632 155.167 176.305Z" fill="#CCCCCC"/>
<path d="M151.709 180.435L164.204 187.79C165.447 188.522 166.573 186.583 165.332 185.852L152.837 178.497C151.593 177.766 150.468 179.704 151.709 180.435Z" fill="#CCCCCC"/>
<path d="M130.391 212.489L105.338 212.339L105.331 212.16C104.853 199.536 106.39 188.101 110.028 177.201C110.079 176.793 110.135 176.357 110.189 175.929C110.811 171.053 111.304 167.181 115.922 165.739C115.537 165.225 115.31 164.61 115.269 163.968C115.24 163.542 115.296 163.114 115.433 162.71C115.57 162.305 115.786 161.932 116.068 161.612C116.338 161.303 116.666 161.051 117.034 160.871C117.402 160.691 117.802 160.586 118.21 160.563L127.128 160.258C127.596 160.254 128.053 160.41 128.423 160.698C129.101 161.205 129.579 161.938 129.769 162.765C129.959 163.593 129.849 164.461 129.459 165.215C129.354 165.425 129.314 165.521 129.299 165.563C129.616 167.231 130.556 169.212 131.552 171.309C132.977 174.311 134.592 177.713 135.008 181.353C135.232 183.319 135.139 185.308 134.732 187.243C134.546 188.286 134.503 189.35 134.604 190.405C134.686 191.969 134.763 193.445 133.882 194.873C133.658 195.26 133.401 195.673 133.1 196.13L131.862 199.103L130.391 212.489Z" fill="#CA0000"/>
<path d="M92.7947 230.155V178.746C92.7966 177.071 93.4601 175.465 94.6396 174.28C95.8191 173.095 97.4184 172.429 99.0865 172.427H100.827C102.495 172.429 104.094 173.095 105.274 174.28C106.453 175.465 107.117 177.071 107.119 178.746V230.155C107.117 231.831 106.453 233.437 105.274 234.621C104.094 235.806 102.495 236.472 100.827 236.474H99.0865C97.4184 236.472 95.8191 235.806 94.6396 234.621C93.4601 233.437 92.7966 231.831 92.7947 230.155Z" fill="#3F3D56"/>
<path d="M159.978 183.877C159.799 184.103 159.637 184.343 159.494 184.595L133.74 186.483L130.207 181.277L121.686 185.603L127.048 195.431C127.481 196.225 128.159 196.856 128.979 197.23C129.8 197.604 130.72 197.701 131.6 197.505L160.286 191.137C161.056 191.94 162.05 192.489 163.138 192.711C164.226 192.933 165.355 192.817 166.376 192.378C167.396 191.94 168.26 191.2 168.851 190.257C169.443 189.314 169.734 188.212 169.687 187.098C169.64 185.984 169.256 184.912 168.587 184.022C167.917 183.133 166.995 182.469 165.941 182.12C164.887 181.77 163.752 181.751 162.687 182.065C161.622 182.379 160.677 183.011 159.978 183.877Z" fill="#FFB6B6"/>
<path d="M132.873 186.599L122.345 192.026C122.045 192.18 121.716 192.268 121.379 192.283C121.043 192.298 120.707 192.241 120.395 192.114C120.083 191.987 119.802 191.794 119.571 191.548C119.34 191.302 119.164 191.009 119.056 190.689L115.264 179.469C114.487 177.928 114.349 176.141 114.88 174.499C115.411 172.856 116.568 171.492 118.098 170.704C113.431 173.11 123.151 166.276 126.86 173.534L133.708 183.136C133.904 183.411 134.039 183.725 134.103 184.057C134.167 184.389 134.16 184.731 134.08 185.059C134.001 185.388 133.852 185.696 133.644 185.961C133.435 186.227 133.173 186.444 132.873 186.599Z" fill="#CA0000"/>
<path d="M117.372 156.669C116.61 156.669 115.77 156.3 114.822 155.553C112.032 153.353 110.038 150.295 109.146 146.848C108.254 143.401 108.512 139.755 109.882 136.47C110.571 134.816 111.86 132.569 114.087 131.252C115.688 130.306 117.568 129.964 119.206 129.718C120.623 129.505 122.058 129.335 123.471 129.214C125.159 129.069 127.109 128.971 128.888 129.649C130.191 130.147 131.3 131.025 132.373 131.875C132.747 132.171 133.133 132.477 133.521 132.76C134.459 133.496 135.541 134.023 136.696 134.309C136.94 134.36 137.17 134.463 137.371 134.611C137.572 134.758 137.739 134.948 137.861 135.166C137.985 135.388 138.06 135.633 138.082 135.887C138.103 136.14 138.07 136.396 137.985 136.635C137.818 137.106 137.667 137.531 137.972 137.991C138.085 138.153 138.236 138.285 138.412 138.375C138.588 138.465 138.783 138.51 138.98 138.507C139.084 138.505 139.187 138.53 139.279 138.578C139.371 138.626 139.45 138.697 139.508 138.784C139.567 138.87 139.604 138.969 139.616 139.072C139.628 139.176 139.615 139.281 139.577 139.378L139.528 139.505C139.659 139.517 139.785 139.561 139.896 139.634C140.006 139.706 140.097 139.804 140.162 139.919C140.257 140.083 140.294 140.275 140.266 140.463C140.239 140.652 140.148 140.825 140.009 140.954C138.879 142.034 137.47 142.774 135.943 143.091C134.897 143.297 133.822 143.294 132.778 143.084L132.61 143.051L132.63 142.864C128.406 141.351 124.592 143.919 122.418 146.854L122.104 146.655C122.158 146.546 122.19 146.426 122.196 146.305C122.203 146.183 122.186 146.061 122.144 145.946C122.1 145.808 122.03 145.68 121.937 145.57C121.844 145.459 121.73 145.369 121.602 145.302C121.343 145.195 121.059 145.167 120.784 145.222C120.509 145.277 120.257 145.413 120.059 145.612C119.857 145.824 119.702 146.076 119.602 146.352C119.503 146.628 119.462 146.922 119.482 147.215C119.539 147.835 119.696 148.442 119.948 149.012C120.05 149.284 120.156 149.566 120.242 149.851C120.723 151.465 120.595 153.2 119.881 154.726C119.552 155.421 118.957 156.308 117.991 156.583C117.79 156.641 117.582 156.669 117.372 156.669Z" fill="#2F2E41"/>
<path d="M323.154 285H22.512C22.3946 285 22.2821 284.953 22.1992 284.869C22.1164 284.786 22.0698 284.673 22.0698 284.555C22.0698 284.437 22.1164 284.324 22.1992 284.24C22.2821 284.157 22.3946 284.11 22.512 284.109H323.154C323.271 284.109 323.384 284.156 323.467 284.24C323.55 284.323 323.597 284.437 323.597 284.555C323.597 284.673 323.55 284.786 323.467 284.87C323.384 284.953 323.271 285 323.154 285Z" fill="#CACACA"/>
</g>
</g>
<defs>
<filter id="filter0_d_1_157" x="0.0872803" y="0" width="346.49" height="406" filterUnits="userSpaceOnUse" color-interpolation-filters="sRGB">
<feFlood flood-opacity="0" result="BackgroundImageFix"/>
<feColorMatrix in="SourceAlpha" type="matrix" values="0 0 0 0 0 0 0 0 0 0 0 0 0 0 0 0 0 0 127 0" result="hardAlpha"/>
<feOffset dy="4"/>
<feGaussianBlur stdDeviation="5"/>
<feComposite in2="hardAlpha" operator="out"/>
<feColorMatrix type="matrix" values="0 0 0 0 0 0 0 0 0 0 0 0 0 0 0 0 0 0 0.16 0"/>
<feBlend mode="normal" in2="BackgroundImageFix" result="effect1_dropShadow_1_157"/>
<feBlend mode="normal" in="SourceGraphic" in2="effect1_dropShadow_1_157" result="shape"/>
</filter>
<clipPath id="clip0_1_157">
<rect width="301.529" height="173" fill="white" transform="translate(22.0685 112)"/>
</clipPath>
</defs>
</svg>
