<svg width="13" height="12" viewBox="0 0 13 12" fill="none" xmlns="http://www.w3.org/2000/svg">
<path d="M6.23843 11.7751C5.43263 11.7751 4.68217 11.6231 3.98706 11.319C3.29195 11.015 2.68417 10.6024 2.16373 10.0812C1.64328 9.5599 1.2313 8.95117 0.927767 8.25497C0.624228 7.55877 0.472458 6.80714 0.472458 6.00008C0.472458 5.19763 0.624228 4.44715 0.927767 3.74865C1.2313 3.05015 1.64328 2.44027 2.16373 1.91901C2.68417 1.39775 3.29195 0.985123 3.98706 0.681118C4.68217 0.377104 5.43263 0.225098 6.23843 0.225098C7.03963 0.225098 7.78894 0.377104 8.48635 0.681118C9.18376 0.985123 9.79269 1.39775 10.3131 1.91901C10.8336 2.44027 11.2456 3.05015 11.5491 3.74865C11.8526 4.44715 12.0044 5.19763 12.0044 6.00008V6.75728C12.0044 7.33014 11.8112 7.794 11.4248 8.14886C11.0384 8.50373 10.5805 8.68116 10.051 8.68116C9.68292 8.68116 9.35139 8.59441 9.05645 8.4209C8.76151 8.24739 8.52816 8.00545 8.35642 7.69509C8.10329 8.00994 7.79734 8.253 7.43855 8.42426C7.07977 8.59552 6.67973 8.68116 6.23843 8.68116C5.49394 8.68116 4.86017 8.42073 4.33714 7.89987C3.8141 7.379 3.55259 6.74574 3.55259 6.00008C3.55259 5.24096 3.8141 4.60135 4.33714 4.08124C4.86017 3.56112 5.49394 3.30106 6.23843 3.30106C6.98292 3.30106 7.61668 3.56112 8.13972 4.08124C8.66276 4.60135 8.92427 5.24096 8.92427 6.00008V6.75728C8.92427 7.04222 9.03464 7.2922 9.25536 7.50721C9.47609 7.72222 9.74132 7.82972 10.051 7.82972C10.3451 7.82972 10.6025 7.72222 10.8232 7.50721C11.0439 7.2922 11.1543 7.04222 11.1543 6.75728V6.00008C11.1543 4.63972 10.6745 3.47904 9.71504 2.51803C8.75554 1.55703 7.59667 1.07653 6.23843 1.07653C4.88019 1.07653 3.72132 1.55703 2.76182 2.51803C1.80231 3.47904 1.32256 4.63972 1.32256 6.00008C1.32256 7.36045 1.80231 8.52113 2.76182 9.48213C3.72132 10.4431 4.87907 10.9236 6.23508 10.9236H9.32751V11.7751H6.23843ZM6.24015 7.82972C6.75572 7.82972 7.19028 7.65359 7.54384 7.30132C7.8974 6.94906 8.07418 6.51474 8.07418 5.99836C8.07418 5.48573 7.89683 5.04993 7.54212 4.69095C7.18742 4.33198 6.75228 4.15249 6.23671 4.15249C5.72114 4.15249 5.28658 4.33255 4.93302 4.69267C4.57946 5.05278 4.40268 5.48916 4.40268 6.0018C4.40268 6.51818 4.58003 6.95193 4.93473 7.30305C5.28944 7.65416 5.72458 7.82972 6.24015 7.82972Z" fill="white"/>
</svg>
