<svg width="210" height="250" viewBox="0 0 210 250" fill="none" xmlns="http://www.w3.org/2000/svg">
<g filter="url(#filter0_d_273_218)">
<rect x="10" y="6" width="190" height="230" rx="14" fill="white"/>
</g>
<path d="M187.5 235.5L190.5 235.001L192.793 234.165L192.941 214L185 214.965L187.5 235.5Z" fill="#FFB6B6"/>
<path d="M35.6175 200.348L34.2409 207.094C34.1371 207.61 34.0287 208.135 33.9108 208.656C32.7602 208.423 31.5672 208.488 30.4503 208.844C31.3364 210.081 32.1305 211.379 32.8265 212.727C31.959 215.338 30.686 217.751 28.555 219.497C27.1317 220.636 25.4318 221.399 23.6192 221.71C21.8065 222.021 19.9423 221.871 18.2064 221.274L18.2677 221.007C15.9763 216.664 17.221 211.189 20.0687 207.177C21.5211 205.198 23.2419 203.421 25.184 201.895C27.1076 200.329 29.1868 198.925 31.2471 197.538C31.7098 197.228 32.2569 197.058 32.8185 197.053C33.38 197.047 33.9306 197.205 34.3997 197.507C34.8688 197.808 35.2353 198.24 35.4522 198.746C35.6691 199.252 35.7267 199.81 35.6175 200.348Z" fill="#E4E4E4"/>
<path d="M18.6962 237.508C18.1167 233.385 17.5208 229.209 17.9272 225.042C18.2883 221.341 19.4439 217.726 21.7975 214.762C23.0466 213.192 24.5666 211.846 26.2891 210.786C26.7384 210.51 27.1514 211.205 26.7044 211.48C23.7242 213.32 21.4191 216.037 20.1214 219.239C18.6881 222.8 18.4581 226.682 18.707 230.464C18.8565 232.752 19.1728 235.023 19.492 237.294C19.5177 237.397 19.5022 237.505 19.4488 237.597C19.3953 237.689 19.3079 237.757 19.2044 237.788C19.0991 237.816 18.9869 237.802 18.8921 237.75C18.7973 237.697 18.7276 237.61 18.698 237.508L18.6962 237.508Z" fill="#F2F2F2"/>
<path d="M23.6697 30.7009C43.866 30.3579 64.0644 30.3086 84.265 30.5531C104.463 30.799 124.654 31.34 144.838 32.1761C156.164 32.6453 167.485 33.2073 178.802 33.8623C179.711 33.9149 179.708 32.5331 178.802 32.4807C158.638 31.3152 138.46 30.4431 118.266 29.8644C98.0755 29.2872 77.8791 29.0052 57.6768 29.0183C46.3405 29.0256 35.0048 29.126 23.6697 29.3193C22.7606 29.3348 22.7577 30.7164 23.6697 30.7009Z" fill="#E6E6E6"/>
<path d="M28.8961 20.1783C28.282 20.1746 27.6804 20.3475 27.1662 20.6756C26.652 21.0036 26.248 21.4722 26.0046 22.023C25.7323 22.562 25.6482 23.1734 25.7653 23.7635C25.8823 24.3536 26.194 24.8901 26.6527 25.2908C27.0839 25.6492 27.601 25.8949 28.1558 26.005C28.7106 26.1151 29.2849 26.086 29.825 25.9204C30.3775 25.7319 30.8565 25.3808 31.1962 24.9155C31.5359 24.4501 31.7196 23.8933 31.7219 23.3217C31.7466 22.6876 31.5707 22.0615 31.2182 21.5284C30.8658 20.9954 30.3538 20.5813 29.7519 20.3425C29.571 20.2946 29.3781 20.3184 29.2152 20.4087C29.0522 20.4991 28.9324 20.6487 28.8819 20.825C28.8373 21.0015 28.8637 21.188 28.9556 21.346C29.0475 21.5041 29.1979 21.6218 29.3759 21.6748C29.4991 21.7213 29.2633 21.6156 29.3784 21.6769C29.4257 21.702 29.4739 21.7248 29.5204 21.7517C29.5599 21.7745 29.5977 21.7995 29.6361 21.824C29.7681 21.9082 29.5717 21.7623 29.656 21.8379C29.7292 21.9035 29.8017 21.9675 29.8682 22.04C29.8934 22.0673 29.9919 22.1434 29.9153 22.0902C29.8568 22.0495 29.8928 22.0591 29.9153 22.0918C29.9325 22.1166 29.9506 22.1407 29.9675 22.1657C30.0226 22.2472 30.0727 22.3318 30.1176 22.4191C30.128 22.4393 30.1375 22.46 30.1481 22.4801C30.1679 22.5178 30.1966 22.5277 30.15 22.4805C30.1055 22.4354 30.1338 22.4385 30.1498 22.4819C30.1602 22.5104 30.1716 22.5385 30.1818 22.5672C30.215 22.6603 30.2428 22.7553 30.2652 22.8515C30.2756 22.8959 30.2839 22.9407 30.2928 22.9854C30.3244 23.144 30.2882 22.8868 30.2958 23.0046C30.3022 23.103 30.3096 23.2003 30.3079 23.2991C30.3071 23.3443 30.3051 23.3895 30.3019 23.4346C30.3002 23.457 30.2977 23.4795 30.2961 23.502C30.2888 23.6104 30.2886 23.4624 30.3041 23.4522C30.2718 23.5443 30.2503 23.6396 30.2402 23.7364C30.2275 23.7793 30.2125 23.8213 30.1984 23.8638C30.1492 24.012 30.2446 23.783 30.1922 23.8843C30.149 23.9713 30.1007 24.0559 30.0477 24.1375C30.0246 24.1717 29.9377 24.2489 30.0088 24.1952C30.0859 24.1368 29.9684 24.2372 29.9433 24.2631C29.9111 24.2963 29.8777 24.3283 29.843 24.3592C29.8208 24.3803 29.7974 24.4002 29.7729 24.4187C29.7684 24.4165 29.891 24.3387 29.8249 24.3799C29.7409 24.4322 29.6613 24.4883 29.5727 24.5338C29.5624 24.5391 29.4492 24.5904 29.4497 24.5922C29.4448 24.5735 29.5952 24.5404 29.492 24.573C29.4703 24.5799 29.449 24.5881 29.4274 24.5953C29.3334 24.6262 29.2374 24.6511 29.1401 24.67C29.1179 24.6743 29.0943 24.6765 29.0724 24.6821C28.9993 24.7006 29.1422 24.6713 29.1465 24.6737C29.0925 24.6714 29.0384 24.6761 28.9856 24.6876C28.8852 24.6932 28.7846 24.6932 28.6843 24.6876C28.6611 24.6863 28.6379 24.684 28.6147 24.6827C28.5608 24.6796 28.5213 24.6417 28.593 24.6829C28.6483 24.7147 28.6437 24.6915 28.5947 24.6826C28.5718 24.6785 28.5488 24.675 28.5258 24.6708C28.4265 24.6526 28.3283 24.6291 28.2316 24.6004C28.1796 24.5849 28.1287 24.5669 28.0773 24.5494C28.055 24.5431 28.0332 24.5349 28.0123 24.5249C28.012 24.5192 28.1445 24.5868 28.0745 24.55C27.9862 24.5035 27.8949 24.4645 27.8086 24.4136C27.7626 24.3865 27.7184 24.357 27.6736 24.328C27.6539 24.3164 27.6352 24.3033 27.6176 24.2888C27.6191 24.283 27.7273 24.3809 27.6705 24.3281C27.5987 24.2612 27.5219 24.2014 27.4539 24.1302C27.4383 24.1139 27.4236 24.0969 27.4081 24.0806L27.3931 24.0638C27.3548 24.018 27.354 24.0182 27.391 24.0645C27.4284 24.0752 27.4267 24.1154 27.3912 24.0632C27.3785 24.0446 27.365 24.0266 27.3524 24.008C27.2949 23.928 27.246 23.8426 27.2062 23.753C27.2096 23.7504 27.2675 23.9192 27.2233 23.7918C27.2149 23.7677 27.2055 23.744 27.1973 23.7199C27.1811 23.672 27.1668 23.6237 27.1544 23.5747C27.1422 23.5263 27.1359 23.4763 27.1236 23.428C27.1028 23.3466 27.1357 23.4922 27.132 23.4886C27.1202 23.4772 27.1252 23.4066 27.1243 23.3897C27.1187 23.2814 27.1313 23.1761 27.1333 23.0684C27.1348 22.9849 27.1262 23.1334 27.1244 23.1291C27.1249 23.1041 27.1294 23.0793 27.1379 23.0557C27.1507 22.9989 27.1626 22.9421 27.1782 22.8859C27.1962 22.8216 27.2168 22.758 27.2402 22.6953C27.249 22.6718 27.2596 22.6487 27.2677 22.625C27.2975 22.5382 27.2088 22.7297 27.2577 22.6515C27.325 22.5439 27.3751 22.4274 27.4465 22.3211C27.4635 22.2959 27.5664 22.1556 27.5117 22.2265C27.4573 22.297 27.5677 22.1633 27.5885 22.1406C27.6753 22.0462 27.7773 21.9687 27.8671 21.8784C27.9203 21.8249 27.83 21.9047 27.8247 21.9084C27.8525 21.889 27.8797 21.8689 27.9079 21.8499C27.957 21.8169 28.0073 21.7856 28.0588 21.7562C28.1168 21.7229 28.1824 21.6982 28.2386 21.6631C28.3051 21.6215 28.1878 21.6813 28.1857 21.6825C28.2161 21.6678 28.2478 21.656 28.2805 21.6473C28.3352 21.6283 28.5734 21.5279 28.6234 21.5593C28.6211 21.5579 28.4425 21.5733 28.5869 21.5643C28.621 21.5621 28.655 21.5589 28.6892 21.5575C28.7583 21.5547 28.8271 21.5564 28.8962 21.5599C29.0833 21.5587 29.2625 21.4855 29.3949 21.3562C29.5272 21.227 29.6021 21.0519 29.6034 20.8691C29.5994 20.6871 29.5236 20.5137 29.3918 20.385C29.26 20.2562 29.0824 20.1822 28.8961 20.1783Z" fill="#E6E6E6"/>
<path d="M38.7965 20.1783C38.1824 20.1746 37.5807 20.3475 37.0665 20.6756C36.5524 21.0036 36.1484 21.4722 35.905 22.023C35.6327 22.562 35.5486 23.1734 35.6657 23.7635C35.7827 24.3536 36.0944 24.8901 36.5531 25.2908C36.9842 25.6492 37.5014 25.8949 38.0562 26.005C38.611 26.1151 39.1853 26.086 39.7254 25.9204C40.2778 25.7319 40.7569 25.3808 41.0966 24.9155C41.4363 24.4501 41.6199 23.8933 41.6223 23.3217C41.647 22.6876 41.4711 22.0615 41.1186 21.5284C40.7662 20.9954 40.2542 20.5813 39.6523 20.3425C39.4714 20.2946 39.2785 20.3184 39.1156 20.4087C38.9526 20.4991 38.8328 20.6487 38.7823 20.825C38.7377 21.0015 38.7641 21.188 38.856 21.346C38.9479 21.5041 39.0983 21.6218 39.2763 21.6748C39.3995 21.7213 39.1637 21.6156 39.2788 21.6769C39.3261 21.702 39.3743 21.7248 39.4208 21.7517C39.4603 21.7745 39.4981 21.7995 39.5365 21.824C39.6685 21.9082 39.4721 21.7623 39.5564 21.8379C39.6296 21.9035 39.7021 21.9675 39.7686 22.04C39.7938 22.0673 39.8923 22.1434 39.8157 22.0902C39.7571 22.0495 39.7931 22.0591 39.8157 22.0918C39.8328 22.1166 39.851 22.1407 39.8679 22.1657C39.923 22.2472 39.9731 22.3318 40.018 22.4191C40.0284 22.4393 40.0379 22.46 40.0484 22.4801C40.0682 22.5178 40.0969 22.5277 40.0504 22.4805C40.0059 22.4354 40.0342 22.4385 40.0501 22.4819C40.0606 22.5104 40.072 22.5385 40.0822 22.5672C40.1154 22.6603 40.1432 22.7553 40.1656 22.8515C40.176 22.8959 40.1843 22.9407 40.1932 22.9854C40.2248 23.144 40.1886 22.8868 40.1962 23.0046C40.2026 23.103 40.21 23.2003 40.2083 23.2991C40.2075 23.3443 40.2055 23.3895 40.2022 23.4346C40.2006 23.457 40.1981 23.4795 40.1965 23.502C40.1892 23.6104 40.189 23.4624 40.2045 23.4522C40.1722 23.5443 40.1507 23.6396 40.1406 23.7364C40.1279 23.7793 40.1129 23.8213 40.0988 23.8638C40.0496 24.012 40.145 23.783 40.0925 23.8843C40.0494 23.9713 40.0011 24.0559 39.9481 24.1375C39.925 24.1717 39.8381 24.2489 39.9092 24.1952C39.9863 24.1368 39.8688 24.2372 39.8437 24.2631C39.8115 24.2963 39.778 24.3283 39.7434 24.3592C39.7212 24.3803 39.6978 24.4002 39.6732 24.4187C39.6688 24.4165 39.7914 24.3387 39.7253 24.3799C39.6413 24.4322 39.5617 24.4883 39.4731 24.5338C39.4628 24.5391 39.3496 24.5904 39.3501 24.5922C39.3452 24.5735 39.4956 24.5404 39.3924 24.573C39.3707 24.5799 39.3494 24.5881 39.3278 24.5953C39.2338 24.6262 39.1378 24.6511 39.0405 24.67C39.0183 24.6743 38.9947 24.6765 38.9727 24.6821C38.8996 24.7006 39.0426 24.6713 39.0469 24.6737C38.9929 24.6714 38.9388 24.6761 38.886 24.6876C38.7856 24.6932 38.685 24.6932 38.5847 24.6876C38.5615 24.6863 38.5383 24.684 38.5151 24.6827C38.4612 24.6796 38.4217 24.6417 38.4934 24.6829C38.5487 24.7147 38.5441 24.6915 38.4951 24.6826C38.4722 24.6785 38.4491 24.675 38.4262 24.6708C38.3269 24.6526 38.2287 24.6291 38.132 24.6004C38.08 24.5849 38.0291 24.5669 37.9777 24.5494C37.9554 24.5431 37.9336 24.5349 37.9127 24.5249C37.9124 24.5192 38.0449 24.5868 37.9749 24.55C37.8866 24.5035 37.7953 24.4645 37.709 24.4136C37.663 24.3865 37.6187 24.357 37.574 24.328C37.5543 24.3164 37.5356 24.3033 37.518 24.2888C37.5195 24.283 37.6277 24.3809 37.5709 24.3281C37.4991 24.2612 37.4223 24.2014 37.3543 24.1302C37.3387 24.1139 37.324 24.0969 37.3085 24.0806L37.2935 24.0638C37.2552 24.018 37.2544 24.0182 37.2914 24.0645C37.3288 24.0752 37.3271 24.1154 37.2916 24.0632C37.2789 24.0446 37.2654 24.0266 37.2528 24.008C37.1953 23.928 37.1464 23.8426 37.1066 23.753C37.11 23.7504 37.1679 23.9192 37.1236 23.7918C37.1153 23.7677 37.1059 23.744 37.0977 23.7199C37.0815 23.672 37.0672 23.6237 37.0548 23.5747C37.0426 23.5263 37.0363 23.4763 37.024 23.428C37.0032 23.3466 37.0361 23.4922 37.0324 23.4886C37.0206 23.4772 37.0256 23.4066 37.0247 23.3897C37.0191 23.2814 37.0317 23.1761 37.0337 23.0684C37.0352 22.9849 37.0266 23.1334 37.0248 23.1291C37.0253 23.1041 37.0298 23.0793 37.0382 23.0557C37.051 22.9989 37.063 22.9421 37.0786 22.8859C37.0966 22.8216 37.1172 22.758 37.1406 22.6953C37.1493 22.6718 37.16 22.6487 37.1681 22.625C37.1979 22.5382 37.1092 22.7297 37.1581 22.6515C37.2254 22.5439 37.2755 22.4274 37.3469 22.3211C37.3638 22.2959 37.4668 22.1556 37.4121 22.2265C37.3577 22.297 37.468 22.1633 37.4889 22.1406C37.5757 22.0462 37.6777 21.9687 37.7675 21.8784C37.8207 21.8249 37.7304 21.9047 37.7251 21.9084C37.7529 21.889 37.7801 21.8689 37.8083 21.8499C37.8574 21.8169 37.9077 21.7856 37.9592 21.7562C38.0172 21.7229 38.0828 21.6982 38.139 21.6631C38.2055 21.6215 38.0882 21.6813 38.0861 21.6825C38.1165 21.6678 38.1482 21.656 38.1809 21.6473C38.2356 21.6283 38.4738 21.5279 38.5238 21.5593C38.5215 21.5579 38.3429 21.5733 38.4873 21.5643C38.5214 21.5621 38.5554 21.5589 38.5895 21.5575C38.6586 21.5547 38.7275 21.5564 38.7966 21.5599C38.9837 21.5587 39.1629 21.4855 39.2953 21.3562C39.4276 21.227 39.5025 21.0519 39.5038 20.8691C39.4997 20.6871 39.424 20.5137 39.2922 20.385C39.1604 20.2562 38.9828 20.1822 38.7965 20.1783Z" fill="#E6E6E6"/>
<path d="M48.6969 20.1783C48.0828 20.1746 47.4811 20.3475 46.9669 20.6756C46.4527 21.0036 46.0488 21.4722 45.8054 22.023C45.5331 22.562 45.449 23.1734 45.5661 23.7635C45.6831 24.3536 45.9948 24.8901 46.4535 25.2908C46.8846 25.6492 47.4018 25.8949 47.9566 26.005C48.5114 26.1151 49.0857 26.086 49.6258 25.9204C50.1782 25.7319 50.6573 25.3808 50.997 24.9155C51.3367 24.4501 51.5203 23.8933 51.5227 23.3217C51.5474 22.6876 51.3715 22.0615 51.019 21.5284C50.6665 20.9954 50.1546 20.5813 49.5527 20.3425C49.3718 20.2946 49.1789 20.3184 49.0159 20.4087C48.853 20.4991 48.7332 20.6487 48.6827 20.825C48.6381 21.0015 48.6645 21.188 48.7564 21.346C48.8482 21.5041 48.9987 21.6218 49.1767 21.6748C49.2999 21.7213 49.0641 21.6156 49.1792 21.6769C49.2265 21.702 49.2747 21.7248 49.3211 21.7517C49.3606 21.7745 49.3985 21.7995 49.4369 21.824C49.5689 21.9082 49.3724 21.7623 49.4568 21.8379C49.53 21.9035 49.6025 21.9675 49.669 22.04C49.6942 22.0673 49.7927 22.1434 49.7161 22.0902C49.6575 22.0495 49.6935 22.0591 49.7161 22.0918C49.7332 22.1166 49.7514 22.1407 49.7683 22.1657C49.8234 22.2472 49.8735 22.3318 49.9184 22.4191C49.9288 22.4393 49.9383 22.46 49.9488 22.4801C49.9686 22.5178 49.9973 22.5277 49.9508 22.4805C49.9063 22.4354 49.9346 22.4385 49.9505 22.4819C49.961 22.5104 49.9724 22.5385 49.9826 22.5672C50.0158 22.6603 50.0436 22.7553 50.066 22.8515C50.0764 22.8959 50.0847 22.9407 50.0936 22.9854C50.1252 23.144 50.089 22.8868 50.0966 23.0046C50.103 23.103 50.1104 23.2003 50.1087 23.2991C50.1079 23.3443 50.1059 23.3895 50.1026 23.4346C50.101 23.457 50.0984 23.4795 50.0969 23.502C50.0896 23.6104 50.0894 23.4624 50.1049 23.4522C50.0726 23.5443 50.0511 23.6396 50.041 23.7364C50.0283 23.7793 50.0133 23.8213 49.9992 23.8638C49.95 24.012 50.0454 23.783 49.9929 23.8843C49.9498 23.9713 49.9015 24.0559 49.8484 24.1375C49.8254 24.1717 49.7385 24.2489 49.8096 24.1952C49.8867 24.1368 49.7691 24.2372 49.7441 24.2631C49.7119 24.2963 49.6784 24.3283 49.6438 24.3592C49.6216 24.3803 49.5982 24.4002 49.5736 24.4187C49.5691 24.4165 49.6918 24.3387 49.6257 24.3799C49.5417 24.4322 49.4621 24.4883 49.3735 24.5338C49.3632 24.5391 49.25 24.5904 49.2505 24.5922C49.2456 24.5735 49.396 24.5404 49.2928 24.573C49.2711 24.5799 49.2498 24.5881 49.2282 24.5953C49.1342 24.6262 49.0382 24.6511 48.9409 24.67C48.9186 24.6743 48.8951 24.6765 48.8731 24.6821C48.8 24.7006 48.943 24.6713 48.9473 24.6737C48.8933 24.6714 48.8391 24.6761 48.7864 24.6876C48.686 24.6932 48.5854 24.6932 48.4851 24.6876C48.4619 24.6863 48.4387 24.684 48.4155 24.6827C48.3616 24.6796 48.3221 24.6417 48.3938 24.6829C48.4491 24.7147 48.4445 24.6915 48.3955 24.6826C48.3726 24.6785 48.3495 24.675 48.3266 24.6708C48.2273 24.6526 48.1291 24.6291 48.0324 24.6004C47.9804 24.5849 47.9294 24.5669 47.8781 24.5494C47.8558 24.5431 47.834 24.5349 47.8131 24.5249C47.8128 24.5192 47.9453 24.5868 47.8753 24.55C47.787 24.5035 47.6956 24.4645 47.6094 24.4136C47.5634 24.3865 47.5191 24.357 47.4744 24.328C47.4547 24.3164 47.436 24.3033 47.4184 24.2888C47.4199 24.283 47.5281 24.3809 47.4713 24.3281C47.3995 24.2612 47.3227 24.2014 47.2547 24.1302C47.2391 24.1139 47.2244 24.0969 47.2089 24.0806L47.1939 24.0638C47.1555 24.018 47.1548 24.0182 47.1917 24.0645C47.2292 24.0752 47.2275 24.1154 47.192 24.0632C47.1793 24.0446 47.1658 24.0266 47.1532 24.008C47.0957 23.928 47.0468 23.8426 47.007 23.753C47.0104 23.7504 47.0682 23.9192 47.024 23.7918C47.0157 23.7677 47.0063 23.744 46.9981 23.7199C46.9819 23.672 46.9676 23.6237 46.9552 23.5747C46.943 23.5263 46.9367 23.4763 46.9244 23.428C46.9036 23.3466 46.9365 23.4922 46.9328 23.4886C46.921 23.4772 46.926 23.4066 46.9251 23.3897C46.9194 23.2814 46.9321 23.1761 46.9341 23.0684C46.9356 22.9849 46.927 23.1334 46.9252 23.1291C46.9256 23.1041 46.9302 23.0793 46.9386 23.0557C46.9514 22.9989 46.9634 22.9421 46.979 22.8859C46.997 22.8216 47.0176 22.758 47.041 22.6953C47.0497 22.6718 47.0604 22.6487 47.0685 22.625C47.0983 22.5382 47.0096 22.7297 47.0585 22.6515C47.1258 22.5439 47.1759 22.4274 47.2473 22.3211C47.2642 22.2959 47.3672 22.1556 47.3125 22.2265C47.2581 22.297 47.3684 22.1633 47.3893 22.1406C47.4761 22.0462 47.5781 21.9687 47.6679 21.8784C47.7211 21.8249 47.6308 21.9047 47.6255 21.9084C47.6533 21.889 47.6805 21.8689 47.7087 21.8499C47.7578 21.8169 47.8081 21.7856 47.8596 21.7562C47.9176 21.7229 47.9832 21.6982 48.0394 21.6631C48.1059 21.6215 47.9886 21.6813 47.9865 21.6825C48.0169 21.6678 48.0486 21.656 48.0813 21.6473C48.136 21.6283 48.3742 21.5279 48.4241 21.5593C48.4219 21.5579 48.2433 21.5733 48.3877 21.5643C48.4218 21.5621 48.4558 21.5589 48.4899 21.5575C48.559 21.5547 48.6279 21.5564 48.6969 21.5599C48.8841 21.5587 49.0633 21.4855 49.1957 21.3562C49.328 21.227 49.4029 21.0519 49.4041 20.8691C49.4001 20.6871 49.3243 20.5137 49.1926 20.385C49.0608 20.2562 48.8832 20.1822 48.6969 20.1783Z" fill="#E6E6E6"/>
<path d="M191.727 173.174H18.273C16.0796 173.172 13.9768 172.319 12.4258 170.804C10.8749 169.289 10.0025 167.235 10 165.093V14.0812C10.0025 11.9386 10.8749 9.88456 12.4258 8.36957C13.9768 6.85458 16.0796 6.0024 18.273 6H191.727C193.92 6.0024 196.023 6.85458 197.574 8.36957C199.125 9.88456 199.998 11.9386 200 14.0812V165.093C199.998 167.235 199.125 169.289 197.574 170.804C196.023 172.319 193.92 173.172 191.727 173.174ZM18.273 6.92107C16.3296 6.92323 14.4665 7.67829 13.0923 9.0206C11.7181 10.3629 10.9451 12.1828 10.9429 14.0812V165.093C10.9452 166.991 11.7182 168.811 13.0924 170.153C14.4665 171.496 16.3296 172.251 18.273 172.253H191.727C193.67 172.251 195.533 171.496 196.908 170.153C198.282 168.811 199.055 166.991 199.057 165.093V14.0812C199.055 12.1828 198.282 10.3629 196.908 9.0206C195.534 7.67829 193.67 6.92323 191.727 6.92107H18.273Z" fill="#E6E6E6"/>
<path d="M17.9854 108.748L78.983 108.567L139.669 108.387L173.903 108.285C174.086 108.279 174.26 108.203 174.387 108.074C174.515 107.945 174.586 107.773 174.586 107.594C174.586 107.415 174.515 107.243 174.387 107.114C174.26 106.985 174.086 106.91 173.903 106.903L112.905 107.085L52.2187 107.265L17.9854 107.367C17.802 107.373 17.6284 107.448 17.5009 107.577C17.3735 107.706 17.3022 107.878 17.3022 108.057C17.3022 108.237 17.3735 108.409 17.5009 108.538C17.6284 108.666 17.802 108.742 17.9854 108.748Z" fill="#E6E6E6"/>
<path d="M48.7578 107.628L49.135 85.8734C49.1504 84.984 47.736 84.9838 47.7206 85.8734L47.3434 107.628C47.328 108.517 48.7424 108.517 48.7578 107.628Z" fill="#E6E6E6"/>
<path d="M77.911 107.864L78.8301 80.5197L79.0927 72.7071C79.1226 71.8178 77.7082 71.8189 77.6783 72.7071L76.7592 100.051L76.4966 107.864C76.4667 108.753 77.8811 108.752 77.911 107.864Z" fill="#E6E6E6"/>
<path d="M106.986 59.7458C106.431 69.4308 105.405 97.9977 104.851 107.683C104.8 108.571 106.215 108.568 106.265 107.683C106.82 97.9977 107.846 69.4308 108.4 59.7458C108.451 58.8574 107.036 58.8602 106.986 59.7458Z" fill="#E6E6E6"/>
<path d="M135.92 97.9618L135.746 107.271C135.73 108.16 137.144 108.16 137.161 107.271C137.365 96.2763 137.891 96.6346 137.948 93.5317C137.965 92.6423 136.55 92.6422 136.534 93.5317C136.534 93.5317 136.124 86.9674 135.92 97.9618Z" fill="#E6E6E6"/>
<path d="M18.0995 107.969C16.9288 104.827 19.5679 101.804 22.2797 100.446C25.5285 98.8188 29.2659 98.45 32.5492 96.8814C37.4441 94.5428 41.0094 90.3457 44.1818 86.1445C47.4471 81.8205 50.4347 77.1796 54.5838 73.5869C56.7702 71.6515 59.3524 70.1918 62.1596 69.3043C65.6967 68.2261 69.4479 68.1521 73.1027 68.5866C80.6549 69.4845 87.6558 72.5315 94.9428 74.4681C101.813 76.2939 109.383 77.3206 116.126 74.4814C119.552 73.0388 122.354 70.6195 125.363 68.5259C128.275 66.4784 131.531 64.9441 134.985 63.9921C141.754 62.1534 149.147 62.6444 155.449 65.7527C161.242 68.5732 165.829 73.3021 168.4 79.1047C171.387 86.0765 170.998 93.8675 170.022 101.206C169.77 103.103 169.47 104.993 169.166 106.883C169.027 107.752 170.389 108.127 170.53 107.25C171.746 99.6829 172.957 91.8763 171.445 84.2618C170.138 77.6129 166.395 71.6572 160.917 67.5091C155.416 63.3498 148.577 61.2416 141.629 61.563C137.987 61.7281 134.403 62.5068 131.033 63.8649C127.535 65.2782 124.573 67.373 121.564 69.5773C118.471 71.8435 115.282 73.7181 111.441 74.4572C107.716 75.1742 103.841 74.9054 100.132 74.2285C92.4787 72.8318 85.3454 69.63 77.7574 67.9895C70.7271 66.4696 63.1408 66.3177 56.8454 70.1973C52.0028 73.1815 48.5809 77.8145 45.297 82.2881C42.0418 86.7225 38.7455 91.4644 33.9856 94.4936C31.0819 96.3414 27.8179 97.0232 24.5698 98.0624C21.3132 99.1043 18.1869 100.862 16.8591 104.121C16.2868 105.463 16.2429 106.965 16.7357 108.337C17.0445 109.166 18.4118 108.808 18.0995 107.969Z" fill="#E6E6E6"/>
<path d="M48.2884 82.8669L48.2861 82.8685L48.2907 82.8669H48.2884Z" fill="#E6E6E6"/>
<path d="M50.7413 81.594C50.4144 81.0286 49.8929 80.5946 49.2694 80.3692C48.6459 80.1438 47.9608 80.1415 47.3358 80.3629C47.0251 80.4736 46.7403 80.6442 46.4983 80.8643C46.2562 81.0845 46.0618 81.3498 45.9266 81.6446C45.8995 81.7073 45.8837 81.7731 45.8616 81.8373C45.8309 81.8857 45.7941 81.9295 45.7666 81.9801C45.4735 82.5507 45.3932 83.2033 45.5397 83.8255C45.6861 84.4476 46.0501 85.0005 46.5689 85.3887C47.0877 85.777 47.7289 85.9763 48.382 85.9525C49.0351 85.9287 49.6592 85.6831 50.1469 85.2581C50.6595 84.8055 50.998 84.1952 51.1061 83.5286C51.2143 82.8619 51.0855 82.1792 50.7413 81.594ZM48.9699 82.7673C48.9735 82.8342 48.9757 82.8022 48.9699 82.7673V82.7673ZM48.7898 82.3674C48.7829 82.3596 48.7837 82.3604 48.7898 82.3674V82.3674ZM47.9962 82.6791C47.9845 82.6605 47.9856 82.6631 47.9962 82.6791V82.6791ZM48.1843 82.8349C48.2114 82.8467 48.2291 82.8498 48.1843 82.8349V82.8349ZM48.2683 82.874L48.2869 82.8657C48.2823 82.8661 48.2778 82.8652 48.2737 82.8631L48.2743 82.863L48.2889 82.8648L48.2916 82.8636L48.2832 82.8617C48.2905 82.8614 48.2911 82.8625 48.2916 82.8636C48.3757 82.8259 48.319 82.844 48.2702 82.8587L48.2669 82.858C48.2365 82.8429 48.2037 82.8326 48.17 82.8276C48.1668 82.8259 48.1631 82.8247 48.1605 82.8228C48.1335 82.804 47.9966 82.6996 48.1236 82.8091C48.0959 82.7852 48.0686 82.7618 48.0426 82.7361C48.0273 82.7207 48.0134 82.704 48.0011 82.6863C47.9845 82.6584 47.9683 82.6302 47.9527 82.6018L47.9503 82.5865C47.9483 82.5738 47.9467 82.5685 47.945 82.5608C47.9458 82.5529 47.9471 82.5444 47.9483 82.5362C47.9578 82.5114 47.9639 82.4854 47.9663 82.459L47.9718 82.4522C47.9921 82.4246 48.0099 82.3923 48.0293 82.3635C47.9268 82.5155 48.0693 82.3467 48.08 82.3253C48.0818 82.3216 48.0786 82.3236 48.0794 82.3211C48.0836 82.3189 48.0823 82.3204 48.0873 82.3175C48.1191 82.2993 48.1492 82.2789 48.1814 82.2614C48.2198 82.2406 48.3712 82.1987 48.2142 82.2425C48.2499 82.2325 48.2841 82.22 48.3201 82.2108C48.3267 82.2091 48.3795 82.2019 48.408 82.1969C48.4329 82.1963 48.4572 82.1956 48.4598 82.1956C48.4715 82.1957 48.4832 82.1971 48.495 82.1976C48.4689 82.201 48.5843 82.2254 48.6186 82.2305C48.6236 82.2343 48.6261 82.2368 48.6328 82.2416C48.6618 82.2623 48.6971 82.2807 48.7277 82.3C48.5909 82.2136 48.7294 82.3068 48.7556 82.3324C48.7712 82.3476 48.7856 82.3639 48.8003 82.3799C48.8138 82.3952 48.8259 82.4115 48.8367 82.4288C48.8591 82.4689 48.883 82.5095 48.9065 82.549L48.9131 82.5591C48.9129 82.5604 48.9129 82.5618 48.9129 82.5631C48.9252 82.6271 48.9433 82.6899 48.967 82.7508C48.9682 82.756 48.9691 82.7612 48.9697 82.7665C48.9719 82.8015 48.9749 82.8365 48.975 82.8718L48.9747 82.8789C48.8657 82.8234 48.7449 82.7941 48.6221 82.7932C48.4993 82.7924 48.378 82.82 48.2683 82.874Z" fill="#E6E6E6"/>
<path d="M48.2935 82.8669C48.2962 82.8678 48.293 82.8679 48.293 82.8679L48.2935 82.8669Z" fill="#E6E6E6"/>
<path d="M48.2936 82.8669L48.2905 82.8676C48.2944 82.8681 48.2936 82.8669 48.2936 82.8669Z" fill="#E6E6E6"/>
<path d="M48.291 82.8647L48.293 82.8658L48.291 82.8647Z" fill="#E6E6E6"/>
<path d="M78.4632 69.9712L78.4609 69.9727L78.4655 69.9712H78.4632Z" fill="#E6E6E6"/>
<path d="M80.9146 68.6985C80.5877 68.1331 80.0662 67.6991 79.4427 67.4737C78.8192 67.2483 78.1342 67.246 77.5092 67.4674C77.1985 67.5781 76.9137 67.7486 76.6716 67.9688C76.4296 68.189 76.2352 68.4543 76.0999 68.7491C76.0728 68.8118 76.057 68.8776 76.0349 68.9418C76.0043 68.9902 75.9674 69.0339 75.94 69.0846C75.6468 69.6552 75.5666 70.3078 75.713 70.9299C75.8594 71.5521 76.2234 72.105 76.7422 72.4932C77.261 72.8815 77.9022 73.0808 78.5553 73.057C79.2084 73.0332 79.8326 72.7876 80.3203 72.3626C80.8328 71.91 81.1713 71.2997 81.2795 70.633C81.3876 69.9664 81.2588 69.2837 80.9146 68.6985ZM79.1432 69.8718C79.1469 69.9387 79.149 69.9067 79.1432 69.8718V69.8718ZM78.9631 69.4719C78.9562 69.4641 78.9571 69.4649 78.9631 69.4719V69.4719ZM78.1695 69.7836C78.1579 69.7649 78.1589 69.7676 78.1695 69.7836V69.7836ZM78.3576 69.9394C78.3847 69.9512 78.4024 69.9543 78.3576 69.9394V69.9394ZM78.4416 69.9785L78.4602 69.9701C78.4557 69.9706 78.4511 69.9697 78.447 69.9676L78.4476 69.9675L78.4622 69.9693L78.4649 69.9681L78.4565 69.9662C78.4638 69.9659 78.4644 69.967 78.4649 69.9681C78.549 69.9304 78.4923 69.9485 78.4435 69.9632L78.4402 69.9625C78.4098 69.9474 78.377 69.9371 78.3433 69.9321C78.3401 69.9304 78.3364 69.9291 78.3338 69.9273C78.3068 69.9085 78.1699 69.8041 78.2969 69.9135C78.2692 69.8897 78.2419 69.8663 78.2159 69.8406C78.2006 69.8252 78.1867 69.8085 78.1744 69.7908C78.1578 69.7629 78.1416 69.7347 78.126 69.7063L78.1236 69.691C78.1216 69.6782 78.12 69.673 78.1183 69.6653C78.1191 69.6574 78.1204 69.6489 78.1217 69.6407C78.1311 69.6159 78.1372 69.5899 78.1396 69.5635L78.1451 69.5567C78.1654 69.529 78.1832 69.4967 78.2026 69.468C78.1001 69.62 78.2426 69.4512 78.2533 69.4298C78.2551 69.4261 78.252 69.4281 78.2527 69.4256C78.2569 69.4234 78.2556 69.4249 78.2606 69.422C78.2924 69.4038 78.3225 69.3834 78.3547 69.3659C78.3932 69.3451 78.5445 69.3032 78.3875 69.347C78.4232 69.337 78.4574 69.3245 78.4934 69.3153C78.5 69.3136 78.5528 69.3064 78.5813 69.3014C78.6063 69.3008 78.6305 69.3 78.6331 69.3001C78.6448 69.3002 78.6565 69.3016 78.6683 69.3021C78.6422 69.3055 78.7577 69.3299 78.7919 69.335C78.7969 69.3388 78.7994 69.3413 78.8061 69.3461C78.8351 69.3668 78.8704 69.3852 78.901 69.4045C78.7642 69.3181 78.9027 69.4113 78.9289 69.4368C78.9445 69.4521 78.9589 69.4684 78.9736 69.4844C78.9871 69.4997 78.9993 69.516 79.01 69.5332C79.0324 69.5734 79.0563 69.614 79.0799 69.6535L79.0864 69.6636C79.0863 69.6649 79.0862 69.6662 79.0862 69.6676C79.0985 69.7316 79.1166 69.7944 79.1404 69.8553C79.1415 69.8605 79.1424 69.8657 79.143 69.8709C79.1452 69.906 79.1482 69.941 79.1483 69.9763L79.148 69.9834C79.0391 69.9279 78.9182 69.8986 78.7954 69.8977C78.6726 69.8968 78.5513 69.9245 78.4416 69.9785Z" fill="#E6E6E6"/>
<path d="M78.4674 69.9712L78.4644 69.9718C78.4683 69.9724 78.4674 69.9712 78.4674 69.9712Z" fill="#E6E6E6"/>
<path d="M78.4653 69.9712L78.4673 69.9722L78.4653 69.9712Z" fill="#E6E6E6"/>
<path d="M78.4668 69.9712C78.4695 69.972 78.4663 69.9721 78.4663 69.9721L78.4668 69.9712Z" fill="#E6E6E6"/>
<path d="M107.695 76.417L107.697 76.418L107.695 76.417Z" fill="#E6E6E6"/>
<path d="M110.145 55.8052C109.818 55.2397 109.297 54.8058 108.673 54.5804C108.05 54.355 107.365 54.3527 106.74 54.5741C106.429 54.6848 106.144 54.8553 105.902 55.0755C105.66 55.2956 105.466 55.561 105.33 55.8558C105.303 55.9184 105.287 55.9843 105.265 56.0485C105.235 56.0969 105.198 56.1406 105.17 56.1913C104.877 56.7619 104.797 57.4145 104.943 58.0366C105.09 58.6588 105.454 59.2116 105.973 59.5999C106.491 59.9882 107.133 60.1875 107.786 60.1637C108.439 60.1399 109.063 59.8943 109.551 59.4693C110.063 59.0167 110.402 58.4064 110.51 57.7397C110.618 57.0731 110.489 56.3904 110.145 55.8052ZM108.374 56.9785C108.377 57.0454 108.379 57.0134 108.374 56.9785V56.9785ZM108.194 56.5785C108.187 56.5708 108.188 56.5716 108.194 56.5785V56.5785ZM107.4 56.8903C107.388 56.8716 107.389 56.8743 107.4 56.8903V56.8903ZM107.588 57.0461C107.615 57.0578 107.633 57.061 107.588 57.0461V57.0461ZM107.672 57.0852L107.691 57.0768C107.686 57.0772 107.682 57.0764 107.677 57.0743L107.678 57.0742L107.693 57.076L107.695 57.0748L107.687 57.0728C107.694 57.0726 107.695 57.0736 107.695 57.0748C107.78 57.0371 107.723 57.0552 107.674 57.0699L107.671 57.0692C107.64 57.0541 107.608 57.0438 107.574 57.0388C107.571 57.0371 107.567 57.0358 107.564 57.034C107.537 57.0152 107.4 56.9107 107.527 57.0202C107.5 56.9964 107.472 56.973 107.446 56.9473C107.431 56.9319 107.417 56.9152 107.405 56.8975C107.388 56.8695 107.372 56.8414 107.356 56.813L107.354 56.7977C107.352 56.7849 107.35 56.7797 107.349 56.772C107.35 56.7641 107.351 56.7556 107.352 56.7474C107.362 56.7225 107.368 56.6966 107.37 56.6702L107.376 56.6634C107.396 56.6357 107.414 56.6034 107.433 56.5747C107.331 56.7267 107.473 56.5579 107.484 56.5365C107.486 56.5328 107.482 56.5348 107.483 56.5323C107.487 56.53 107.486 56.5316 107.491 56.5287C107.523 56.5105 107.553 56.4901 107.585 56.4726C107.624 56.4518 107.775 56.4099 107.618 56.4537C107.654 56.4437 107.688 56.4312 107.724 56.422C107.73 56.4203 107.783 56.4131 107.812 56.4081C107.837 56.4075 107.861 56.4067 107.864 56.4068C107.875 56.4069 107.887 56.4083 107.899 56.4088C107.873 56.4122 107.988 56.4366 108.022 56.4417C108.027 56.4455 108.03 56.448 108.037 56.4528C108.066 56.4735 108.101 56.4918 108.131 56.5112C107.995 56.4248 108.133 56.518 108.159 56.5435C108.175 56.5588 108.189 56.5751 108.204 56.5911C108.218 56.6064 108.23 56.6227 108.24 56.6399C108.263 56.6801 108.287 56.7207 108.31 56.7602L108.317 56.7703C108.317 56.7716 108.317 56.7729 108.317 56.7742C108.329 56.8383 108.347 56.9011 108.371 56.962C108.372 56.9672 108.373 56.9724 108.373 56.9776C108.376 57.0127 108.379 57.0477 108.379 57.083L108.378 57.0901C108.27 57.0346 108.149 57.0053 108.026 57.0044C107.903 57.0035 107.782 57.0312 107.672 57.0852Z" fill="#E6E6E6"/>
<path d="M107.693 76.4192L107.691 76.4207L107.695 76.4192H107.693Z" fill="#E6E6E6"/>
<path d="M107.698 76.4192L107.695 76.4198C107.699 76.4204 107.698 76.4192 107.698 76.4192Z" fill="#E6E6E6"/>
<path d="M107.697 76.417C107.7 76.4178 107.697 76.4179 107.697 76.4179L107.697 76.417Z" fill="#E6E6E6"/>
<path d="M139.848 91.2666C139.521 90.7012 138.999 90.2672 138.376 90.0418C137.752 89.8164 137.067 89.8141 136.442 90.0355C136.132 90.1463 135.847 90.3168 135.605 90.5369C135.363 90.7571 135.168 91.0224 135.033 91.3172C135.006 91.3799 134.99 91.4458 134.968 91.51C134.937 91.5584 134.901 91.6021 134.873 91.6527C134.58 92.2233 134.5 92.8759 134.646 93.4981C134.793 94.1202 135.157 94.6731 135.675 95.0613C136.194 95.4496 136.835 95.649 137.488 95.6251C138.142 95.6013 138.766 95.3557 139.253 94.9307C139.766 94.4781 140.104 93.8678 140.213 93.2012C140.321 92.5345 140.192 91.8519 139.848 91.2666ZM138.076 92.4399C138.08 92.5068 138.082 92.4748 138.076 92.4399V92.4399ZM137.896 92.04C137.889 92.0322 137.89 92.033 137.896 92.04V92.04ZM137.103 92.3517C137.091 92.3331 137.092 92.3357 137.103 92.3517V92.3517ZM137.291 92.5075C137.318 92.5193 137.336 92.5224 137.291 92.5075V92.5075ZM137.375 92.5466L137.393 92.5383C137.389 92.5387 137.384 92.5378 137.38 92.5357L137.381 92.5356L137.395 92.5374L137.398 92.5362L137.39 92.5343C137.397 92.534 137.398 92.5351 137.398 92.5362C137.482 92.4985 137.425 92.5166 137.377 92.5313L137.373 92.5306C137.343 92.5155 137.31 92.5052 137.276 92.5002C137.273 92.4985 137.27 92.4973 137.267 92.4954C137.24 92.4766 137.103 92.3722 137.23 92.4817C137.202 92.4578 137.175 92.4344 137.149 92.4087C137.134 92.3933 137.12 92.3767 137.108 92.3589C137.091 92.331 137.075 92.3028 137.059 92.2744L137.057 92.2591C137.055 92.2464 137.053 92.2411 137.051 92.2334C137.052 92.2255 137.053 92.217 137.055 92.2088C137.064 92.184 137.07 92.158 137.073 92.1316L137.078 92.1248C137.099 92.0972 137.116 92.0649 137.136 92.0361C137.033 92.1881 137.176 92.0193 137.186 91.9979C137.188 91.9943 137.185 91.9962 137.186 91.9937C137.19 91.9915 137.189 91.993 137.194 91.9902C137.225 91.9719 137.256 91.9515 137.288 91.934C137.326 91.9132 137.478 91.8713 137.321 91.9151C137.356 91.9052 137.391 91.8926 137.427 91.8834C137.433 91.8817 137.486 91.8745 137.514 91.8695C137.539 91.8689 137.564 91.8682 137.566 91.8682C137.578 91.8683 137.59 91.8697 137.601 91.8702C137.575 91.8736 137.691 91.898 137.725 91.9032C137.73 91.9069 137.733 91.9094 137.739 91.9142C137.768 91.9349 137.803 91.9533 137.834 91.9726C137.697 91.8862 137.836 91.9794 137.862 92.005C137.878 92.0202 137.892 92.0365 137.907 92.0526C137.92 92.0678 137.932 92.0842 137.943 92.1014C137.966 92.1415 137.989 92.1821 138.013 92.2216L138.02 92.2317C138.019 92.233 138.019 92.2344 138.019 92.2357C138.032 92.2997 138.05 92.3626 138.073 92.4234C138.075 92.4286 138.076 92.4338 138.076 92.4391C138.078 92.4741 138.081 92.5091 138.081 92.5444L138.081 92.5515C137.972 92.496 137.851 92.4667 137.729 92.4658C137.606 92.465 137.484 92.4927 137.375 92.5466Z" fill="#E6E6E6"/>
<path d="M137.396 62.1401L137.394 62.1416L137.398 62.1401H137.396Z" fill="#E6E6E6"/>
<path d="M137.401 62.1401L137.397 62.1408C137.401 62.1413 137.401 62.1401 137.401 62.1401Z" fill="#E6E6E6"/>
<path d="M137.4 62.1401C137.403 62.141 137.399 62.1411 137.399 62.1411L137.4 62.1401Z" fill="#E6E6E6"/>
<path d="M137.398 62.1401L137.4 62.1411L137.398 62.1401Z" fill="#E6E6E6"/>
<path d="M157.589 92.4559L135.667 93.6461C135.544 93.6528 135.422 93.613 135.328 93.5348C135.234 93.4566 135.173 93.346 135.16 93.2258C135.147 93.1056 135.181 92.985 135.256 92.8888C135.331 92.7926 135.441 92.7281 135.563 92.7087L157.969 89.1472L157.589 92.4559Z" fill="#3F3D56"/>
<path d="M150.744 92.6785L149.237 108.403L142.484 108.414C142.484 108.414 146.358 92.4119 146.499 91.9379C146.096 91.4343 145.858 90.8229 145.819 90.1847C145.779 89.5464 145.938 88.9113 146.275 88.3635C146.613 87.8156 147.113 87.3807 147.709 87.1164C148.305 86.8521 148.969 86.7707 149.614 86.8832C150.258 86.9956 150.852 87.2965 151.318 87.746C151.784 88.1956 152.098 88.7726 152.221 89.4007C152.344 90.0289 152.268 90.6786 152.004 91.2639C151.741 91.8491 151.301 92.3424 150.744 92.6785Z" fill="#FFB6B6"/>
<path d="M164.186 124.833L148.644 122.049C142.1 121.281 139.414 117.074 140.595 112.971L144.395 99.7678L150.361 102.892L150.338 109.906L158.689 108.791L164.186 124.833Z" fill="#CA0000"/>
<path d="M157.824 233.5H153.551L151.518 217.398H157.825L157.824 233.5Z" fill="#FFB6B6"/>
<path d="M157.975 237.853L144.833 237.853V237.69C144.834 236.365 145.373 235.094 146.332 234.157C147.291 233.22 148.592 232.694 149.948 232.694L152.349 230.915L156.828 232.694L157.975 232.694L157.975 237.853Z" fill="#2F2E41"/>
<path d="M151.33 205.567C151.393 204.648 151.894 199.567 151.894 199.567L153.096 188.792L155.215 160.229L157.103 152.721L166.45 156.278L174.035 152.726L183.05 155.541L190.069 158.113C190.069 158.113 190.081 159.213 190.135 160.543C190.207 162.284 190.333 164.418 190.634 164.972C191.136 165.953 191.01 171.216 191.01 171.216C191.01 171.216 191.508 181.924 192.136 183.098C192.764 184.272 192.891 186.717 192.701 187.207C192.512 187.697 193.329 200.557 193.329 200.557C193.329 200.557 195.427 223.313 194.111 226.744C192.795 230.176 187.821 227.928 187.821 227.928C187.821 227.928 188.062 227.012 186.619 226.581C185.177 226.149 180.784 193.882 180.784 193.882C180.784 193.882 179.966 187.266 179.215 185.37C178.464 183.473 177.773 178.146 177.773 178.146C177.773 178.146 173.133 169.328 173.073 167.368C173.073 167.368 172.466 165.533 171.892 167.552C171.318 169.572 169.627 174.409 169.627 174.409L167.977 180.35L166.036 189.226L164.78 196.7C164.78 196.7 162.898 206.618 162.598 207.046C162.297 207.475 162.598 216.536 162.598 216.536C162.598 216.536 161.144 224.253 159.088 225.6C157.033 226.948 151.587 225.622 151.587 225.622C151.587 225.622 151.266 206.486 151.33 205.567Z" fill="#2F2E41"/>
<path d="M158.317 128.565L157.123 143.679L155.328 145.493C155.167 145.657 155.04 145.85 154.957 146.063C154.874 146.275 154.835 146.502 154.843 146.729C154.852 146.956 154.907 147.18 155.006 147.386C155.105 147.591 155.245 147.776 155.419 147.927L154.43 149.583L154.08 154.801C153.98 155.207 153.974 155.63 154.06 156.039C154.147 156.448 154.325 156.833 154.582 157.167C154.838 157.5 155.167 157.775 155.545 157.97C155.923 158.166 156.34 158.277 156.767 158.297L187.71 159.717C188.135 159.736 188.559 159.664 188.952 159.506C189.345 159.348 189.698 159.108 189.985 158.802C190.273 158.496 190.488 158.132 190.616 157.736C190.743 157.34 190.781 156.922 190.725 156.51L188.093 137.161V135.715L186.916 132.921L187.521 123.561L188.929 108.704L180.743 106.639L176.305 103.656L168.595 103.776L163.916 107.53L157.678 108.484L152.96 109.4L152.359 110.676L153.561 110.421L157.917 127.019L158.317 128.565Z" fill="#CA0000"/>
<path d="M113.507 130.432H105.423C104.978 130.431 104.549 130.274 104.213 129.99C103.878 129.705 103.658 129.311 103.596 128.881C103.097 125.293 103.097 121.656 103.596 118.068C103.658 117.643 103.872 117.254 104.202 116.969C104.531 116.685 104.953 116.525 105.392 116.518C107.936 115.404 110.675 115.404 113.535 116.517C113.801 116.521 114.063 116.581 114.303 116.694C114.543 116.807 114.755 116.97 114.924 117.172C115.099 117.381 115.225 117.627 115.292 117.89C115.359 118.153 115.364 118.427 115.309 118.692C114.66 121.849 114.66 125.1 115.309 128.257C115.364 128.522 115.359 128.796 115.292 129.06C115.225 129.323 115.099 129.568 114.924 129.777C114.752 129.982 114.536 130.147 114.291 130.261C114.046 130.374 113.778 130.432 113.507 130.432Z" fill="#CA0000"/>
<path d="M112.661 120.64H105.857C105.801 120.64 105.745 120.63 105.693 120.609C105.641 120.588 105.594 120.558 105.554 120.519C105.514 120.481 105.482 120.435 105.46 120.384C105.439 120.333 105.428 120.279 105.428 120.224C105.428 120.169 105.439 120.115 105.46 120.064C105.482 120.014 105.514 119.968 105.554 119.929C105.594 119.891 105.641 119.86 105.693 119.839C105.745 119.819 105.801 119.808 105.857 119.809H112.661C112.717 119.808 112.772 119.819 112.825 119.839C112.877 119.86 112.924 119.891 112.964 119.929C113.004 119.968 113.035 120.014 113.057 120.064C113.079 120.115 113.09 120.169 113.09 120.224C113.09 120.279 113.079 120.333 113.057 120.384C113.035 120.435 113.004 120.481 112.964 120.519C112.924 120.558 112.877 120.588 112.825 120.609C112.772 120.63 112.717 120.64 112.661 120.64Z" fill="white"/>
<path d="M112.661 123.963H105.857C105.801 123.964 105.745 123.953 105.693 123.933C105.641 123.912 105.594 123.882 105.554 123.843C105.514 123.804 105.482 123.758 105.46 123.708C105.439 123.657 105.428 123.603 105.428 123.548C105.428 123.493 105.439 123.439 105.46 123.388C105.482 123.338 105.514 123.292 105.554 123.253C105.594 123.214 105.641 123.184 105.693 123.163C105.745 123.142 105.801 123.132 105.857 123.133H112.661C112.717 123.132 112.772 123.142 112.825 123.163C112.877 123.184 112.924 123.214 112.964 123.253C113.004 123.292 113.035 123.338 113.057 123.388C113.079 123.439 113.09 123.493 113.09 123.548C113.09 123.603 113.079 123.657 113.057 123.708C113.035 123.758 113.004 123.804 112.964 123.843C112.924 123.882 112.877 123.912 112.825 123.933C112.772 123.953 112.717 123.964 112.661 123.963Z" fill="white"/>
<path d="M112.661 127.285H105.857C105.801 127.285 105.745 127.275 105.693 127.254C105.641 127.234 105.594 127.203 105.554 127.165C105.514 127.126 105.482 127.08 105.46 127.029C105.439 126.979 105.428 126.924 105.428 126.87C105.428 126.815 105.439 126.76 105.46 126.71C105.482 126.659 105.514 126.613 105.554 126.574C105.594 126.536 105.641 126.505 105.693 126.485C105.745 126.464 105.801 126.454 105.857 126.454H112.661C112.717 126.454 112.773 126.464 112.825 126.485C112.877 126.505 112.924 126.536 112.964 126.574C113.004 126.613 113.036 126.659 113.057 126.71C113.079 126.76 113.09 126.815 113.09 126.87C113.09 126.924 113.079 126.979 113.057 127.029C113.036 127.08 113.004 127.126 112.964 127.165C112.924 127.203 112.877 127.234 112.825 127.254C112.773 127.275 112.717 127.285 112.661 127.285Z" fill="white"/>
<path d="M51.2189 163.004C51.542 162.687 51.79 162.304 51.9453 161.883C52.1007 161.462 52.1597 161.013 52.1182 160.567C52.0766 160.122 51.9355 159.691 51.7049 159.304C51.4742 158.917 51.1596 158.585 50.7832 158.33L55.7722 134.124L50.2627 135.852L46.2693 159.265C45.8727 159.911 45.7325 160.677 45.8753 161.417C46.0181 162.158 46.4339 162.821 47.044 163.282C47.6541 163.743 48.4161 163.969 49.1855 163.918C49.955 163.867 50.6785 163.541 51.2189 163.004Z" fill="#9E616A"/>
<path d="M58.5848 111.791L55.1665 109.27C55.1665 109.27 52.1509 109.062 51.6169 114.374C51.0828 119.686 49.9861 130.038 49.9861 130.038L44.7554 153.703L51.9962 155.256L57.5987 129.717L60.9597 122.133L58.5848 111.791Z" fill="#CCCCCC"/>
<path d="M52.9497 150.433L72.2123 150.12L73.8176 137.262H52.9497V150.433Z" fill="#9E616A"/>
<path d="M70.2861 229.557H74.7329L76.8484 212.802L70.2852 212.802L70.2861 229.557Z" fill="#9E616A"/>
<path d="M42.4268 229.959L46.8736 229.928L48.8688 213.159L43.0854 214.455L42.4268 229.959Z" fill="#9E616A"/>
<path d="M56.3347 126.188L55.3271 128.747L55.5285 131.306L75.2484 137.978L74.2701 126.779L72.0533 124.219L56.3347 126.188Z" fill="#FFB6B6"/>
<path d="M64.7951 103.161C68.685 103.161 71.8383 100.081 71.8383 96.2812C71.8383 92.4816 68.685 89.4014 64.7951 89.4014C60.9053 89.4014 57.752 92.4816 57.752 96.2812C57.752 100.081 60.9053 103.161 64.7951 103.161Z" fill="#9E616A"/>
<path d="M69.1828 227.412L76.2124 227.002V229.944L82.8956 234.453C83.2257 234.676 83.4743 234.996 83.6051 235.366C83.736 235.736 83.7421 236.138 83.6227 236.512C83.5034 236.886 83.2647 237.213 82.9415 237.446C82.6184 237.678 82.2277 237.803 81.8266 237.803H73.4576L72.0151 234.893L71.4518 237.803H68.2964L69.1828 227.412Z" fill="#2F2E41"/>
<path d="M40.9056 227.825L47.9321 227.367L47.9532 230.309L54.6686 234.772C55.0003 234.993 55.2512 235.311 55.3847 235.68C55.5181 236.05 55.5272 236.451 55.4105 236.826C55.2938 237.201 55.0574 237.53 54.736 237.764C54.4145 237.999 54.0248 238.127 53.6236 238.129L45.2548 238.187L43.7915 235.286L43.2491 238.2L40.0938 238.222L40.9056 227.825Z" fill="#2F2E41"/>
<path d="M41.0425 217.114L44.2806 191.831L48.1331 165.175C45.3118 160.057 51.6646 144.164 51.6646 144.164L52.5613 144.206L72.8578 147.946L72.8535 147.927C77.0048 158.987 78.3801 164.451 78.1527 176.229L77.3348 218.568H77.5914C78.0171 218.568 78.4254 218.733 78.7264 219.027C79.0275 219.322 79.1966 219.72 79.1966 220.136C79.1966 220.552 79.0275 220.951 78.7264 221.245C78.4254 221.539 78.0171 221.704 77.5914 221.704H69.5653C69.3543 221.705 69.1452 221.664 68.9502 221.586C68.7551 221.507 68.5778 221.392 68.4284 221.246C68.2791 221.1 68.1606 220.927 68.0798 220.737C67.9989 220.547 67.9573 220.342 67.9573 220.136C67.9573 219.93 67.9989 219.726 68.0798 219.536C68.1606 219.345 68.2791 219.172 68.4284 219.027C68.5778 218.881 68.7551 218.765 68.9502 218.687C69.1452 218.608 69.3543 218.568 69.5653 218.568H69.7722L62.4053 168.155L56.1592 189.322L49.0962 216.919C51.6646 216.292 51.2658 217.745 51.2658 218.568C51.2658 218.984 51.0967 219.383 50.7956 219.677C50.4946 219.971 50.0863 220.136 49.6606 220.136H41.6345C41.2612 220.137 40.8995 220.01 40.6117 219.778C40.3239 219.545 40.128 219.222 40.0579 218.864C39.9877 218.506 40.0477 218.135 40.2274 217.816C40.4072 217.496 40.6954 217.248 41.0425 217.114Z" fill="#2F2E41"/>
<path d="M50.0843 144.985L50.7264 138.713C50.793 138.457 50.9409 138.228 51.1489 138.06C51.3568 137.891 51.614 137.791 51.8838 137.774C52.1513 134.786 53.2769 121.896 53.3441 121.334L53.3468 121.311L53.8586 110.63C53.8772 110.242 54.0414 109.874 54.3199 109.597C54.5984 109.32 54.9716 109.153 55.3683 109.128L58.0717 108.955C58.1088 108.954 58.144 108.939 58.1698 108.913C58.1956 108.887 58.21 108.852 58.21 108.815C58.21 108.524 58.2688 108.235 58.383 107.966C58.4973 107.696 58.6647 107.451 58.8759 107.245C59.087 107.039 59.3376 106.875 59.6134 106.764C59.8892 106.652 60.1849 106.595 60.4834 106.595H68.4874C69.0058 106.595 69.5064 106.78 69.8951 107.115C70.2837 107.45 70.5339 107.912 70.5985 108.415C70.602 108.449 70.6188 108.481 70.6455 108.504C70.6721 108.527 70.7067 108.54 70.7423 108.539H70.7432C71.6527 108.521 72.5388 108.822 73.2406 109.387C73.9425 109.952 74.4137 110.744 74.5686 111.62C75.6629 117.839 77.8558 131.954 76.7716 139.801C76.3941 142.533 77.2078 140.369 77.3505 142.655C77.3647 142.875 77.3341 143.097 77.2605 143.306C77.187 143.515 77.0718 143.709 76.9217 143.874C77.229 143.983 77.4799 144.206 77.6198 144.495C77.7597 144.784 77.7775 145.115 77.6692 145.416L77.8098 145.382C77.7686 145.542 77.6956 145.692 77.5949 145.824C77.4943 145.956 77.3679 146.068 77.2232 146.152C77.0784 146.237 76.918 146.293 76.7511 146.316C76.5843 146.34 76.4142 146.332 76.2507 146.292L55.3103 149.063C54.6226 148.894 49.9109 145.657 50.0843 144.985Z" fill="#CCCCCC"/>
<path d="M106.04 119.485C105.909 119.913 105.683 120.309 105.379 120.643C105.074 120.977 104.698 121.242 104.278 121.419C103.857 121.596 103.401 121.681 102.944 121.667C102.486 121.654 102.036 121.543 101.627 121.341L93.5319 128.558L92.457 123.004L100.314 117.02C100.706 116.371 101.328 115.885 102.063 115.655C102.797 115.424 103.592 115.464 104.298 115.768C105.004 116.072 105.571 116.618 105.892 117.303C106.213 117.988 106.266 118.764 106.04 119.485Z" fill="#9E616A"/>
<path d="M77.864 113.967C77.864 113.967 75.0412 107.735 71.4759 108.974C67.9107 110.213 69.7515 116.259 69.7515 116.259L83.1462 135.975C83.1462 135.975 102.466 123.868 100.117 123.783C97.7677 123.697 97.065 119.524 97.065 119.524L86.8539 124.507L86.5084 122.733L85.9547 123.274L84.5257 122.175L77.864 113.967Z" fill="#CCCCCC"/>
<path d="M56.5058 92.0696C55.4256 92.576 54.2164 91.8142 53.2838 91.0593L53.6174 91.3407C51.9692 92.9072 51.1986 95.1608 50.822 97.3793C50.4451 99.5955 50.4031 101.862 49.9285 104.062C49.4536 106.26 48.4684 108.469 46.6282 109.815C44.1629 111.619 40.7628 111.503 37.7374 110.95C37.6971 110.942 37.6595 110.936 37.6192 110.928C38.4332 108.632 38.7641 106.199 38.5921 103.775C37.7811 106.204 36.4006 108.415 34.5604 110.23C32.5546 109.691 30.5967 108.994 28.7059 108.146C27.4825 107.596 26.1652 106.844 25.8257 105.571C25.4853 104.307 26.2757 102.981 27.3327 102.183C28.3896 101.385 29.6869 100.969 30.891 100.4C32.0931 99.8344 33.2827 99.0276 33.7641 97.8096C34.8742 95.0077 31.7117 91.7926 32.9442 89.0383C33.552 87.684 35.0407 86.9472 36.4399 86.3793C38.576 85.5145 40.7695 84.7918 43.0054 84.216C44.9682 83.7103 47.0176 83.3173 49.0171 83.6488C51.0166 83.9803 52.9755 85.1683 53.6952 87.0232C54.8959 87.4196 56.1707 87.8664 56.9413 88.8537C57.7116 89.8386 57.6495 91.5343 56.5058 92.0696Z" fill="#2F2E41"/>
<path d="M66.1171 88.8233C63.0269 86.4403 60.5284 86.8471 58.6009 88.3276C58.2769 87.9755 56.8979 88.9443 56.431 88.805L54.7423 91.9018C53.8733 93.3997 53.5168 94.9287 53.6573 95.7893C52.0588 100.168 55.8494 103.125 60.332 104.686C62.1207 105.313 64.0723 105.341 65.8789 104.765L65.934 104.018L66.2734 104.63C66.2734 104.63 70.3714 112.872 71.3398 113.242C70.7522 111.754 69.2025 104.677 68.7699 103.202C68.1767 101.195 68.5819 98.0067 68.9305 96.0518C69.1478 94.8466 69.1592 93.6146 68.9642 92.4057L68.9555 92.3529L69.9143 94.2435L72.0656 92.9221C71.2434 90.5829 71.227 87.7845 66.1171 88.8233Z" fill="#2F2E41"/>
<path d="M168.698 102.851L176.03 103.059C176.97 103.086 177.997 103.084 178.73 102.489C179.128 102.117 179.447 101.667 179.669 101.167C180.47 99.639 181.272 98.1105 182.057 96.5733C183.143 94.4469 184.222 92.1965 184.18 89.8064C184.212 88.719 183.844 87.6587 183.146 86.8302C182.788 86.4293 182.309 86.1593 181.783 86.0626C181.257 85.9659 180.713 86.0479 180.238 86.2958C180.185 85.5367 179.962 84.7998 179.586 84.1409C179.209 83.482 178.689 82.9183 178.065 82.4924C176.802 81.65 175.319 81.2065 173.805 81.2184C171.611 81.1858 169.462 81.8478 167.658 83.1114C167.147 83.5163 166.607 83.8819 166.041 84.2052C165.757 84.3656 165.444 84.4658 165.12 84.4998C164.796 84.5339 164.469 84.501 164.159 84.4032C163.852 84.2936 163.596 84.0757 163.436 83.7898C163.277 83.5039 163.225 83.1693 163.291 82.8478C162.746 83.1947 162.348 83.7339 162.175 84.3603C162.002 84.9868 162.066 85.6554 162.356 86.2359C161.964 86.3658 161.545 86.3914 161.141 86.31C160.737 86.2286 160.361 86.0431 160.049 85.7715C159.679 85.921 159.345 86.1466 159.067 86.4339C158.788 86.7212 158.573 87.0639 158.433 87.44C158.294 87.8162 158.233 88.2174 158.256 88.6181C158.279 89.0188 158.385 89.4101 158.567 89.767C158.748 90.1238 159.002 90.4384 159.311 90.6904C159.62 90.9425 159.978 91.1266 160.362 91.2309C160.746 91.3351 161.148 91.3573 161.541 91.296C161.934 91.2346 162.311 91.0911 162.646 90.8746C163.039 91.5365 162.806 92.3746 162.687 93.1375C162.568 93.9003 162.695 94.8705 163.411 95.1412C164.38 95.5073 165.29 94.2247 166.32 94.3215C166.573 94.3627 166.811 94.4662 167.014 94.6229C167.218 94.7795 167.38 94.9844 167.486 95.2194C167.692 95.6912 167.819 96.1946 167.862 96.7089L168.702 102.809" fill="#2F2E41"/>
<defs>
<filter id="filter0_d_273_218" x="0" y="0" width="210" height="250" filterUnits="userSpaceOnUse" color-interpolation-filters="sRGB">
<feFlood flood-opacity="0" result="BackgroundImageFix"/>
<feColorMatrix in="SourceAlpha" type="matrix" values="0 0 0 0 0 0 0 0 0 0 0 0 0 0 0 0 0 0 127 0" result="hardAlpha"/>
<feOffset dy="4"/>
<feGaussianBlur stdDeviation="5"/>
<feComposite in2="hardAlpha" operator="out"/>
<feColorMatrix type="matrix" values="0 0 0 0 0 0 0 0 0 0 0 0 0 0 0 0 0 0 0.1 0"/>
<feBlend mode="normal" in2="BackgroundImageFix" result="effect1_dropShadow_273_218"/>
<feBlend mode="normal" in="SourceGraphic" in2="effect1_dropShadow_273_218" result="shape"/>
</filter>
</defs>
</svg>
