<svg width="25" height="24" viewBox="0 0 25 24" fill="none" xmlns="http://www.w3.org/2000/svg">
<path d="M12.3403 0.75C7.43549 0.75 3.27948 3.9 1.74438 8.25H22.9363C21.4012 3.9 17.2452 0.75 12.3403 0.75Z" fill="black"/>
<path d="M12.3403 23.25C17.2452 23.25 21.4012 20.1375 22.9363 15.75H1.74438C3.27948 20.1375 7.43549 23.25 12.3403 23.25Z" fill="#FFCC00"/>
<path d="M1.74435 8.25C1.3325 9.4125 1.10785 10.6875 1.10785 12C1.10785 13.3125 1.3325 14.5875 1.74435 15.75H22.9362C23.3481 14.5875 23.5727 13.3125 23.5727 12C23.5727 10.6875 23.3481 9.4125 22.9362 8.25H1.74435Z" fill="#DD0000"/>
</svg>
