<svg width="25" height="33" viewBox="0 0 25 33" fill="none" xmlns="http://www.w3.org/2000/svg">
<path d="M12.5031 16.112C13.2453 16.112 13.8827 15.8477 14.4154 15.3191C14.948 14.7906 15.2143 14.1552 15.2143 13.413C15.2143 12.6708 14.9486 12.0334 14.4174 11.5008C13.8862 10.9682 13.2476 10.7019 12.5017 10.7019C11.7557 10.7019 11.1196 10.9675 10.5934 11.4987C10.0672 12.0299 9.80416 12.6685 9.80416 13.4145C9.80416 14.1604 10.0684 14.7965 10.597 15.3227C11.1255 15.8489 11.7609 16.112 12.5031 16.112ZM12.4996 28.7176C15.8708 25.6477 18.3672 22.8576 19.989 20.3474C21.6107 17.8372 22.4215 15.6293 22.4215 13.7238C22.4215 10.7171 21.4668 8.26051 19.5574 6.35414C17.648 4.44776 15.2966 3.49458 12.5031 3.49458C9.70958 3.49458 7.36017 4.44837 5.45485 6.35595C3.54953 8.26353 2.59687 10.7224 2.59687 13.7325C2.59687 15.6412 3.42386 17.8476 5.07784 20.3516C6.73184 22.8556 9.20575 25.6443 12.4996 28.7176ZM12.4996 32.0422C8.32646 28.4919 5.21115 25.2006 3.15365 22.1681C1.09614 19.1356 0.0673828 16.3221 0.0673828 13.7275C0.0673828 9.83147 1.31725 6.73037 3.81699 4.42424C6.31675 2.11814 9.21153 0.965088 12.5013 0.965088C15.7912 0.965088 18.6886 2.11918 21.1936 4.42736C23.6985 6.73555 24.951 9.83473 24.951 13.7249C24.951 16.3187 23.9191 19.1325 21.8551 22.1662C19.7912 25.1999 16.6727 28.4919 12.4996 32.0422Z" fill="white"/>
</svg>
