<svg width="17" height="14" viewBox="0 0 17 14" fill="none" xmlns="http://www.w3.org/2000/svg">
<path d="M14.2244 6.1542C13.97 4.6159 13.225 3.37431 11.9893 2.42941C10.7536 1.48451 9.35499 1.08688 7.79337 1.2365L7.64854 0.107865C8.58515 0.0104879 9.4847 0.0939707 10.3472 0.358313C11.2097 0.622671 11.9865 1.02024 12.6777 1.55102C13.3689 2.08179 13.9526 2.72691 14.429 3.48638C14.9054 4.24584 15.217 5.08622 15.3637 6.00754L14.2244 6.1542ZM10.9324 6.57795C10.7822 5.95436 10.453 5.44779 9.94473 5.05824C9.43646 4.66867 8.85934 4.48574 8.21336 4.50943L8.06853 3.38081C9.02474 3.31717 9.88342 3.57572 10.6446 4.15644C11.4057 4.73715 11.8815 5.49544 12.0718 6.43129L10.9324 6.57795ZM15.4988 13.2125C13.944 13.4126 12.3435 13.2302 10.6973 12.6651C9.05111 12.1001 7.53166 11.2862 6.13896 10.2234C4.74628 9.16071 3.5655 7.91022 2.59662 6.47196C1.62776 5.03371 1.0445 3.54447 0.846855 2.00424C0.813683 1.74574 0.86601 1.52812 1.00384 1.35138C1.14166 1.17463 1.34038 1.06954 1.6 1.03612L4.19987 0.701454C4.39412 0.67645 4.57854 0.720734 4.75313 0.834308C4.9277 0.947883 5.0497 1.10349 5.11913 1.30114L5.92897 3.60482C5.98443 3.79116 5.99887 3.96515 5.97231 4.12678C5.94575 4.28841 5.89376 4.41309 5.81636 4.50082L4.13935 6.62709C5.00052 7.71744 5.94431 8.65104 6.97072 9.42788C7.99714 10.2047 9.10588 10.8304 10.2969 11.3049L11.9694 9.12908C12.0699 8.98514 12.1847 8.87992 12.3137 8.81343C12.4427 8.74693 12.584 8.72345 12.7377 8.74297L15.0878 8.95893C15.3019 8.97558 15.4894 9.05697 15.6504 9.20308C15.8114 9.3492 15.9052 9.52586 15.9318 9.73306L16.2542 12.2461C16.2872 12.5033 16.2348 12.7202 16.097 12.897C15.9592 13.0737 15.7598 13.1789 15.4988 13.2125ZM3.4401 5.67261L4.78399 4.00466C4.80147 3.98225 4.81173 3.95321 4.81479 3.91755C4.81784 3.88188 4.81496 3.8495 4.80613 3.82041L4.13614 1.97787C4.12604 1.93886 4.10596 1.91121 4.07591 1.89494C4.04583 1.87865 4.01078 1.87308 3.97075 1.87823L2.16513 2.11066C2.1351 2.11452 2.11136 2.12766 2.09389 2.15007C2.07642 2.17247 2.06959 2.19854 2.0734 2.22828C2.12853 2.73715 2.26842 3.27037 2.49307 3.82794C2.71772 4.38551 3.0334 5.0004 3.4401 5.67261ZM11.451 11.7126C12.0047 11.9053 12.5979 12.0313 13.2306 12.0904C13.8633 12.1495 14.4441 12.1597 14.9732 12.1208C15.0049 12.1298 15.0291 12.1199 15.0457 12.091C15.0623 12.0622 15.0688 12.0329 15.0649 12.0032L14.8314 10.1831C14.8263 10.1434 14.812 10.1112 14.7885 10.0865C14.765 10.0618 14.7329 10.0496 14.6922 10.0498L12.8736 9.89695C12.8429 9.89585 12.8168 9.90047 12.7952 9.91081C12.7737 9.92114 12.7516 9.93783 12.7292 9.96087L11.451 11.7126Z" fill="white"/>
</svg>
