<svg width="210" height="250" viewBox="0 0 210 250" fill="none" xmlns="http://www.w3.org/2000/svg">
<g filter="url(#filter0_d_273_292)">
<rect x="10" y="6" width="190" height="230" rx="14" fill="white"/>
</g>
<path d="M178.87 159.94C178.87 158.735 178.465 157.758 177.968 157.755H42.486C41.9867 157.758 41.5842 158.735 41.582 159.94V209.534C41.582 209.646 41.5403 209.753 41.4652 209.836C41.39 209.919 41.2866 209.971 41.1752 209.982C40.8116 210.017 40.448 210.049 40.0843 210.079C40.0753 210.079 40.0663 210.081 40.0573 210.081C39.8595 210.099 39.6616 210.113 39.4637 210.129H39.4614C39.3596 209.941 39.259 209.751 39.1596 209.559C39.126 209.495 39.1084 209.423 39.1084 209.351V157.106C39.1084 156.773 39.1219 156.438 39.1444 156.108C39.1764 155.654 39.2328 155.202 39.313 154.755C39.693 152.667 40.552 151.253 41.528 151.248H178.924C179.066 151.249 179.207 151.279 179.338 151.336C179.529 151.421 179.703 151.542 179.848 151.693C180.045 151.898 180.214 152.129 180.35 152.379C180.909 153.494 181.232 154.713 181.296 155.959C181.296 155.973 181.298 155.986 181.298 156C181.33 156.364 181.346 156.735 181.343 157.106L181.375 161.923L181.395 164.795L181.456 173.808L181.478 177.009L181.577 209.87C181.577 209.989 181.53 210.104 181.446 210.188C181.361 210.272 181.247 210.32 181.128 210.32H179.32C179.2 210.32 179.086 210.272 179.002 210.188C178.917 210.104 178.87 209.989 178.87 209.87V159.94Z" fill="#E6E6E6"/>
<path d="M142.055 128.709H127.457C127.25 128.71 127.052 128.792 126.907 128.938C126.761 129.084 126.679 129.282 126.679 129.489V152.539H142.835V129.489C142.835 129.386 142.815 129.285 142.776 129.19C142.737 129.096 142.679 129.01 142.607 128.937C142.534 128.865 142.448 128.808 142.354 128.768C142.259 128.729 142.158 128.709 142.055 128.709ZM134.805 141.806C134.349 141.804 133.911 141.622 133.589 141.299C133.266 140.977 133.084 140.54 133.081 140.083V137.425C133.081 136.968 133.263 136.529 133.586 136.206C133.91 135.883 134.348 135.702 134.805 135.702C135.262 135.702 135.701 135.883 136.024 136.206C136.347 136.529 136.529 136.968 136.529 137.425V140.083C136.527 140.54 136.345 140.977 136.022 141.299C135.699 141.622 135.262 141.804 134.805 141.806Z" fill="#CCCCCC"/>
<path d="M126.629 151.802V154.026C126.629 154.141 126.675 154.252 126.757 154.333C126.838 154.415 126.949 154.46 127.064 154.461H142.45C142.565 154.46 142.676 154.414 142.757 154.333C142.838 154.251 142.884 154.141 142.885 154.026V151.802H126.629Z" fill="#3F3D56"/>
<path d="M166.229 92.7363H103.826C103.29 92.7372 102.776 92.9504 102.397 93.3294C102.018 93.7083 101.805 94.222 101.804 94.7579V136.848C101.804 137.384 102.017 137.898 102.397 138.277C102.776 138.656 103.29 138.869 103.826 138.87H166.229C166.765 138.869 167.279 138.656 167.658 138.277C168.038 137.898 168.251 137.384 168.251 136.848V94.7579C168.251 94.222 168.037 93.7083 167.658 93.3294C167.279 92.9504 166.765 92.7372 166.229 92.7363Z" fill="#E6E6E6"/>
<path d="M165.708 94.196H104.348C104.061 94.1967 103.786 94.3111 103.583 94.5142C103.38 94.7173 103.266 94.9925 103.266 95.2794V136.327C103.267 136.613 103.381 136.888 103.583 137.091C103.786 137.293 104.061 137.407 104.348 137.408H165.708C165.995 137.407 166.27 137.293 166.472 137.091C166.675 136.888 166.789 136.613 166.79 136.327V95.2794C166.79 94.9925 166.676 94.7173 166.473 94.5142C166.27 94.3111 165.995 94.1967 165.708 94.196Z" fill="white"/>
<path d="M153.756 155.235H117.25C117.15 155.235 117.052 155.212 116.961 155.169C116.871 155.127 116.792 155.064 116.729 154.986C116.666 154.909 116.621 154.818 116.597 154.721C116.574 154.624 116.572 154.523 116.593 154.425L117.159 151.736C117.192 151.586 117.274 151.451 117.394 151.354C117.513 151.257 117.663 151.204 117.817 151.203H153.19C153.344 151.204 153.493 151.257 153.612 151.354C153.732 151.451 153.815 151.586 153.847 151.736L154.413 154.425C154.434 154.523 154.433 154.624 154.409 154.721C154.386 154.818 154.341 154.909 154.278 154.986C154.215 155.064 154.135 155.127 154.045 155.169C153.955 155.212 153.856 155.235 153.756 155.235Z" fill="#CCCCCC"/>
<path d="M119.003 151.688H118.273C118.164 151.688 118.076 151.776 118.076 151.885V152.165C118.076 152.274 118.164 152.362 118.273 152.362H119.003C119.112 152.362 119.2 152.274 119.2 152.165V151.885C119.2 151.776 119.112 151.688 119.003 151.688Z" fill="#E6E6E6"/>
<path d="M121.251 151.688H120.521C120.413 151.688 120.324 151.776 120.324 151.885V152.165C120.324 152.274 120.413 152.362 120.521 152.362H121.251C121.36 152.362 121.449 152.274 121.449 152.165V151.885C121.449 151.776 121.36 151.688 121.251 151.688Z" fill="#E6E6E6"/>
<path d="M123.5 151.688H122.77C122.661 151.688 122.573 151.776 122.573 151.885V152.165C122.573 152.274 122.661 152.362 122.77 152.362H123.5C123.609 152.362 123.697 152.274 123.697 152.165V151.885C123.697 151.776 123.609 151.688 123.5 151.688Z" fill="#E6E6E6"/>
<path d="M125.749 151.688H125.019C124.91 151.688 124.822 151.776 124.822 151.885V152.165C124.822 152.274 124.91 152.362 125.019 152.362H125.749C125.858 152.362 125.946 152.274 125.946 152.165V151.885C125.946 151.776 125.858 151.688 125.749 151.688Z" fill="#E6E6E6"/>
<path d="M127.997 151.688H127.268C127.159 151.688 127.07 151.776 127.07 151.885V152.165C127.07 152.274 127.159 152.362 127.268 152.362H127.997C128.106 152.362 128.195 152.274 128.195 152.165V151.885C128.195 151.776 128.106 151.688 127.997 151.688Z" fill="#E6E6E6"/>
<path d="M130.246 151.688H129.516C129.407 151.688 129.319 151.776 129.319 151.885V152.165C129.319 152.274 129.407 152.362 129.516 152.362H130.246C130.355 152.362 130.443 152.274 130.443 152.165V151.885C130.443 151.776 130.355 151.688 130.246 151.688Z" fill="#E6E6E6"/>
<path d="M132.495 151.688H131.765C131.656 151.688 131.568 151.776 131.568 151.885V152.165C131.568 152.274 131.656 152.362 131.765 152.362H132.495C132.604 152.362 132.692 152.274 132.692 152.165V151.885C132.692 151.776 132.604 151.688 132.495 151.688Z" fill="#E6E6E6"/>
<path d="M134.744 151.688H134.014C133.905 151.688 133.816 151.776 133.816 151.885V152.165C133.816 152.274 133.905 152.362 134.014 152.362H134.744C134.852 152.362 134.941 152.274 134.941 152.165V151.885C134.941 151.776 134.852 151.688 134.744 151.688Z" fill="#E6E6E6"/>
<path d="M136.993 151.688H136.263C136.154 151.688 136.065 151.776 136.065 151.885V152.165C136.065 152.274 136.154 152.362 136.263 152.362H136.993C137.101 152.362 137.19 152.274 137.19 152.165V151.885C137.19 151.776 137.101 151.688 136.993 151.688Z" fill="#E6E6E6"/>
<path d="M139.241 151.688H138.511C138.402 151.688 138.314 151.776 138.314 151.885V152.165C138.314 152.274 138.402 152.362 138.511 152.362H139.241C139.35 152.362 139.438 152.274 139.438 152.165V151.885C139.438 151.776 139.35 151.688 139.241 151.688Z" fill="#E6E6E6"/>
<path d="M141.49 151.688H140.76C140.651 151.688 140.562 151.776 140.562 151.885V152.165C140.562 152.274 140.651 152.362 140.76 152.362H141.49C141.599 152.362 141.687 152.274 141.687 152.165V151.885C141.687 151.776 141.599 151.688 141.49 151.688Z" fill="#E6E6E6"/>
<path d="M143.739 151.688H143.009C142.9 151.688 142.812 151.776 142.812 151.885V152.165C142.812 152.274 142.9 152.362 143.009 152.362H143.739C143.848 152.362 143.936 152.274 143.936 152.165V151.885C143.936 151.776 143.848 151.688 143.739 151.688Z" fill="#E6E6E6"/>
<path d="M145.987 151.688H145.257C145.148 151.688 145.06 151.776 145.06 151.885V152.165C145.06 152.274 145.148 152.362 145.257 152.362H145.987C146.096 152.362 146.184 152.274 146.184 152.165V151.885C146.184 151.776 146.096 151.688 145.987 151.688Z" fill="#E6E6E6"/>
<path d="M148.236 151.688H147.506C147.397 151.688 147.309 151.776 147.309 151.885V152.165C147.309 152.274 147.397 152.362 147.506 152.362H148.236C148.345 152.362 148.433 152.274 148.433 152.165V151.885C148.433 151.776 148.345 151.688 148.236 151.688Z" fill="#E6E6E6"/>
<path d="M150.484 151.688H149.754C149.645 151.688 149.557 151.776 149.557 151.885V152.165C149.557 152.274 149.645 152.362 149.754 152.362H150.484C150.593 152.362 150.681 152.274 150.681 152.165V151.885C150.681 151.776 150.593 151.688 150.484 151.688Z" fill="#E6E6E6"/>
<path d="M152.733 151.688H152.003C151.894 151.688 151.806 151.776 151.806 151.885V152.165C151.806 152.274 151.894 152.362 152.003 152.362H152.733C152.842 152.362 152.931 152.274 152.931 152.165V151.885C152.931 151.776 152.842 151.688 152.733 151.688Z" fill="#E6E6E6"/>
<path d="M118.976 152.812H118.247C118.138 152.812 118.049 152.9 118.049 153.009V153.289C118.049 153.398 118.138 153.486 118.247 153.486H118.976C119.085 153.486 119.174 153.398 119.174 153.289V153.009C119.174 152.9 119.085 152.812 118.976 152.812Z" fill="#E6E6E6"/>
<path d="M121.225 152.812H120.495C120.386 152.812 120.298 152.9 120.298 153.009V153.289C120.298 153.398 120.386 153.486 120.495 153.486H121.225C121.334 153.486 121.422 153.398 121.422 153.289V153.009C121.422 152.9 121.334 152.812 121.225 152.812Z" fill="#E6E6E6"/>
<path d="M123.474 152.812H122.744C122.635 152.812 122.546 152.9 122.546 153.009V153.289C122.546 153.398 122.635 153.486 122.744 153.486H123.474C123.582 153.486 123.671 153.398 123.671 153.289V153.009C123.671 152.9 123.582 152.812 123.474 152.812Z" fill="#E6E6E6"/>
<path d="M125.722 152.812H124.992C124.883 152.812 124.795 152.9 124.795 153.009V153.289C124.795 153.398 124.883 153.486 124.992 153.486H125.722C125.831 153.486 125.919 153.398 125.919 153.289V153.009C125.919 152.9 125.831 152.812 125.722 152.812Z" fill="#E6E6E6"/>
<path d="M127.971 152.812H127.241C127.132 152.812 127.044 152.9 127.044 153.009V153.289C127.044 153.398 127.132 153.486 127.241 153.486H127.971C128.08 153.486 128.168 153.398 128.168 153.289V153.009C128.168 152.9 128.08 152.812 127.971 152.812Z" fill="#E6E6E6"/>
<path d="M130.22 152.812H129.49C129.381 152.812 129.292 152.9 129.292 153.009V153.289C129.292 153.398 129.381 153.486 129.49 153.486H130.22C130.329 153.486 130.417 153.398 130.417 153.289V153.009C130.417 152.9 130.329 152.812 130.22 152.812Z" fill="#E6E6E6"/>
<path d="M132.468 152.812H131.738C131.629 152.812 131.541 152.9 131.541 153.009V153.289C131.541 153.398 131.629 153.486 131.738 153.486H132.468C132.577 153.486 132.665 153.398 132.665 153.289V153.009C132.665 152.9 132.577 152.812 132.468 152.812Z" fill="#E6E6E6"/>
<path d="M134.717 152.812H133.987C133.878 152.812 133.79 152.9 133.79 153.009V153.289C133.79 153.398 133.878 153.486 133.987 153.486H134.717C134.826 153.486 134.914 153.398 134.914 153.289V153.009C134.914 152.9 134.826 152.812 134.717 152.812Z" fill="#E6E6E6"/>
<path d="M136.966 152.812H136.236C136.127 152.812 136.039 152.9 136.039 153.009V153.289C136.039 153.398 136.127 153.486 136.236 153.486H136.966C137.075 153.486 137.163 153.398 137.163 153.289V153.009C137.163 152.9 137.075 152.812 136.966 152.812Z" fill="#E6E6E6"/>
<path d="M139.214 152.812H138.484C138.375 152.812 138.287 152.9 138.287 153.009V153.289C138.287 153.398 138.375 153.486 138.484 153.486H139.214C139.323 153.486 139.411 153.398 139.411 153.289V153.009C139.411 152.9 139.323 152.812 139.214 152.812Z" fill="#E6E6E6"/>
<path d="M141.463 152.812H140.733C140.624 152.812 140.536 152.9 140.536 153.009V153.289C140.536 153.398 140.624 153.486 140.733 153.486H141.463C141.572 153.486 141.66 153.398 141.66 153.289V153.009C141.66 152.9 141.572 152.812 141.463 152.812Z" fill="#E6E6E6"/>
<path d="M143.712 152.812H142.982C142.873 152.812 142.785 152.9 142.785 153.009V153.289C142.785 153.398 142.873 153.486 142.982 153.486H143.712C143.821 153.486 143.91 153.398 143.91 153.289V153.009C143.91 152.9 143.821 152.812 143.712 152.812Z" fill="#E6E6E6"/>
<path d="M145.961 152.812H145.231C145.122 152.812 145.034 152.9 145.034 153.009V153.289C145.034 153.398 145.122 153.486 145.231 153.486H145.961C146.07 153.486 146.158 153.398 146.158 153.289V153.009C146.158 152.9 146.07 152.812 145.961 152.812Z" fill="#E6E6E6"/>
<path d="M148.209 152.812H147.479C147.371 152.812 147.282 152.9 147.282 153.009V153.289C147.282 153.398 147.371 153.486 147.479 153.486H148.209C148.318 153.486 148.407 153.398 148.407 153.289V153.009C148.407 152.9 148.318 152.812 148.209 152.812Z" fill="#E6E6E6"/>
<path d="M150.458 152.812H149.728C149.619 152.812 149.531 152.9 149.531 153.009V153.289C149.531 153.398 149.619 153.486 149.728 153.486H150.458C150.567 153.486 150.655 153.398 150.655 153.289V153.009C150.655 152.9 150.567 152.812 150.458 152.812Z" fill="#E6E6E6"/>
<path d="M152.707 152.812H151.977C151.868 152.812 151.78 152.9 151.78 153.009V153.289C151.78 153.398 151.868 153.486 151.977 153.486H152.707C152.816 153.486 152.904 153.398 152.904 153.289V153.009C152.904 152.9 152.816 152.812 152.707 152.812Z" fill="#E6E6E6"/>
<path d="M137.64 154.16H129.04C128.931 154.16 128.843 154.249 128.843 154.358V154.638C128.843 154.746 128.931 154.835 129.04 154.835H137.64C137.749 154.835 137.838 154.746 137.838 154.638V154.358C137.838 154.249 137.749 154.16 137.64 154.16Z" fill="#E6E6E6"/>
<path d="M162.623 99.8515H105.209C105.149 99.8501 105.092 99.8255 105.05 99.7828C105.009 99.7402 104.985 99.6829 104.985 99.6232C104.985 99.5636 105.009 99.5063 105.05 99.4636C105.092 99.421 105.149 99.3963 105.209 99.395H162.623C162.683 99.3963 162.74 99.421 162.782 99.4636C162.823 99.5063 162.847 99.5636 162.847 99.6232C162.847 99.6829 162.823 99.7402 162.782 99.7828C162.74 99.8255 162.683 99.8501 162.623 99.8515Z" fill="#CACACA"/>
<path d="M109.117 98.2297C109.856 98.2297 110.455 97.6175 110.455 96.8624C110.455 96.1073 109.856 95.4951 109.117 95.4951C108.378 95.4951 107.779 96.1073 107.779 96.8624C107.779 97.6175 108.378 98.2297 109.117 98.2297Z" fill="#CCCCCC"/>
<path d="M113.74 98.2297C114.479 98.2297 115.078 97.6175 115.078 96.8624C115.078 96.1073 114.479 95.4951 113.74 95.4951C113.001 95.4951 112.402 96.1073 112.402 96.8624C112.402 97.6175 113.001 98.2297 113.74 98.2297Z" fill="#CCCCCC"/>
<path d="M118.362 98.2297C119.101 98.2297 119.7 97.6175 119.7 96.8624C119.7 96.1073 119.101 95.4951 118.362 95.4951C117.623 95.4951 117.024 96.1073 117.024 96.8624C117.024 97.6175 117.623 98.2297 118.362 98.2297Z" fill="#CCCCCC"/>
<path d="M159.84 95.8342H156.557C156.492 95.8355 156.43 95.8623 156.384 95.9087C156.339 95.9552 156.313 96.0177 156.313 96.0827C156.313 96.1478 156.339 96.2103 156.384 96.2567C156.43 96.3032 156.492 96.33 156.557 96.3312H159.84C159.905 96.33 159.967 96.3032 160.013 96.2567C160.059 96.2103 160.084 96.1478 160.084 96.0827C160.084 96.0177 160.059 95.9552 160.013 95.9087C159.967 95.8623 159.905 95.8355 159.84 95.8342Z" fill="#CCCCCC"/>
<path d="M159.84 96.7673H156.557C156.492 96.7686 156.43 96.7954 156.384 96.8419C156.338 96.8883 156.313 96.9508 156.313 97.0158C156.313 97.0809 156.338 97.1434 156.384 97.1898C156.43 97.2363 156.492 97.263 156.557 97.2644H159.84C159.905 97.263 159.967 97.2363 160.013 97.1898C160.058 97.1434 160.084 97.0809 160.084 97.0158C160.084 96.9508 160.058 96.8883 160.013 96.8419C159.967 96.7954 159.905 96.7686 159.84 96.7673Z" fill="#CCCCCC"/>
<path d="M159.84 97.699H156.557C156.492 97.7003 156.43 97.727 156.384 97.7735C156.339 97.8199 156.313 97.8824 156.313 97.9475C156.313 98.0126 156.339 98.075 156.384 98.1215C156.43 98.168 156.492 98.1947 156.557 98.196H159.84C159.905 98.1947 159.967 98.168 160.013 98.1215C160.059 98.075 160.084 98.0126 160.084 97.9475C160.084 97.8824 160.059 97.8199 160.013 97.7735C159.967 97.727 159.905 97.7003 159.84 97.699Z" fill="#CCCCCC"/>
<path d="M138.552 112.285H131.378C130.839 112.285 130.402 112.722 130.402 113.261C130.402 113.799 130.839 114.236 131.378 114.236H138.552C139.091 114.236 139.528 113.799 139.528 113.261C139.528 112.722 139.091 112.285 138.552 112.285Z" fill="#CA0000"/>
<path d="M143.187 116.186H126.743C126.204 116.186 125.768 116.623 125.768 117.161C125.768 117.7 126.204 118.137 126.743 118.137H143.187C143.726 118.137 144.162 117.7 144.162 117.161C144.162 116.623 143.726 116.186 143.187 116.186Z" fill="#E6E6E6"/>
<path d="M143.187 120.088H126.743C126.204 120.088 125.768 120.524 125.768 121.063C125.768 121.602 126.204 122.038 126.743 122.038H143.187C143.726 122.038 144.162 121.602 144.162 121.063C144.162 120.524 143.726 120.088 143.187 120.088Z" fill="#E6E6E6"/>
<path d="M32.4044 180.862L29.0972 179.281L33.6402 165.463L38.5215 167.797L32.4044 180.862Z" fill="#FFB6B6"/>
<path d="M54.5775 178.635C54.337 178.785 54.0965 178.933 53.8536 179.082C53.3702 179.378 52.8819 179.669 52.3936 179.956C52.1482 180.099 51.9004 180.242 51.655 180.383V180.39L51.6405 180.393L51.6356 180.395L51.2615 180.488L50.7246 179.069L50.4768 178.416L50.127 177.491L49.4857 175.799L46.1089 166.887L51.3587 165.593L51.5555 166.397H51.5579L51.6551 166.795L53.4892 174.23L53.8633 175.75L53.8755 175.796L54.1014 176.704L54.2958 177.491L54.5119 178.37L54.5775 178.635Z" fill="#FFB6B6"/>
<path d="M85.8943 147.339C85.5615 147.874 85.2214 148.405 84.8789 148.932C84.2424 149.913 83.5889 150.88 82.9184 151.832C82.9184 151.834 82.916 151.834 82.9135 151.836C82.5224 152.199 82.0903 152.514 81.626 152.776C81.6066 152.791 81.5847 152.8 81.5653 152.813C81.2234 153.001 80.8594 153.147 80.4818 153.247C80.3457 153.281 80.2073 153.315 80.0712 153.349C79.5805 153.466 79.0946 153.565 78.6112 153.653C77.7512 153.806 76.9009 153.915 76.0555 153.983C75.9875 153.99 75.9195 153.995 75.8514 154C72.375 154.255 68.991 153.845 65.4587 153.172C63.7144 152.842 61.9337 152.446 60.0899 152.036C59.4874 151.9 58.8825 151.766 58.2703 151.632C58.2241 151.623 58.1755 151.611 58.127 151.601C57.2524 151.409 56.3633 151.22 55.4523 151.033C54.3056 150.797 53.1225 150.569 51.8933 150.353L51.9807 152.084C52.0535 153.416 52.3304 154.729 52.8019 155.977C53.3266 157.511 53.742 158.725 52.865 161.253L52.4423 162.477C52.6614 163.085 52.7366 163.735 52.662 164.377C52.5874 165.018 52.365 165.634 52.0123 166.175L51.9273 166.304L55.4523 175.218L55.6806 175.796H53.8756L51.6552 175.798H47.8922L42.4626 164.91L42.2026 164.39V164.364L42.7638 143.44C42.7711 143.255 42.7857 143.068 42.81 142.884C42.9089 142.045 43.1741 141.234 43.5899 140.498C44.0058 139.763 44.564 139.118 45.232 138.6C45.8722 138.1 46.6054 137.732 47.389 137.518C48.1727 137.304 48.9911 137.247 49.7967 137.352L51.6552 137.592L55.4522 138.083L58.1269 138.43L58.1804 138.437L66.0685 139.457L66.6345 137.15L66.7389 137.112L70.0599 135.895L81.5458 131.687L81.5749 131.677L82.3304 131.4L82.4203 131.546C82.4471 131.59 82.4738 131.634 82.4981 131.677C83.2448 133.015 83.8529 134.426 84.3128 135.888C85.0862 138.275 85.7229 140.705 86.2198 143.165C86.2417 143.272 86.2611 143.369 86.2781 143.457L86.2854 143.483C86.2927 143.525 86.2976 143.551 86.3 143.559C86.5277 144.832 86.3869 146.143 85.8943 147.339Z" fill="#2F2E41"/>
<path d="M86.3791 139.627C86.3426 139.472 86.2965 139.314 86.2479 139.161C85.8622 138.002 85.4129 136.866 84.9021 135.757C84.3287 134.494 83.6412 133.141 82.8225 131.677C82.4266 130.968 82.0006 130.231 81.5447 129.465C81.3163 129.081 81.0791 128.691 80.8329 128.292C80.8233 128.274 80.8128 128.256 80.8013 128.239L80.7309 128.122L69.3664 129.642L65.1345 130.208L64.8819 132.316L64.8211 132.838C64.8187 132.838 64.8187 132.838 64.8211 132.84L64.6511 134.263V134.266L64.4252 136.145L64.4057 136.143L58.1259 135.329L51.6541 134.492L48.1777 134.042C47.3721 133.937 46.5536 133.994 45.7699 134.208C44.9862 134.422 44.2531 134.79 43.613 135.29C42.9451 135.808 42.387 136.453 41.9712 137.189C41.5553 137.924 41.2901 138.735 41.191 139.574C41.1691 139.744 41.1545 139.919 41.1472 140.091L37.8676 147.859C35.9051 152.505 34.6553 157.42 34.1604 162.438L31.7554 170.124L32.0979 170.155L37.1947 170.629L38.5405 170.755L41.5043 166.43C41.842 165.937 42.1627 165.43 42.4615 164.91C42.9535 164.061 43.3908 163.182 43.7709 162.278L50.1819 147.029C50.6775 147.114 51.1682 147.195 51.6541 147.271C53.9013 147.636 56.0585 147.933 58.1259 148.163C64.8479 148.913 70.6685 148.971 75.8503 148.335C77.3055 148.158 78.7121 147.925 80.0701 147.636C80.5681 147.531 81.0597 147.419 81.5447 147.298C81.6589 147.271 81.7706 147.245 81.8824 147.216C82.8864 146.957 83.8094 146.45 84.567 145.743C85.3245 145.035 85.8925 144.149 86.2188 143.165C86.6083 142.025 86.6639 140.798 86.3791 139.627Z" fill="#2F2E41"/>
<path d="M33.461 178.606L29.8826 176.892L29.3214 176.622L28.425 178.822L22.167 180.199C21.8575 180.267 21.5779 180.432 21.3689 180.67C21.16 180.908 21.0326 181.206 21.0055 181.522C20.9783 181.837 21.0528 182.153 21.2181 182.423C21.3834 182.693 21.6307 182.904 21.924 183.023L28.0387 185.517L29.9797 183.771L29.5036 186.114L31.8066 187.054L34.3307 179.024L33.461 178.606Z" fill="#2F2E41"/>
<path d="M55.4521 175.218L55.6808 175.796H55.4521V175.218Z" fill="#2F2E41"/>
<path d="M54.2058 175.919L50.4563 177.217L49.8678 177.42L50.7795 179.614L47.3019 184.994C47.1297 185.259 47.0471 185.573 47.0662 185.889C47.0852 186.205 47.2048 186.507 47.4076 186.75C47.6104 186.994 47.8857 187.166 48.1933 187.241C48.5009 187.317 48.8246 187.292 49.1172 187.171L55.2176 184.643L55.3679 182.037L56.679 184.037L58.977 183.085L55.1178 175.604L54.2058 175.919Z" fill="#2F2E41"/>
<path d="M31.4484 95.5747C31.6262 95.9209 31.8778 96.2239 32.1854 96.4624C32.493 96.7009 32.8492 96.8691 33.2289 96.9552C33.6086 97.0412 34.0026 97.043 34.383 96.9604C34.7635 96.8777 35.1211 96.7128 35.4309 96.477L43.3154 101.709L43.3304 96.7932L35.8409 92.5787C35.4102 92.0848 34.8132 91.766 34.163 91.6826C33.5129 91.5993 32.8547 91.7573 32.3133 92.1266C31.7719 92.4959 31.3848 93.0508 31.2254 93.6864C31.066 94.3219 31.1454 94.9938 31.4484 95.5747Z" fill="#FFB6B6"/>
<path d="M37.3389 97.8471L41.0175 93.6641L55.9957 102.552L75.8511 100.735C76.8325 100.645 77.8217 100.772 78.7484 101.107C79.6751 101.443 80.5166 101.978 81.2132 102.675C81.9097 103.371 82.4443 104.213 82.7788 105.14C83.1133 106.066 83.2397 107.055 83.1489 108.036C82.9829 109.808 82.1206 111.441 80.7512 112.578C79.3818 113.715 77.6172 114.262 75.8445 114.1L53.4826 112.031L37.3389 97.8471Z" fill="#CCCCCC"/>
<path d="M83.4229 97.912L83.3884 97.8687C80.5952 97.5932 77.7821 98.1335 75.29 99.4242C72.7979 100.715 70.7339 102.7 69.3482 105.14L67.6632 108.107C62.2127 114.767 66.1734 119.361 66.4105 120.044L64.5186 128.763L64.9426 131.681L65.1544 132.548L86.7503 143.827C87.9798 137.922 86.7909 132.89 82.3115 129.046L86.6455 115.567C87.6065 112.587 87.8151 109.416 87.2528 106.335C86.6905 103.255 85.3748 100.361 83.4229 97.912Z" fill="#CCCCCC"/>
<path d="M66.2511 163.395H59.324C58.943 163.394 58.5748 163.257 58.2872 163.007C57.9996 162.757 57.8118 162.412 57.7583 162.035C57.3306 158.889 57.3306 155.699 57.7583 152.553C57.8112 152.181 57.9952 151.839 58.2773 151.59C58.5593 151.341 58.921 151.2 59.2974 151.194C61.4769 150.217 63.8241 150.217 66.275 151.194C66.5033 151.197 66.7281 151.25 66.9337 151.349C67.1393 151.448 67.3207 151.591 67.4652 151.767C67.6159 151.951 67.7237 152.166 67.7808 152.397C67.838 152.627 67.843 152.868 67.7955 153.101C67.239 155.869 67.239 158.72 67.7955 161.487C67.843 161.72 67.838 161.961 67.7808 162.191C67.7237 162.422 67.6159 162.637 67.4652 162.821C67.3182 163.001 67.133 163.145 66.923 163.245C66.7129 163.344 66.4835 163.395 66.2511 163.395Z" fill="#CA0000"/>
<path d="M65.5257 154.809H59.6952C59.6471 154.809 59.5994 154.8 59.5548 154.782C59.5102 154.764 59.4697 154.737 59.4355 154.703C59.4013 154.669 59.3742 154.629 59.3557 154.584C59.3372 154.54 59.3276 154.492 59.3276 154.444C59.3276 154.396 59.3372 154.349 59.3557 154.304C59.3742 154.26 59.4013 154.219 59.4355 154.186C59.4697 154.152 59.5102 154.125 59.5548 154.107C59.5994 154.089 59.6471 154.08 59.6952 154.08H65.5257C65.5738 154.08 65.6215 154.089 65.6661 154.107C65.7107 154.125 65.7512 154.152 65.7854 154.186C65.8196 154.219 65.8467 154.26 65.8653 154.304C65.8838 154.349 65.8933 154.396 65.8933 154.444C65.8933 154.492 65.8838 154.54 65.8653 154.584C65.8467 154.629 65.8196 154.669 65.7854 154.703C65.7512 154.737 65.7107 154.764 65.6661 154.782C65.6215 154.8 65.5738 154.809 65.5257 154.809Z" fill="white"/>
<path d="M65.5257 157.723H59.6952C59.6471 157.724 59.5994 157.714 59.5548 157.696C59.5102 157.678 59.4697 157.651 59.4355 157.618C59.4013 157.584 59.3742 157.543 59.3557 157.499C59.3372 157.455 59.3276 157.407 59.3276 157.359C59.3276 157.311 59.3372 157.263 59.3557 157.219C59.3742 157.174 59.4013 157.134 59.4355 157.1C59.4697 157.066 59.5102 157.04 59.5548 157.021C59.5994 157.003 59.6471 156.994 59.6952 156.995H65.5257C65.5738 156.994 65.6215 157.003 65.6661 157.021C65.7107 157.04 65.7512 157.066 65.7854 157.1C65.8196 157.134 65.8467 157.174 65.8653 157.219C65.8838 157.263 65.8933 157.311 65.8933 157.359C65.8933 157.407 65.8838 157.455 65.8653 157.499C65.8467 157.543 65.8196 157.584 65.7854 157.618C65.7512 157.651 65.7107 157.678 65.6661 157.696C65.6215 157.714 65.5738 157.724 65.5257 157.723Z" fill="white"/>
<path d="M65.5259 160.637H59.6955C59.6473 160.637 59.5996 160.628 59.555 160.61C59.5104 160.592 59.4698 160.565 59.4356 160.531C59.4014 160.497 59.3742 160.457 59.3557 160.413C59.3372 160.368 59.3276 160.321 59.3276 160.272C59.3276 160.224 59.3372 160.177 59.3557 160.132C59.3742 160.088 59.4014 160.048 59.4356 160.014C59.4698 159.98 59.5104 159.953 59.555 159.935C59.5996 159.917 59.6473 159.908 59.6955 159.908H65.5259C65.574 159.908 65.6218 159.917 65.6664 159.935C65.711 159.953 65.7516 159.98 65.7858 160.014C65.82 160.048 65.8472 160.088 65.8657 160.132C65.8842 160.177 65.8937 160.224 65.8937 160.272C65.8937 160.321 65.8842 160.368 65.8657 160.413C65.8472 160.457 65.82 160.497 65.7858 160.531C65.7516 160.565 65.711 160.592 65.6664 160.61C65.6218 160.628 65.574 160.637 65.5259 160.637Z" fill="white"/>
<path d="M32.7184 97.9749H25.7913C25.4103 97.9747 25.0421 97.837 24.7545 97.5872C24.4669 97.3374 24.2791 96.9923 24.2256 96.6152C23.7978 93.4691 23.7978 90.2797 24.2256 87.1336C24.2785 86.761 24.4625 86.4195 24.7445 86.1704C25.0266 85.9212 25.3883 85.7807 25.7647 85.7741C27.9442 84.7976 30.2914 84.7977 32.7423 85.774C32.9705 85.777 33.1954 85.8299 33.401 85.9291C33.6066 86.0282 33.788 86.1711 33.9325 86.3477C34.0832 86.5315 34.191 86.7465 34.2481 86.9771C34.3052 87.2078 34.3102 87.4482 34.2628 87.681C33.7063 90.4489 33.7063 93.2999 34.2628 96.0678C34.3102 96.3006 34.3052 96.5411 34.2481 96.7717C34.191 97.0023 34.0832 97.2173 33.9325 97.4011C33.7855 97.5809 33.6002 97.7256 33.3902 97.8249C33.1802 97.9242 32.9507 97.9754 32.7184 97.9749Z" fill="#CA0000"/>
<path d="M31.9929 89.3889H26.1625C26.1144 89.3893 26.0667 89.3802 26.0221 89.3621C25.9775 89.344 25.937 89.3172 25.9028 89.2833C25.8686 89.2495 25.8415 89.2092 25.823 89.1648C25.8044 89.1204 25.7949 89.0727 25.7949 89.0246C25.7949 88.9765 25.8044 88.9289 25.823 88.8845C25.8415 88.8401 25.8686 88.7998 25.9028 88.766C25.937 88.7321 25.9775 88.7053 26.0221 88.6872C26.0667 88.6691 26.1144 88.66 26.1625 88.6604H31.9929C32.0411 88.66 32.0888 88.6691 32.1334 88.6872C32.178 88.7053 32.2185 88.7321 32.2527 88.766C32.2869 88.7998 32.314 88.8401 32.3325 88.8845C32.3511 88.9289 32.3606 88.9765 32.3606 89.0246C32.3606 89.0727 32.3511 89.1204 32.3325 89.1648C32.314 89.2092 32.2869 89.2495 32.2527 89.2833C32.2185 89.3172 32.178 89.344 32.1334 89.3621C32.0888 89.3802 32.0411 89.3893 31.9929 89.3889Z" fill="white"/>
<path d="M31.9929 92.3027H26.1625C26.1144 92.3031 26.0667 92.294 26.0221 92.2759C25.9775 92.2578 25.937 92.231 25.9028 92.1972C25.8686 92.1633 25.8415 92.123 25.823 92.0786C25.8044 92.0342 25.7949 91.9866 25.7949 91.9385C25.7949 91.8904 25.8044 91.8427 25.823 91.7983C25.8415 91.7539 25.8686 91.7136 25.9028 91.6798C25.937 91.6459 25.9775 91.6192 26.0221 91.601C26.0667 91.5829 26.1144 91.5738 26.1625 91.5742H31.9929C32.0411 91.5738 32.0888 91.5829 32.1334 91.601C32.178 91.6192 32.2185 91.6459 32.2527 91.6798C32.2869 91.7136 32.314 91.7539 32.3325 91.7983C32.3511 91.8427 32.3606 91.8904 32.3606 91.9385C32.3606 91.9866 32.3511 92.0342 32.3325 92.0786C32.314 92.123 32.2869 92.1633 32.2527 92.1972C32.2185 92.231 32.178 92.2578 32.1334 92.2759C32.0888 92.294 32.0411 92.3031 31.9929 92.3027Z" fill="white"/>
<path d="M31.9927 95.2173H26.1623C26.1141 95.2177 26.0664 95.2086 26.0218 95.1905C25.9772 95.1724 25.9366 95.1457 25.9024 95.1118C25.8682 95.0779 25.841 95.0376 25.8225 94.9932C25.804 94.9488 25.7944 94.9012 25.7944 94.853C25.7944 94.8049 25.804 94.7573 25.8225 94.7128C25.841 94.6684 25.8682 94.6281 25.9024 94.5943C25.9366 94.5604 25.9772 94.5336 26.0218 94.5155C26.0664 94.4974 26.1141 94.4883 26.1623 94.4888H31.9927C32.0408 94.4883 32.0886 94.4974 32.1332 94.5155C32.1778 94.5336 32.2184 94.5604 32.2526 94.5943C32.2868 94.6281 32.3139 94.6684 32.3325 94.7128C32.351 94.7573 32.3605 94.8049 32.3605 94.853C32.3605 94.9012 32.351 94.9488 32.3325 94.9932C32.3139 95.0376 32.2868 95.0779 32.2526 95.1118C32.2184 95.1457 32.1778 95.1724 32.1332 95.1905C32.0886 95.2086 32.0408 95.2177 31.9927 95.2173Z" fill="white"/>
<path d="M68.2808 154.544C68.616 154.346 68.9037 154.077 69.1236 153.756C69.3436 153.435 69.4904 153.069 69.5538 152.685C69.6172 152.301 69.5956 151.908 69.4905 151.533C69.3855 151.159 69.1995 150.812 68.9457 150.517L73.7028 142.339L68.7928 142.616L65.0281 150.339C64.5604 150.798 64.2774 151.412 64.2328 152.066C64.1881 152.72 64.3849 153.367 64.7859 153.885C65.1868 154.404 65.764 154.757 66.4082 154.878C67.0523 155 67.7186 154.881 68.2808 154.544Z" fill="#FFB6B6"/>
<path d="M70.2 148.531L65.8042 145.109L73.7919 129.637L70.7989 109.933C70.651 108.959 70.7194 107.965 70.9993 107.02C71.2791 106.075 71.7636 105.204 72.4182 104.468C73.0729 103.731 73.8818 103.148 74.7873 102.759C75.6929 102.371 76.6729 102.186 77.6579 102.218C79.437 102.279 81.1194 103.042 82.336 104.341C83.5525 105.64 84.2039 107.368 84.1472 109.147L83.4077 131.582L70.2 148.531Z" fill="#CCCCCC"/>
<path d="M78.4439 95.3045C83.0977 95.3045 86.8702 91.5336 86.8702 86.882C86.8702 82.2304 83.0977 78.4595 78.4439 78.4595C73.7902 78.4595 70.0176 82.2304 70.0176 86.882C70.0176 91.5336 73.7902 95.3045 78.4439 95.3045Z" fill="#FFB6B6"/>
<path d="M105.487 99.275C104.515 100.652 103.095 101.651 101.47 102.102C100.82 102.295 100.148 102.409 99.4704 102.441C99.3868 101.675 99.1863 100.926 98.876 100.221C98.9076 100.972 98.8031 101.722 98.5676 102.436C97.5497 102.378 96.5546 102.112 95.6442 101.653C94.75 101.204 93.9729 100.552 93.3746 99.7496C92.7763 98.9474 92.3732 98.0169 92.1974 97.0319C91.8404 94.7281 92.8854 92.466 93.2632 90.1657C93.6427 87.8655 92.9305 84.9521 90.6777 84.3475C88.9621 83.8868 89.1545 84.086 87.7283 85.1443C89.2118 87.3369 83.7323 95.3716 81.4898 94.671C80.222 94.2749 79.4103 93.1121 79.1487 93.1121C77.3863 96.1467 80.7048 101.26 77.3603 102.322L77.6358 102.046C79.6547 99.5642 75.435 94.3107 77.4539 91.8286C78.0171 91.134 78.6167 90.3112 78.4503 89.433C78.2926 88.5982 76.9669 88.1565 76.5788 88.8424C77.2771 87.2436 76.246 85.1097 74.5391 84.6991C73.0228 84.3337 73.0505 84.784 71.5291 84.9797C71.4296 84.3225 71.2437 83.6813 70.9763 83.0727C71.0042 83.7284 70.9276 84.3844 70.7493 85.0161C70.2118 85.0056 69.6928 84.8181 69.2728 84.4826C68.0321 83.4832 68.2833 81.3839 69.3907 80.2389C70.4997 79.094 72.1477 78.6817 73.7194 78.415C74.1764 75.2347 82.955 74.9029 84.1186 78.0807C84.6143 75.7077 87.5862 74.4761 89.8961 75.2123C92.2061 75.9485 93.8091 78.105 94.653 80.3775C95.4969 82.6483 95.7326 85.0924 96.2525 87.4584C96.7723 89.8245 97.6509 92.2339 99.4601 93.8465C101.269 95.4573 104.217 95.9909 106.123 94.4943C106.4 95.2851 106.487 96.13 106.377 96.9606C106.266 97.7912 105.961 98.584 105.487 99.275Z" fill="#2F2E41"/>
<path d="M184.542 118.496L183.362 124.412C183.273 124.864 183.18 125.325 183.079 125.781C182.093 125.577 181.071 125.634 180.114 125.946C180.873 127.031 181.553 128.169 182.15 129.351C181.406 131.64 180.316 133.756 178.49 135.287C177.27 136.286 175.813 136.955 174.26 137.228C172.707 137.501 171.109 137.369 169.622 136.846L169.674 136.611C167.711 132.803 168.777 128.002 171.217 124.485C172.462 122.749 173.937 121.191 175.601 119.853C177.249 118.48 179.031 117.248 180.796 116.032C181.193 115.76 181.662 115.612 182.143 115.607C182.624 115.602 183.096 115.741 183.498 116.005C183.9 116.269 184.214 116.648 184.4 117.091C184.586 117.535 184.635 118.024 184.542 118.496Z" fill="#E4E4E4"/>
<path d="M170.042 151.081C169.545 147.465 169.034 143.804 169.383 140.149C169.692 136.904 170.682 133.735 172.699 131.136C173.77 129.759 175.072 128.579 176.548 127.649C176.933 127.407 177.287 128.016 176.904 128.258C174.35 129.871 172.375 132.253 171.263 135.061C170.035 138.184 169.838 141.587 170.051 144.904C170.179 146.91 170.45 148.902 170.724 150.893C170.746 150.983 170.732 151.078 170.687 151.159C170.641 151.239 170.566 151.299 170.477 151.327C170.387 151.351 170.291 151.339 170.21 151.293C170.128 151.246 170.069 151.17 170.043 151.08L170.042 151.081Z" fill="#F2F2F2"/>
<defs>
<filter id="filter0_d_273_292" x="0" y="0" width="210" height="250" filterUnits="userSpaceOnUse" color-interpolation-filters="sRGB">
<feFlood flood-opacity="0" result="BackgroundImageFix"/>
<feColorMatrix in="SourceAlpha" type="matrix" values="0 0 0 0 0 0 0 0 0 0 0 0 0 0 0 0 0 0 127 0" result="hardAlpha"/>
<feOffset dy="4"/>
<feGaussianBlur stdDeviation="5"/>
<feComposite in2="hardAlpha" operator="out"/>
<feColorMatrix type="matrix" values="0 0 0 0 0 0 0 0 0 0 0 0 0 0 0 0 0 0 0.1 0"/>
<feBlend mode="normal" in2="BackgroundImageFix" result="effect1_dropShadow_273_292"/>
<feBlend mode="normal" in="SourceGraphic" in2="effect1_dropShadow_273_292" result="shape"/>
</filter>
</defs>
</svg>
