<svg width="36" height="36" viewBox="0 0 36 36" fill="none" xmlns="http://www.w3.org/2000/svg">
<g clip-path="url(#clip0_1_500)">
<path d="M18.0432 25.5399C22.0385 25.5399 25.2773 22.296 25.2773 18.2945C25.2773 14.2929 22.0385 11.049 18.0432 11.049C14.0479 11.049 10.809 14.2929 10.809 18.2945C10.809 22.296 14.0479 25.5399 18.0432 25.5399Z" stroke="#fff" stroke-width="2" stroke-linecap="round" stroke-linejoin="round"/>
<path d="M18.0432 2.35448V5.25267" stroke="#fff" stroke-width="2" stroke-linecap="round" stroke-linejoin="round"/>
<path d="M18.0432 31.3363V34.2345" stroke="#fff" stroke-width="2" stroke-linecap="round" stroke-linejoin="round"/>
<path d="M6.7868 7.02056L8.8413 9.07827" stroke="#fff" stroke-width="2" stroke-linecap="round" stroke-linejoin="round"/>
<path d="M27.245 27.5107L29.2995 29.5684" stroke="#fff" stroke-width="2" stroke-linecap="round" stroke-linejoin="round"/>
<path d="M2.12805 18.2945H5.02171" stroke="#fff" stroke-width="2" stroke-linecap="round" stroke-linejoin="round"/>
<path d="M31.0646 18.2945H33.9583" stroke="#fff" stroke-width="2" stroke-linecap="round" stroke-linejoin="round"/>
<path d="M6.7868 29.5684L8.8413 27.5107" stroke="#fff" stroke-width="2" stroke-linecap="round" stroke-linejoin="round"/>
<path d="M27.245 9.07827L29.2995 7.02056" stroke="#fff" stroke-width="2" stroke-linecap="round" stroke-linejoin="round"/>
</g>
<defs>
<clipPath id="clip0_1_500">
<rect width="34.7239" height="34.7782" fill="white" transform="translate(0.681213 0.905396)"/>
</clipPath>
</defs>
</svg>
