<svg width="210" height="250" viewBox="0 0 210 250" fill="none" xmlns="http://www.w3.org/2000/svg">
<g filter="url(#filter0_d_273_375)">
<rect x="10" y="6" width="190" height="230" rx="14" fill="white"/>
</g>
<path d="M65.2971 113.795C64.9254 113.795 64.623 114.132 64.623 114.545V120.548C64.623 120.962 64.9254 121.298 65.2971 121.298C65.6689 121.298 65.9712 120.962 65.9712 120.548V114.545C65.9712 114.132 65.6689 113.795 65.2971 113.795Z" fill="#3F3D56"/>
<path d="M141.972 47H81.3361C74.46 47 68.8857 53.2047 68.8857 60.8586V180.126C68.8857 187.78 74.4599 193.984 81.3361 193.984H141.972C148.848 193.984 154.422 187.78 154.422 180.126V60.8586C154.422 53.2047 148.848 47 141.972 47Z" fill="white"/>
<path d="M141.971 195.001H81.3355C74.3079 195.001 68.5903 188.637 68.5903 180.814V61.5471C68.5903 53.7246 74.3078 47.3604 81.3355 47.3604H141.971C148.999 47.3604 154.717 53.7246 154.717 61.5471V180.814C154.717 188.637 148.999 195.001 141.971 195.001ZM81.3355 48.0167C74.6329 48.0167 69.18 54.0864 69.18 61.5471V180.814C69.18 188.275 74.6329 194.345 81.3355 194.345H141.971C148.674 194.345 154.127 188.275 154.127 180.814V61.5471C154.127 54.0864 148.674 48.0167 141.971 48.0167H81.3355Z" fill="#3F3D56" fill-opacity="0.12"/>
<path d="M146.364 76.0621H121.991C120.958 76.0621 120.117 75.1259 120.117 73.9753C120.117 72.8246 120.958 71.8884 121.991 71.8884H146.364C147.398 71.8884 148.239 72.8246 148.239 73.9753C148.239 75.1259 147.398 76.0621 146.364 76.0621Z" fill="#E6E6E6"/>
<path d="M123.499 92.4714H99.8084C99.2111 92.4714 98.7251 91.9304 98.7251 91.2656C98.7251 90.6008 99.2111 90.0601 99.8084 90.0601H123.499C124.097 90.0601 124.582 90.6008 124.582 91.2656C124.582 91.9304 124.097 92.4714 123.499 92.4714Z" fill="#CA0000"/>
<path d="M90.0423 52.1697H76.4613C76.4261 52.1697 76.3975 52.2015 76.3975 52.2408V54.0549C76.3975 54.0942 76.4261 54.126 76.4613 54.126H90.0423C90.0776 54.126 90.1061 54.0942 90.1061 54.0549V52.2408C90.1061 52.2015 90.0776 52.1697 90.0423 52.1697Z" fill="#E6E6E6"/>
<path d="M135.574 54.1262C136.35 54.1262 136.98 53.4255 136.98 52.5611C136.98 51.6968 136.35 50.9961 135.574 50.9961C134.797 50.9961 134.167 51.6968 134.167 52.5611C134.167 53.4255 134.797 54.1262 135.574 54.1262Z" fill="#E6E6E6"/>
<path d="M139.44 54.1262C140.217 54.1262 140.846 53.4255 140.846 52.5611C140.846 51.6968 140.217 50.9961 139.44 50.9961C138.664 50.9961 138.034 51.6968 138.034 52.5611C138.034 53.4255 138.664 54.1262 139.44 54.1262Z" fill="#E6E6E6"/>
<path d="M143.307 54.1262C144.083 54.1262 144.713 53.4255 144.713 52.5611C144.713 51.6968 144.083 50.9961 143.307 50.9961C142.53 50.9961 141.901 51.6968 141.901 52.5611C141.901 53.4255 142.53 54.1262 143.307 54.1262Z" fill="#E6E6E6"/>
<path d="M81.188 98.9264C81.188 99.143 81.3443 99.3169 81.5388 99.3169H141.768C141.963 99.3169 142.119 99.143 142.119 98.9264C142.119 98.7098 141.963 98.5359 141.768 98.5359H81.5388C81.3443 98.5359 81.188 98.7098 81.188 98.9264Z" fill="#3F3D56"/>
<path d="M128.956 154.159C128.956 154.376 129.112 154.55 129.307 154.55H189.536C189.731 154.55 189.887 154.376 189.887 154.159C189.887 153.942 189.731 153.769 189.536 153.769H129.307C129.112 153.769 128.956 153.942 128.956 154.159Z" fill="#3F3D56"/>
<path d="M135.993 129.621H99.8479C99.2506 129.621 98.7646 129.08 98.7646 128.415C98.7646 127.75 99.2506 127.21 99.8479 127.21H135.993C136.59 127.21 137.076 127.75 137.076 128.415C137.076 129.08 136.59 129.621 135.993 129.621Z" fill="#CA0000"/>
<path d="M88.8849 131.22C90.3503 131.22 91.5383 129.897 91.5383 128.266C91.5383 126.635 90.3503 125.313 88.8849 125.313C87.4194 125.313 86.2314 126.635 86.2314 128.266C86.2314 129.897 87.4194 131.22 88.8849 131.22Z" fill="#CA0000"/>
<path d="M88.5903 133.188V132.532C90.7849 132.532 92.5704 130.544 92.5704 128.101C92.5704 125.658 90.7849 123.671 88.5903 123.671V123.015C91.1101 123.015 93.1601 125.296 93.1601 128.101C93.1601 130.906 91.1101 133.188 88.5903 133.188Z" fill="#3F3D56"/>
<path d="M56.9868 116.354C58.0691 115.128 59.5148 114.756 60.2157 115.523C60.9165 116.29 60.6072 117.905 59.5243 119.132C59.0977 119.628 58.5706 120.004 57.9869 120.227L53.342 125.357L51.2256 122.88L56.0293 118.085C56.2197 117.431 56.548 116.838 56.9868 116.354Z" fill="#FFB6B6"/>
<path d="M42.1321 112.12L47.0021 124.146L54.7789 119.46L57.5621 121.104C57.5621 121.104 51.2047 132.935 46.8519 131.588C42.499 130.241 34.7694 118.03 36.1621 114.261C37.5548 110.492 42.1321 112.12 42.1321 112.12Z" fill="#E6E6E6"/>
<path d="M21 194.597C21 194.748 21.1091 194.87 21.245 194.87H171.403C171.539 194.87 171.648 194.748 171.648 194.597C171.648 194.446 171.539 194.324 171.403 194.324H21.245C21.1091 194.324 21 194.446 21 194.597Z" fill="#3F3D56"/>
<path d="M65.9518 135.804C73.3317 135.804 79.3143 129.285 79.3143 121.244C79.3143 113.202 73.3317 106.683 65.9518 106.683C58.5719 106.683 52.5894 113.202 52.5894 121.244C52.5894 129.285 58.5719 135.804 65.9518 135.804Z" fill="#CA0000"/>
<path d="M39.9958 192.268L43.5469 192.268L45.2362 177.021L39.9951 177.022L39.9958 192.268Z" fill="#FFB6B6"/>
<path d="M52.1627 192.179C52.2733 192.387 52.3316 193.056 52.3316 193.297C52.3316 194.038 51.792 194.638 51.1264 194.638H40.1291C39.675 194.638 39.3069 194.229 39.3069 193.723V193.213C39.3069 193.213 38.7629 191.682 39.8829 189.794C39.8829 189.794 41.275 191.272 43.3551 188.957L43.9685 187.72L48.4087 191.334L50.8699 191.672C51.4083 191.745 51.8858 191.66 52.1627 192.179Z" fill="#2F2E41"/>
<path d="M42.6833 112.892L42.7551 107.561L39.8015 105.511L36.5898 109.884L42.6833 112.892Z" fill="#FFB6B6"/>
<path opacity="0.1" d="M42.683 112.892L42.8742 107.693L39.8013 105.511L40.8453 111.945L42.683 112.892Z" fill="black"/>
<path d="M49.8563 148.144L44.963 185.209H38.8238L39.6401 164.051L40.0698 152.927L38.8238 147.632C38.8238 147.632 38.2557 146.455 37.7771 145.028C37.2377 143.418 36.8116 141.488 37.4441 140.572C37.6769 140.235 38.2819 139.985 39.1042 139.799C39.6067 139.685 40.1915 139.596 40.8229 139.527C44.4534 139.127 49.6176 139.377 49.6176 139.377L49.7488 144.199L49.8216 146.892L49.8563 148.144Z" fill="#2F2E41"/>
<path d="M33.7412 190.455L37.2546 191.029L40.9182 176.219L35.7328 175.371L33.7412 190.455Z" fill="#FFB6B6"/>
<path d="M45.79 192.337C45.8723 192.56 45.8426 193.231 45.8111 193.469C45.7143 194.202 45.102 194.709 44.4434 194.602L33.5631 192.821C33.1138 192.747 32.8032 192.282 32.8692 191.782L32.9358 191.278C32.9358 191.278 32.5977 189.675 33.9526 187.988C33.9526 187.988 35.1367 189.676 37.4972 187.722L38.2657 186.598L42.1864 190.893L44.5773 191.625C45.1004 191.785 45.5839 191.778 45.79 192.337Z" fill="#2F2E41"/>
<path d="M49.9336 141.964L49.2625 148.398L45.6024 161.955L39.5772 184.276L33.5039 183.282L38.9546 151.546L38.4149 146.104C38.4149 146.104 38.2391 145.563 38.0376 144.771C37.6377 143.204 37.1362 140.653 37.688 139.351C37.7625 139.175 37.856 139.021 37.9717 138.897C38.1888 138.662 38.6299 138.52 39.2209 138.445C41.6912 138.134 46.7786 139.023 49.0424 139.459L49.9336 141.964Z" fill="#2F2E41"/>
<path d="M37.2649 108.756L43.2323 111.945C43.2323 111.945 49.5577 132.802 49.5577 133.864C49.5577 134.927 51.3479 135.591 50.2738 136.787C49.1997 137.983 52.273 138.995 50.617 139.95C48.961 140.905 38.6304 146.129 37.4817 145.658C34.3134 144.359 37.6159 139.585 37.6159 139.585C37.6159 139.585 35.236 137.451 35.5941 136.388C35.9521 135.326 33.4458 115 33.4458 115L37.2649 108.756Z" fill="#E6E6E6"/>
<path d="M55.4485 127.133C56.9294 126.646 58.3557 127.102 58.634 128.151C58.9122 129.201 57.9373 130.445 56.4557 130.932C55.8663 131.136 55.2417 131.18 54.6341 131.059L48.3357 133.035L47.5659 129.725L53.8567 128.129C54.3083 127.66 54.8541 127.319 55.4485 127.133Z" fill="#FFB6B6"/>
<path d="M44.3084 115.405L43.3212 128.55L52.1637 128.656L53.8798 131.597C53.8798 131.597 43.1622 138.505 39.944 134.975C36.7258 131.446 35.2939 116.593 38.1552 114.051C41.0164 111.508 44.3084 115.405 44.3084 115.405Z" fill="#E6E6E6"/>
<path d="M42.5582 109.106C45.3814 109.106 47.6701 106.559 47.6701 103.416C47.6701 100.274 45.3814 97.7263 42.5582 97.7263C39.735 97.7263 37.4463 100.274 37.4463 103.416C37.4463 106.559 39.735 109.106 42.5582 109.106Z" fill="#FFB6B6"/>
<path d="M39.8013 103.439C39.8013 103.439 40.6063 101.961 41.049 101.199C41.4918 100.437 41.4918 99.3215 41.4918 99.3215C41.4918 99.3215 45.5974 99.2276 46.966 100.527C48.3345 101.826 49.3005 97.0323 47.9723 95.3745C47.9723 95.3745 47.4087 96.0914 47.5295 96.3602L47.6502 96.629C47.6502 96.629 46.966 93.5824 44.9937 92.9999C44.9937 92.9999 43.8965 93.6307 44.2036 93.9874C44.5107 94.344 41.8541 91.835 41.049 93.3135C41.049 93.3135 39.0767 93.2687 39.3182 94.0752L39.1975 94.568C39.1975 94.568 37.5069 93.9856 37.3862 95.3745C37.3862 95.3745 37.99 95.3745 38.312 95.7329C38.634 96.0914 37.1447 97.1219 37.1447 97.1219C37.1447 97.1219 35.4139 102.409 37.7484 104.559C37.7484 104.559 37.7686 101.983 38.6943 102.61C39.6201 103.238 39.8013 103.439 39.8013 103.439Z" fill="#2F2E41"/>
<path d="M44.6655 106.799L44.4819 107.337L45.8585 107.382L45.9503 106.889L44.6655 106.799Z" fill="#2F2E41"/>
<path d="M46.0421 104.873C46.0421 104.873 43.9772 104.246 42.7383 106.128L42.463 106.486C42.463 106.486 39.8474 103.216 40.0769 102.006L39.5262 102.051L38.9756 105.187C38.9756 105.187 40.7193 108.547 43.1512 108.682C43.1512 108.682 45.4915 109.309 45.9962 108.234C46.501 107.158 47.37 105.573 47.37 105.573L46.0421 104.873ZM45.6665 107.875H44.2984C43.9772 107.875 43.1512 106.576 43.1512 106.576C43.6101 105.769 44.9867 105.725 44.9867 105.725H46.4816L46.5927 106.217L45.6665 107.875Z" fill="#2F2E41"/>
<path d="M145.691 192.702L143.446 192.162L144.249 182.269L147.562 183.066L145.691 192.702Z" fill="#A0616A"/>
<path d="M138.012 190.797C137.916 190.911 137.797 191.325 137.768 191.477C137.677 191.946 137.944 192.407 138.365 192.509L145.316 194.18C145.603 194.249 145.886 194.046 145.948 193.727L146.01 193.405C146.01 193.405 146.542 192.519 146.066 191.156C146.066 191.156 145.005 191.878 143.974 190.099L143.738 189.224L140.488 190.833L138.891 190.672C138.542 190.637 138.25 190.511 138.012 190.797Z" fill="#2F2E41"/>
<path d="M141.676 191.944L139.803 190.464L144.039 181.72L146.802 183.904L141.676 191.944Z" fill="#A0616A"/>
<path d="M135.29 186.828C135.162 186.891 134.907 187.219 134.825 187.347C134.576 187.737 134.659 188.279 135.01 188.556L140.809 193.137C141.049 193.327 141.381 193.264 141.551 192.997L141.722 192.729C141.722 192.729 142.524 192.147 142.568 190.685C142.568 190.685 141.337 190.885 141.018 188.797L141.111 187.889L137.554 187.946L136.143 187.098C135.834 186.913 135.611 186.669 135.29 186.828Z" fill="#2F2E41"/>
<path d="M168.652 143.031C168.652 143.031 172.144 148.315 165.16 154.256L150.901 149.185L155.994 137.362L160.504 134.609L168.652 143.031Z" fill="#2F2E41"/>
<path d="M150.901 149.184L145.372 161.168L141.88 186.109L146.245 186.433L150.61 162.788L158.321 149.994L152.938 147.241" fill="#2F2E41"/>
<path d="M165.16 150.491V154.256L155.266 166.351C155.266 166.351 155.266 175.42 151.483 179.631L147.118 187.081L143.335 184.813L148.864 163.112L158.758 148.86L165.16 150.491Z" fill="#2F2E41"/>
<path d="M158.129 113.17L159.629 121.08L165.349 119.524C165.349 119.524 162.522 112.978 163.084 110.385L158.129 113.17Z" fill="#A0616A"/>
<path opacity="0.1" d="M158.129 113.17L159.629 121.08L165.349 119.524C165.349 119.524 162.522 112.978 163.084 110.385L158.129 113.17Z" fill="black"/>
<path d="M163.559 114.365L159.195 116.632C159.195 116.632 156.949 118.16 156.908 119.177C156.867 120.195 157.158 125.053 157.158 125.053C157.158 125.053 155.412 126.997 156.576 130.884L155.994 137.362L169.088 145.135L167.924 131.531L168.506 118.899L163.559 114.365Z" fill="#E6E6E6"/>
<path d="M167.477 151.224C166.966 152.529 165.947 153.293 165.201 152.931C164.455 152.569 164.264 151.218 164.776 149.912C164.974 149.387 165.281 148.923 165.674 148.558L167.902 143.058L170.198 144.277L167.758 149.569C167.784 150.138 167.688 150.705 167.477 151.224Z" fill="#A0616A"/>
<path d="M165.16 119.708C165.16 119.708 168.361 117.441 169.524 120.032C170.688 122.624 173.307 135.903 173.307 135.903L169.524 148.536L166.033 146.916L169.088 133.321L165.16 119.708Z" fill="#E6E6E6"/>
<path d="M148.755 149.186C147.848 150.19 146.647 150.483 146.073 149.84C145.499 149.198 145.77 147.863 146.677 146.859C147.035 146.452 147.475 146.147 147.96 145.968L151.852 141.769L153.583 143.844L149.563 147.763C149.399 148.303 149.122 148.791 148.755 149.186Z" fill="#A0616A"/>
<path d="M157.031 118.936C157.031 118.936 162.611 118.682 162.836 121.568C163.06 124.455 159.245 137.333 159.245 137.333L151.548 147.526L148.837 144.588L156.177 133.202L157.031 118.936Z" fill="#E6E6E6"/>
<path d="M173.144 153.141L137.46 146.735C136.871 146.629 136.468 146.009 136.563 145.352C136.658 144.696 137.215 144.248 137.805 144.354L173.489 150.761C174.078 150.866 174.481 151.486 174.385 152.143C174.29 152.799 173.733 153.247 173.144 153.141Z" fill="#CA0000"/>
<path d="M126.831 146.408C128.297 146.408 129.485 145.085 129.485 143.454C129.485 141.823 128.297 140.501 126.831 140.501C125.366 140.501 124.178 141.823 124.178 143.454C124.178 145.085 125.366 146.408 126.831 146.408Z" fill="#CA0000"/>
<path d="M125.836 148.262L125.93 147.614C128.096 148.003 130.143 146.358 130.493 143.946C130.842 141.534 129.364 139.256 127.197 138.867L127.291 138.219C129.779 138.665 131.476 141.281 131.075 144.05C130.674 146.819 128.324 148.709 125.836 148.262Z" fill="#3F3D56"/>
<path d="M158.702 114.852C161.129 114.852 163.096 112.662 163.096 109.961C163.096 107.259 161.129 105.069 158.702 105.069C156.275 105.069 154.307 107.259 154.307 109.961C154.307 112.662 156.275 114.852 158.702 114.852Z" fill="#A0616A"/>
<path d="M161.299 109.959C161.299 109.959 158.555 107.187 156.797 108.166C155.039 109.144 154.16 109.796 154.16 109.796C154.16 109.796 152.696 107.35 154.893 105.231C154.893 105.231 150.42 103.056 153.682 99.6591C156.944 96.2625 159.873 97.567 159.873 97.567C159.873 97.567 163.829 99.5237 161.045 103.437C161.045 103.437 165.1 106.299 163 110.983C163 110.983 162.803 108.003 162.217 108.818C161.631 109.633 161.299 109.959 161.299 109.959Z" fill="#2F2E41"/>
<path d="M70.5426 126.725C68.8625 122.127 67.1825 117.53 65.5025 112.932C65.2705 112.297 64.5436 112.274 64.3172 112.932C62.6572 117.752 61.5725 122.782 61.051 127.911C60.9622 128.784 62.1921 128.777 62.2802 127.911C62.4843 125.904 62.7872 123.912 63.1762 121.941C64.5605 122.022 65.9563 121.849 67.2922 121.438C67.9806 123.321 68.6689 125.205 69.3572 127.089C69.6514 127.894 70.841 127.542 70.5426 126.725ZM63.4549 120.589C63.869 118.702 64.3653 116.838 64.9413 115.004L66.8253 120.16C65.7218 120.482 64.5933 120.626 63.4549 120.589Z" fill="white"/>
<path d="M105 123C105.552 123 106 122.328 106 121.5C106 120.672 105.552 120 105 120C104.448 120 104 120.672 104 121.5C104 122.328 104.448 123 105 123Z" fill="white"/>
<path d="M105 123C105.552 123 106 122.328 106 121.5C106 120.672 105.552 120 105 120C104.448 120 104 120.672 104 121.5C104 122.328 104.448 123 105 123Z" fill="white"/>
<defs>
<filter id="filter0_d_273_375" x="0" y="0" width="210" height="250" filterUnits="userSpaceOnUse" color-interpolation-filters="sRGB">
<feFlood flood-opacity="0" result="BackgroundImageFix"/>
<feColorMatrix in="SourceAlpha" type="matrix" values="0 0 0 0 0 0 0 0 0 0 0 0 0 0 0 0 0 0 127 0" result="hardAlpha"/>
<feOffset dy="4"/>
<feGaussianBlur stdDeviation="5"/>
<feComposite in2="hardAlpha" operator="out"/>
<feColorMatrix type="matrix" values="0 0 0 0 0 0 0 0 0 0 0 0 0 0 0 0 0 0 0.1 0"/>
<feBlend mode="normal" in2="BackgroundImageFix" result="effect1_dropShadow_273_375"/>
<feBlend mode="normal" in="SourceGraphic" in2="effect1_dropShadow_273_375" result="shape"/>
</filter>
</defs>
</svg>
