<svg width="41" height="23" viewBox="0 0 41 23" fill="none" xmlns="http://www.w3.org/2000/svg">
<path d="M29.8921 22.6497C29.6983 22.8438 29.3845 22.8456 29.1886 22.6539L27.8506 21.3449C27.6518 21.1504 27.6499 20.8311 27.8464 20.6342L34.646 13.8237C34.9622 13.5069 34.7348 12.9661 34.2872 12.9705L0.504927 13.3034C0.226872 13.3062 0 13.0815 0 12.8035V10.5894C0 10.3133 0.223858 10.0894 0.5 10.0894H34.3041C34.7494 10.0894 34.9726 9.55123 34.658 9.23613L27.7987 2.36577C27.6022 2.16894 27.604 1.84959 27.8028 1.65509L29.1408 0.346124C29.3368 0.154399 29.6506 0.156245 29.8443 0.350262L40.6473 11.1706C40.8422 11.3658 40.8422 11.682 40.6473 11.8772L29.8921 22.6497Z" fill="#CA0000"/>
</svg>
